<svg width="39" height="45" viewBox="0 0 39 45" fill="none" xmlns="http://www.w3.org/2000/svg">
<path d="M21.2856 2.5C21.2856 1.39543 20.3902 0.5 19.2856 0.5C18.1811 0.5 17.2856 1.39543 17.2856 2.5H21.2856ZM17.8714 43.9142C18.6525 44.6953 19.9188 44.6953 20.6999 43.9142L33.4278 31.1863C34.2088 30.4052 34.2088 29.1389 33.4278 28.3579C32.6467 27.5768 31.3804 27.5768 30.5994 28.3579L19.2856 39.6716L7.97194 28.3579C7.19089 27.5768 5.92456 27.5768 5.14351 28.3579C4.36246 29.1389 4.36246 30.4052 5.14351 31.1863L17.8714 43.9142ZM19.2856 2.5H17.2856V42.5H19.2856H21.2856V2.5H19.2856Z" fill="#F8F7E5"/>
</svg>
