<svg width="148" height="148" viewBox="0 0 148 148" fill="none" xmlns="http://www.w3.org/2000/svg">
<circle cx="74" cy="74" r="74" fill="#679AAC"/>
<g clip-path="url(#clip0_214_1183)">
<path d="M30 79.942L31.6781 87.1116L56.4543 82.1027L36.9591 98.3571L41.5491 104.103L61.7353 88.8795L51.2227 111.911L57.8856 115.103L69.4347 92.7098L70.0269 118H77.4302L78.0224 92.808L89.6209 115.348L96.2838 112.156L85.8205 89.2232L106.105 104.545L110.695 98.75L91.2989 82.5938L116.223 87.6518L117.901 80.4821L93.3225 74.2946L118 68.058L116.371 60.8884L91.5457 65.8973L111.041 49.6429L106.451 43.8973L86.2647 59.1205L96.7773 36.0893L90.1144 32.8973L78.5653 55.3393L77.9731 30H70.5698L69.9776 55.192L58.4285 32.6518L51.7162 35.8438L62.1795 58.7768L41.8946 43.4554L37.3045 49.25L56.7011 65.4063L31.7768 60.3482L30.1481 67.5179L54.6775 73.7054L30 79.942Z" fill="#F9AF42"/>
</g>
<g clip-path="url(#clip1_214_1183)">
<path d="M66.055 145.791C66.434 145.882 66.7999 145.934 67.1657 145.974C67.9106 146.039 68.6031 145.974 69.2434 145.778C69.8706 145.582 70.3933 145.268 70.7853 144.837C71.1774 144.405 71.3995 143.883 71.4648 143.256C71.5171 142.668 71.4126 142.158 71.1512 141.727C70.8899 141.309 70.5501 140.943 70.132 140.629C69.7138 140.315 69.2826 140.028 68.8514 139.78C68.4202 139.531 68.0412 139.296 67.7146 139.087C67.3879 138.878 67.1265 138.643 66.9436 138.395C66.7607 138.146 66.6823 137.859 66.7084 137.545C66.7345 137.31 66.8129 137.088 66.9697 136.853C67.1265 136.617 67.3618 136.435 67.6754 136.304C68.0935 136.343 68.5247 136.421 68.969 136.565C69.2826 136.657 69.5832 136.8 69.8706 136.97L70.4325 139.218L71.5563 139.322C71.6478 139.035 71.7262 138.708 71.8046 138.342C71.883 137.976 71.9483 137.611 71.9875 137.271C72.0267 136.931 72.0529 136.657 72.0659 136.448C71.7654 136.199 71.3995 135.99 70.9813 135.794C70.5632 135.611 70.132 135.468 69.6746 135.35C69.2173 135.232 68.8122 135.167 68.4333 135.128C67.7407 135.062 67.0873 135.128 66.4863 135.311C65.8852 135.494 65.3755 135.807 64.9835 136.252C64.5784 136.683 64.3563 137.245 64.291 137.911C64.2387 138.538 64.3302 139.061 64.5784 139.492C64.8267 139.923 65.1665 140.302 65.5846 140.616C66.0028 140.93 66.434 141.217 66.9044 141.478C67.3225 141.727 67.7146 141.962 68.0543 142.171C68.4071 142.38 68.6815 142.615 68.8775 142.837C69.0866 143.073 69.165 143.334 69.1519 143.635C69.1258 143.857 69.0474 144.092 68.9037 144.314C68.7599 144.536 68.5639 144.706 68.3156 144.824C67.7146 144.798 67.1265 144.654 66.5777 144.419C66.434 144.366 66.3164 144.262 66.1857 144.183L65.8852 142.393L64.6307 142.276C64.5262 142.589 64.4478 142.916 64.3824 143.256C64.3171 143.595 64.2648 143.935 64.2126 144.262C64.1734 144.588 64.1342 144.876 64.108 145.124C64.3563 145.255 64.6438 145.372 64.9835 145.49C65.3233 145.608 65.663 145.699 66.042 145.791H66.055Z" fill="#F8F7E5"/>
<path d="M61.1551 134.253C60.6716 133.979 60.1358 133.809 59.5217 133.757L57.0912 134.41L57.248 135.246C57.5747 135.181 57.8883 135.142 58.1757 135.129C58.4632 135.129 58.7376 135.142 58.999 135.194C59.4825 135.298 59.8614 135.508 60.1489 135.821C60.4364 136.135 60.6193 136.514 60.6977 136.958C60.7761 137.415 60.763 137.899 60.6454 138.422C60.554 138.814 60.4102 139.192 60.1881 139.585C59.979 139.977 59.6785 140.303 59.3126 140.565C58.9859 140.369 58.6854 140.094 58.4371 139.754C58.1757 139.415 57.9536 139.023 57.7707 138.578L55.8498 139.349C55.9282 139.767 56.085 140.12 56.3202 140.434C56.5554 140.747 56.8298 140.996 57.1696 141.205C57.5093 141.414 57.8752 141.558 58.2803 141.649C58.9859 141.806 59.6523 141.78 60.3057 141.584C60.946 141.375 61.5079 141.022 61.9652 140.499C62.4226 139.977 62.7362 139.323 62.9191 138.526C63.0498 137.912 63.0759 137.337 62.9714 136.788C62.8668 136.239 62.6708 135.756 62.3572 135.325C62.0436 134.893 61.6647 134.541 61.1812 134.266L61.1551 134.253Z" fill="#F8F7E5"/>
<path d="M50.3877 135.52L49.1986 135.102C49.0548 135.284 48.9111 135.494 48.7543 135.729C48.5975 135.964 48.4537 136.212 48.3231 136.474C48.1924 136.735 48.0748 136.983 47.9702 137.231C47.8657 137.48 47.7742 137.689 47.722 137.885C47.8918 138.159 48.1401 138.368 48.4537 138.538C48.7804 138.695 49.1332 138.773 49.5252 138.76L51.5768 137.689L51.1848 138.8L51.6813 139.767C52.1387 139.897 52.6091 140.002 53.0926 140.08C53.5891 140.159 54.0465 140.185 54.4907 140.172L54.6345 139.427L53.576 138.904L55.327 133.926C55.4185 133.926 55.4969 133.926 55.5884 133.926C55.9543 133.926 56.2809 133.899 56.5815 133.834L56.7122 133.311L55.1964 132.776L53.4976 132.175L51.9688 131.639L51.6552 132.344C51.7859 132.488 51.9427 132.632 52.1387 132.789C52.3347 132.945 52.5307 133.089 52.7397 133.22C52.8573 133.285 52.9488 133.351 53.0534 133.403L51.9819 136.461C51.9819 136.461 51.9557 136.474 51.9426 136.487C51.5898 136.709 51.2632 136.879 50.9496 137.009C50.6359 137.14 50.3223 137.231 50.0218 137.297L50.3485 135.52H50.3877Z" fill="#F8F7E5"/>
<path d="M48.7935 132.109C48.7412 131.391 48.5321 130.764 48.1532 130.215C47.7743 129.666 47.2777 129.235 46.6766 128.934C46.0755 128.634 45.4614 128.503 44.8211 128.529C44.1808 128.555 43.5797 128.764 43.0047 129.143C42.4298 129.522 41.9594 130.11 41.5674 130.881C41.1753 131.665 41.0055 132.41 41.0447 133.103C41.0839 133.795 41.2929 134.409 41.6588 134.945C42.0247 135.481 42.5082 135.899 43.1093 136.199C43.7104 136.5 44.3376 136.644 44.9909 136.618C45.6443 136.605 46.2715 136.409 46.8465 136.03C47.4345 135.651 47.918 135.089 48.2969 134.318C48.6759 133.56 48.8458 132.828 48.7935 132.109ZM46.6766 131.966C46.5851 132.397 46.4283 132.841 46.1931 133.299C45.971 133.743 45.7358 134.135 45.4614 134.475C45.187 134.814 44.9125 135.063 44.6381 135.206C44.5205 135.232 44.3899 135.232 44.2331 135.206C44.0893 135.18 43.9325 135.128 43.8018 135.063C43.4752 134.906 43.2661 134.644 43.1877 134.305C43.1093 133.965 43.1223 133.573 43.2269 133.129C43.3314 132.684 43.5013 132.227 43.7365 131.757C43.8802 131.482 44.037 131.195 44.22 130.92C44.4029 130.646 44.5989 130.411 44.808 130.228C45.0171 130.045 45.2392 129.927 45.4875 129.888C45.6704 129.914 45.8403 129.979 45.9971 130.058C46.3499 130.228 46.5721 130.489 46.6635 130.829C46.7681 131.169 46.7681 131.561 46.6635 131.992L46.6766 131.966Z" fill="#F8F7E5"/>
<path d="M41.3845 127.576C41.4759 127.602 41.5674 127.628 41.672 127.654C42.0248 127.732 42.3514 127.785 42.6651 127.798L42.9133 127.327L41.5674 126.465L40.9141 126.047L39.1108 124.897L38.6404 125.511C38.771 125.772 38.954 126.06 39.2023 126.334C39.2545 126.4 39.3068 126.439 39.346 126.491L34.1845 134.606L34.472 135.625C34.877 135.86 35.3083 136.069 35.7787 136.252C36.2491 136.435 36.6934 136.566 37.1246 136.657L37.4513 135.952L36.5235 135.207L41.3845 127.562V127.576Z" fill="#F8F7E5"/>
<path d="M36.9415 124.596C37.0329 124.635 37.1244 124.661 37.2159 124.701C37.5687 124.818 37.8823 124.883 38.1959 124.923L38.4834 124.465L37.5687 123.773L37.3858 123.629L37.2159 123.498L36.6017 123.028L34.903 121.734L34.3803 122.309C34.4849 122.584 34.6416 122.871 34.8638 123.185C34.9161 123.25 34.9553 123.289 34.9945 123.355L29.1665 130.999L29.3625 132.031C29.7545 132.306 30.1596 132.541 30.6039 132.763C31.0482 132.985 31.4794 133.155 31.9106 133.286L32.2896 132.606L31.4271 131.796L36.9153 124.596H36.9415Z" fill="#F8F7E5"/>
<path d="M29.8853 117.54C29.7939 116.912 29.5064 116.324 29.0098 115.802L26.8668 115.344C26.9714 115.122 27.0498 114.9 27.0759 114.665C27.102 114.403 27.102 114.155 27.0498 113.933C27.0106 113.711 26.9191 113.528 26.8015 113.397L24.7761 112.652L24.3449 113.227C24.4625 113.319 24.567 113.41 24.6715 113.489C24.7761 113.567 24.8545 113.646 24.9329 113.737C25.0113 113.815 25.0505 113.92 25.0505 114.011C25.0505 114.116 25.0113 114.194 24.9329 114.26L18.1772 120.375V121.434C18.5169 121.773 18.8828 122.087 19.2748 122.387C19.6668 122.688 20.0719 122.936 20.4639 123.132L20.9605 122.531L20.2679 121.577L22.0973 119.918C22.2541 120.205 22.424 120.493 22.6723 120.754C23.0904 121.225 23.5478 121.564 24.0443 121.786C24.5409 122.009 25.0505 122.139 25.5732 122.152C26.0959 122.165 26.6055 122.074 27.102 121.891C27.5986 121.708 28.0559 121.421 28.461 121.042C28.9837 120.571 29.3626 120.022 29.624 119.408C29.8723 118.794 29.9637 118.167 29.8723 117.527L29.8853 117.54ZM27.4548 118.48C27.2719 118.833 27.0236 119.147 26.6969 119.447C26.3311 119.774 25.926 120.035 25.4817 120.218C25.0374 120.401 24.6062 120.48 24.1881 120.427C23.9006 120.166 23.6654 119.866 23.5086 119.539C23.404 119.317 23.3256 119.095 23.2734 118.872L26.4748 115.972C26.4748 115.972 26.5009 115.972 26.514 115.985C26.8668 116.154 27.1282 116.337 27.3111 116.546C27.5594 116.821 27.6901 117.121 27.7031 117.461C27.7162 117.801 27.6378 118.141 27.4548 118.493V118.48Z" fill="#F8F7E5"/>
<path d="M22.1887 114.168C22.8813 113.685 23.3909 113.123 23.6915 112.483C23.992 111.842 24.1096 111.176 24.0443 110.509C23.9789 109.843 23.7568 109.229 23.3648 108.667C22.9858 108.118 22.5154 107.7 21.9405 107.413C21.3655 107.125 20.7383 107.007 20.0588 107.073C19.3793 107.125 18.6737 107.4 17.955 107.896C17.2363 108.393 16.7136 108.954 16.4131 109.582C16.1125 110.209 15.9818 110.849 16.0472 111.49C16.1125 112.143 16.3346 112.731 16.7136 113.293C17.0925 113.842 17.576 114.273 18.151 114.573C18.739 114.874 19.3662 115.005 20.0588 114.965C20.7513 114.926 21.457 114.652 22.1626 114.168H22.1887ZM18.5561 113.162C18.4385 113.123 18.3209 113.058 18.2032 112.966C18.0856 112.875 17.9811 112.757 17.8896 112.626C17.6806 112.326 17.6283 111.999 17.7198 111.659C17.8112 111.32 18.0203 110.98 18.3209 110.653C18.6214 110.313 19.0003 110 19.4316 109.699C19.6929 109.516 19.9673 109.36 20.2548 109.203C20.5553 109.046 20.8297 108.941 21.1042 108.876C21.3786 108.811 21.6268 108.824 21.8621 108.902C22.0058 109.02 22.1234 109.151 22.2279 109.294C22.4501 109.608 22.5154 109.948 22.437 110.287C22.3586 110.64 22.1757 110.967 21.8882 111.307C21.6007 111.646 21.2348 111.947 20.8167 112.247C20.4116 112.522 20.0065 112.744 19.6014 112.914C19.1964 113.084 18.8435 113.162 18.5299 113.149L18.5561 113.162Z" fill="#F8F7E5"/>
<path d="M19.7582 103.427C19.7059 103.218 19.6275 102.983 19.4968 102.722C19.3662 102.46 19.2485 102.212 19.0917 101.964C18.9349 101.715 18.7912 101.519 18.6344 101.363L15.9034 101.467L17.8896 99.494C17.8373 99.298 17.7589 99.0758 17.6544 98.8145C17.5368 98.5662 17.4061 98.3179 17.2623 98.0696C17.1186 97.8214 16.9618 97.6254 16.7919 97.4555L10.2322 98.2656C10.2322 98.2656 10.1146 98.1611 10.0623 98.1088C9.89247 97.9651 9.72259 97.8344 9.53965 97.7038L8.92549 98.0435L9.29137 98.8145L9.46125 99.1673L9.80099 99.8729L10.5458 101.441L11.2907 101.101V100.239L15.7074 98.9582L15.7727 99.0889L14.5182 99.9774L11.3168 102.891L12.4928 104.865L14.5182 102.852L17.4583 102.63L17.5237 102.774L16.2692 103.728L13.8257 105.936C13.8257 105.936 13.7995 105.91 13.7734 105.897C13.6035 105.753 13.4206 105.609 13.2507 105.479L12.6366 105.832L13.0286 106.655L13.499 107.661L14.27 109.281L15.0148 108.942V107.975L19.7712 103.388L19.7582 103.427Z" fill="#F8F7E5"/>
<path d="M9.27839 95.1034L14.3746 93.7313C14.4268 93.8097 14.453 93.862 14.5053 93.9404C14.7143 94.2409 14.9234 94.4892 15.1455 94.6983L15.6421 94.5153L15.3546 93.4569L15.0541 92.3331L14.5314 90.3992L13.7735 90.5429C13.682 90.8304 13.6298 91.1309 13.6167 91.4707C13.6167 91.4968 13.6167 91.536 13.6167 91.5622L9.44826 92.6859C9.25225 92.503 9.06931 92.3201 8.92557 92.124C8.74263 91.8888 8.61196 91.6667 8.55969 91.4576C8.46822 91.144 8.52049 90.8696 8.70343 90.6213C8.89944 90.373 9.25225 90.177 9.76187 90.0464L13.1985 89.1186C13.4076 89.4191 13.6167 89.6674 13.8388 89.8765L14.3354 89.6936L13.9172 88.1516L13.7604 87.5767L13.2377 85.6427L12.4798 85.7865C12.3884 86.074 12.3492 86.4006 12.3361 86.7926C12.3361 86.858 12.3361 86.9103 12.3361 86.9756L9.01704 87.8772C8.61196 87.9818 8.29835 88.0863 8.05008 88.1647C7.81487 88.2431 7.63193 88.3215 7.48819 88.3868C7.35752 88.4522 7.25298 88.5175 7.18764 88.5959C6.99163 88.805 6.8479 89.0271 6.75643 89.2885C6.66496 89.5498 6.61269 89.7981 6.58655 90.0594C6.57348 90.3077 6.58655 90.5429 6.62575 90.752C6.78256 91.0264 7.01777 91.34 7.33138 91.6798C7.64499 92.0195 8.01088 92.3593 8.4421 92.7251C8.5205 92.7905 8.62503 92.8558 8.70343 92.9211L8.01088 93.1041L7.47512 94.058C7.61886 94.5023 7.8018 94.9596 8.01088 95.4039C8.23302 95.8482 8.46822 96.2533 8.72956 96.6191L9.42213 96.3186L9.25225 95.1426L9.27839 95.1034Z" fill="#F8F7E5"/>
<path d="M12.0617 79.7886C12.2054 79.671 12.3361 79.5142 12.4668 79.3312C12.5974 79.1483 12.7281 78.9392 12.8457 78.7432C12.9633 78.5472 13.0417 78.3512 13.094 78.1944C12.9241 77.9722 12.6758 77.7762 12.3884 77.5802C12.0878 77.3842 11.8003 77.2535 11.539 77.1751C11.4083 77.2797 11.2777 77.4234 11.1339 77.5802C10.9902 77.7501 10.8726 77.933 10.7419 78.129C10.6243 78.3251 10.5328 78.5211 10.4936 78.704C10.6374 78.9131 10.8595 79.1091 11.1601 79.3051C11.4606 79.5011 11.7611 79.6579 12.0617 79.7755V79.7886Z" fill="#F8F7E5"/>
<path d="M2.22217 69.1913C2.41818 69.8185 2.73179 70.3412 3.16301 70.7332C3.59422 71.1252 4.11691 71.3604 4.74413 71.4127C5.33215 71.465 5.84177 71.3604 6.27299 71.0991C6.7042 70.8377 7.05702 70.498 7.37063 70.0799C7.68424 69.6617 7.97171 69.2305 8.23306 68.7993C8.48133 68.3681 8.71654 67.9891 8.92561 67.6624C9.13469 67.3358 9.3699 67.0744 9.61817 66.9045C9.86645 66.7347 10.1539 66.6432 10.4675 66.6693C10.7027 66.6955 10.9249 66.7739 11.1601 66.9307C11.3953 67.0875 11.5783 67.3227 11.7089 67.6363C11.6697 68.0544 11.5913 68.4857 11.4476 68.9299C11.3561 69.2436 11.2124 69.5441 11.0425 69.8316L8.79495 70.3935L8.69041 71.5172C8.97788 71.6087 9.30456 71.6871 9.67044 71.7655C10.0363 71.8439 10.4022 71.9093 10.7419 71.9485C11.0817 71.9877 11.3561 72.0138 11.5652 72.0269C11.8135 71.7263 12.0225 71.3604 12.2185 70.9423C12.4015 70.5241 12.5452 70.0929 12.6628 69.6356C12.7804 69.1782 12.8458 68.7731 12.885 68.3942C12.9503 67.7016 12.885 67.0483 12.702 66.4472C12.5191 65.8461 12.2055 65.3365 11.7612 64.9314C11.33 64.5263 10.7681 64.3042 10.1017 64.2388C9.47444 64.1866 8.95175 64.278 8.52054 64.5263C8.08932 64.7746 7.71037 65.1143 7.39676 65.5325C7.08315 65.9506 6.79567 66.3949 6.53432 66.8523C6.28605 67.2704 6.05084 67.6494 5.84177 68.0022C5.63269 68.355 5.39749 68.6294 5.17535 68.8254C4.94014 69.0345 4.67879 69.1129 4.36518 69.0867C4.14304 69.0606 3.90783 68.9822 3.68569 68.8515C3.46354 68.7078 3.29367 68.5118 3.17607 68.2635C3.21527 67.6624 3.34595 67.0744 3.58116 66.5256C3.64649 66.3818 3.73796 66.2642 3.81636 66.1336L5.60656 65.8461L5.72417 64.5917C5.41056 64.4871 5.08388 64.4087 4.74413 64.3434C4.40439 64.278 4.06464 64.2258 3.75103 64.1735C3.42435 64.1343 3.13687 64.0951 2.8886 64.069C2.75793 64.3172 2.64031 64.6178 2.52271 64.9445C2.40511 65.2711 2.31364 65.624 2.22217 66.0029C2.1307 66.3818 2.07843 66.7477 2.03923 67.1136C1.9739 67.8584 2.03923 68.551 2.23524 69.1782L2.22217 69.1913Z" fill="#F8F7E5"/>
<path d="M7.51431 61.8995C8.037 62.3569 8.69036 62.6705 9.48746 62.8534C10.1016 62.9841 10.6766 63.0102 11.2254 62.9057C11.7742 62.8012 12.2577 62.6052 12.6889 62.2916C13.1201 61.991 13.4729 61.599 13.7473 61.1155C14.0218 60.632 14.1916 60.0963 14.2439 59.4821L13.6036 57.0516L12.7673 57.2084C12.8326 57.5351 12.8718 57.8487 12.8849 58.1362C12.8849 58.4237 12.8719 58.6981 12.8196 58.9594C12.715 59.4429 12.506 59.8219 12.1924 60.1093C11.8787 60.3968 11.4998 60.5798 11.0424 60.6582C10.5851 60.7366 10.1016 60.7235 9.57893 60.6059C9.18691 60.5144 8.80796 60.3707 8.41595 60.1485C8.037 59.9395 7.69726 59.6389 7.43591 59.273C7.63192 58.9464 7.90634 58.6458 8.24608 58.3975C8.58583 58.1362 8.97784 57.9141 9.42213 57.7311L8.65116 55.8103C8.23301 55.8887 7.8802 56.0455 7.56658 56.2807C7.25297 56.5159 7.0047 56.7903 6.79563 57.13C6.58655 57.4698 6.44281 57.8357 6.35134 58.2407C6.19453 58.9464 6.22067 59.6128 6.41668 60.2661C6.62575 60.9064 6.97857 61.4683 7.50125 61.9257L7.51431 61.8995Z" fill="#F8F7E5"/>
<path d="M9.1347 53.5367L14.1133 55.2877C14.1133 55.3792 14.1133 55.4576 14.1133 55.5491C14.1133 55.915 14.1394 56.2416 14.2048 56.5422L14.7274 56.6729L15.0933 55.6275L15.8512 53.4714L16.387 51.9425L15.6813 51.6289C15.5376 51.7596 15.3939 51.9164 15.2371 52.1124C15.0803 52.3084 14.9365 52.5044 14.8058 52.7135C14.7405 52.818 14.6752 52.9226 14.6229 53.0271L11.5652 51.9556C11.5652 51.9556 11.5521 51.9295 11.5391 51.9164C11.3169 51.5636 11.147 51.2369 11.0164 50.9233C10.8857 50.6097 10.7942 50.2961 10.7289 49.9955L12.506 50.3222L12.9242 49.1331C12.7412 48.9894 12.5322 48.8456 12.2969 48.6888C12.0617 48.532 11.8135 48.3883 11.5521 48.2576C11.2908 48.1269 11.0425 48.0093 10.7942 47.9048C10.5459 47.8003 10.3369 47.7088 10.1409 47.6565C9.86646 47.8264 9.65738 48.0747 9.48751 48.3883C9.33071 48.715 9.2523 49.0678 9.26537 49.4598L10.3369 51.5113L9.22617 51.1193L8.2592 51.6028C8.12852 52.0602 8.02399 52.5306 7.94559 53.014C7.86718 53.4975 7.84105 53.968 7.85412 54.4122L8.59894 54.556L9.12163 53.4975L9.1347 53.5367Z" fill="#F8F7E5"/>
<path d="M19.0917 46.6242C19.3922 46.0232 19.5229 45.409 19.4967 44.7687C19.4706 44.1284 19.2615 43.5273 18.8826 42.9524C18.5036 42.3774 17.9156 41.907 17.1447 41.515C16.3606 41.123 15.6158 40.94 14.9232 40.9792C14.2307 41.0184 13.6165 41.2275 13.0808 41.5934C12.545 41.9593 12.1269 42.4428 11.8263 43.0438C11.5258 43.6449 11.382 44.2722 11.4082 44.9255C11.4343 45.5789 11.6172 46.2061 11.9962 46.7811C12.3751 47.3691 12.937 47.8526 13.708 48.2315C14.4659 48.6105 15.1976 48.7803 15.9163 48.7281C16.635 48.6758 17.2623 48.4667 17.8111 48.0878C18.3599 47.7088 18.7911 47.2123 19.0917 46.6112V46.6242ZM17.21 46.6112C16.8702 46.7157 16.4782 46.7157 16.047 46.6112C15.6158 46.5197 15.1715 46.3629 14.7142 46.1277C14.2699 45.9056 13.8779 45.6573 13.5381 45.3959C13.1984 45.1215 12.9501 44.8471 12.8064 44.5727C12.7802 44.4551 12.7802 44.3244 12.8064 44.1676C12.8325 44.0239 12.8848 43.8671 12.9501 43.7364C13.1069 43.4097 13.3682 43.2007 13.708 43.1222C14.0477 43.0438 14.4398 43.0569 14.884 43.1615C15.3283 43.266 15.7857 43.4359 16.2561 43.6711C16.5305 43.8148 16.818 43.9716 17.0924 44.1546C17.3668 44.3375 17.602 44.5335 17.7849 44.7426C17.9679 44.9517 18.0855 45.1738 18.1247 45.4221C18.0986 45.605 18.0332 45.7749 17.9548 45.9317C17.7849 46.2714 17.5236 46.5066 17.1839 46.5981L17.21 46.6112Z" fill="#F8F7E5"/>
<path d="M12.8065 36.4974L20.4377 41.3584C20.4116 41.4498 20.3854 41.5413 20.3593 41.6458C20.2809 41.9986 20.2286 42.3253 20.2155 42.6389L20.686 42.8872L21.5484 41.5413L21.9665 40.8879L23.1165 39.0847L22.5023 38.6143C22.241 38.7449 21.9535 38.9279 21.6791 39.1761C21.6137 39.2284 21.5745 39.2807 21.5223 39.3199L13.4076 34.1584L12.3883 34.4458C12.1531 34.8509 11.944 35.2821 11.7611 35.7525C11.5782 36.2099 11.4475 36.6673 11.343 37.0985L12.0486 37.4251L12.7934 36.4974H12.8065Z" fill="#F8F7E5"/>
<path d="M16.2431 31.4011L23.4431 36.9024C23.417 36.9939 23.3778 37.0854 23.3516 37.1768C23.234 37.5296 23.1687 37.8432 23.1295 38.1569L23.5868 38.4443L24.2794 37.5296L25.0242 36.5627L26.3179 34.8639L25.7429 34.3413C25.4685 34.4458 25.168 34.6026 24.8674 34.8247C24.8021 34.877 24.7629 34.9162 24.6975 34.9554L17.0663 29.1144L16.034 29.3104C15.7596 29.6893 15.5244 30.1075 15.3023 30.5518C15.0801 30.9961 14.9102 31.4273 14.7796 31.8585L15.4591 32.2374L16.2692 31.375L16.2431 31.4011Z" fill="#F8F7E5"/>
<path d="M26.4485 20.2548L28.1081 22.0842C27.8206 22.2411 27.5331 22.4109 27.2718 22.6592C26.8014 23.0774 26.4616 23.5347 26.2395 24.0313C26.0173 24.5278 25.8867 25.0374 25.8736 25.5601C25.8605 26.0828 25.952 26.5924 26.1349 27.089C26.3179 27.5855 26.6053 28.0429 26.9843 28.448C27.4547 28.9706 28.0035 29.3496 28.6177 29.5979C29.2318 29.8461 29.8591 29.9376 30.4994 29.8461C31.1266 29.7547 31.7146 29.4672 32.2373 28.9706L32.6946 26.8276C32.9168 26.9322 33.1389 27.0106 33.3741 27.0367C33.6355 27.0628 33.8838 27.0628 34.1059 27.0236C34.328 26.9844 34.511 26.893 34.6416 26.7754L35.3865 24.7499L34.8115 24.3187C34.7201 24.4363 34.6286 24.5409 34.5502 24.6454C34.4718 24.7499 34.3934 24.8284 34.3019 24.9068C34.2104 24.9852 34.119 25.0244 34.0275 25.0244C33.923 25.0244 33.8446 24.9852 33.7662 24.9068L27.6507 18.151H26.5923C26.2525 18.4908 25.9389 18.8567 25.6384 19.2487C25.3378 19.6538 25.0896 20.0458 24.8936 20.4378L25.4946 20.9343L26.4485 20.2418V20.2548ZM31.4794 27.285C31.205 27.5333 30.9044 27.6639 30.5647 27.677C30.225 27.6901 29.8852 27.6117 29.5324 27.4287C29.1796 27.2458 28.866 26.9975 28.5654 26.6708C28.2387 26.3049 27.9774 25.8999 27.7945 25.4556C27.6115 25.0113 27.5331 24.5801 27.5854 24.1619C27.8467 23.8745 28.1473 23.6392 28.4739 23.4824C28.6961 23.3779 28.9182 23.2995 29.1404 23.2472L32.0413 26.4487C32.0413 26.4487 32.0413 26.4748 32.0282 26.4879C31.8583 26.8407 31.6623 27.102 31.4663 27.285H31.4794Z" fill="#F8F7E5"/>
<path d="M35.5565 23.6783C36.1968 23.9788 36.8632 24.0964 37.5296 24.0441C38.1961 23.9788 38.8102 23.7567 39.3721 23.3646C39.9209 22.9857 40.3391 22.5153 40.6266 21.9403C40.914 21.3654 41.0316 20.7382 40.9663 20.0587C40.914 19.3792 40.6396 18.6735 40.1431 17.9548C39.6465 17.2362 39.0846 16.7135 38.4574 16.4129C37.8302 16.1124 37.1899 15.9817 36.5496 16.047C35.8963 16.1124 35.3082 16.3345 34.7463 16.7135C34.1975 17.0924 33.7663 17.5759 33.4658 18.1509C33.1652 18.7389 33.0346 19.3661 33.0738 20.0587C33.113 20.7512 33.3874 21.4568 33.8708 22.1625C34.3543 22.855 34.9162 23.3646 35.5565 23.6652V23.6783ZM35.06 18.1901C35.1514 18.0725 35.269 17.9679 35.3997 17.8764C35.7002 17.6674 36.0269 17.6151 36.3667 17.7066C36.7064 17.798 37.0462 18.0071 37.3728 18.3077C37.6995 18.6082 38.0262 18.9871 38.3267 19.4184C38.5097 19.6797 38.6665 19.9541 38.8233 20.2547C38.9801 20.5552 39.0846 20.8296 39.15 21.104C39.2153 21.3784 39.2022 21.6267 39.1238 21.8619C39.0062 22.0057 38.8756 22.1233 38.7318 22.2278C38.4182 22.4499 38.0785 22.5153 37.7387 22.4369C37.399 22.3585 37.0462 22.1755 36.7195 21.875C36.3928 21.5875 36.0792 21.2216 35.7917 20.8035C35.5173 20.3984 35.2952 19.9933 35.1253 19.5882C34.9554 19.1832 34.877 18.8303 34.8901 18.5167C34.9293 18.3991 34.9946 18.2946 35.0861 18.177L35.06 18.1901Z" fill="#F8F7E5"/>
<path d="M39.0192 14.9887L39.9862 14.9887L44.5727 19.7451C44.7818 19.6928 45.017 19.6144 45.2784 19.4838C45.5397 19.3531 45.788 19.2355 46.0363 19.0787C46.2845 18.9219 46.4806 18.7781 46.6374 18.6213L46.5328 15.8903L48.506 17.8765C48.702 17.8242 48.9241 17.7458 49.1855 17.6282C49.4468 17.5106 49.682 17.38 49.9303 17.2362C50.1786 17.0925 50.3746 16.9357 50.5444 16.7789L49.7343 10.2192C49.7343 10.2192 49.8388 10.1016 49.8911 10.0493C50.0348 9.87942 50.1655 9.69648 50.2962 9.5266L49.9564 8.91245L49.1985 9.26526L47.4083 10.1146L46.5459 10.5197L46.8856 11.2645H47.735L49.0156 15.6812L48.8849 15.7466L47.9963 14.4921L45.0824 11.2907L43.1092 12.4667L45.1216 14.4921L45.3437 17.4322L45.2 17.4976L44.2461 16.2431L42.0377 13.7996C42.0377 13.7996 42.0639 13.7734 42.0769 13.7473C42.2207 13.5774 42.3644 13.3945 42.4951 13.2246L42.1292 12.6105L41.306 13.0025L40.2998 13.4729L38.6795 14.2438L39.0192 14.9887Z" fill="#F8F7E5"/>
<path d="M52.9227 9.2652L54.2947 14.3614C54.2163 14.4137 54.151 14.4398 54.0726 14.4921C53.7721 14.7011 53.5238 14.9102 53.3147 15.1323L53.4976 15.6289L55.0396 15.2108L56.7644 14.7403L57.6138 14.5182L57.4701 13.7603C57.1826 13.6688 56.882 13.6166 56.5423 13.6035C56.5162 13.6035 56.49 13.6035 56.4508 13.6035L55.327 9.43507C55.51 9.23906 55.6929 9.05612 55.8889 8.91238C56.1241 8.72944 56.3463 8.59877 56.5554 8.5465C56.869 8.45503 57.1434 8.49423 57.3917 8.69024C57.6399 8.88625 57.8359 9.23907 57.9666 9.74869L58.8944 13.1853C58.5938 13.3944 58.3456 13.6035 58.1365 13.8256L58.3194 14.3222L59.3909 14.0347L60.2926 13.7864L62.3833 13.2245L62.2396 12.4666C61.9521 12.3752 61.6123 12.336 61.2203 12.3229C61.155 12.3229 61.1027 12.3229 61.0374 12.3229L60.1358 8.99079C60.0312 8.58571 59.9267 8.2721 59.8483 8.02382C59.7699 7.78861 59.6915 7.60567 59.6261 7.46193C59.5608 7.33126 59.4955 7.22672 59.4171 7.16139C59.208 6.96538 58.9858 6.82164 58.7245 6.73017C58.4632 6.6387 58.2149 6.58643 57.9535 6.5603C57.6922 6.53416 57.4701 6.5603 57.261 6.5995C56.9866 6.7563 56.673 6.99151 56.3332 7.30512C55.9935 7.61874 55.6407 7.98462 55.2878 8.41583C55.2225 8.49423 55.1572 8.59878 55.0918 8.67718L54.9089 7.97155L53.955 7.43579C53.5107 7.57953 53.0534 7.76248 52.6091 7.97155C52.1648 8.19369 51.7597 8.4289 51.3938 8.69024L51.6944 9.3828L52.8704 9.21293L52.9227 9.2652Z" fill="#F8F7E5"/>
<path d="M69.2566 12.8328C69.4657 12.9504 69.6356 13.0288 69.8055 13.0811C70.0276 12.9112 70.2236 12.6629 70.4196 12.3754C70.6156 12.0749 70.7463 11.7874 70.8247 11.5261C70.7202 11.3954 70.5764 11.2647 70.4196 11.121C70.2498 10.9772 70.0668 10.8596 69.8708 10.729C69.6748 10.5983 69.4788 10.5199 69.2958 10.4807C69.0868 10.6244 68.8908 10.8466 68.6948 11.1471C68.4988 11.4477 68.3419 11.7482 68.2243 12.0487C68.3419 12.1925 68.4988 12.3232 68.6817 12.4538C68.8646 12.5845 69.0606 12.7152 69.2697 12.8328H69.2566Z" fill="#F8F7E5"/>
<path d="M78.3515 12.6628C78.8088 12.7804 79.2139 12.8458 79.5929 12.885C80.2854 12.9503 80.9388 12.885 81.5529 12.702C82.154 12.5191 82.6636 12.2055 83.0557 11.7612C83.4477 11.3169 83.6829 10.7681 83.7482 10.1017C83.8005 9.47444 83.709 8.95175 83.4607 8.52054C83.2125 8.08932 82.8727 7.71037 82.4546 7.39676C82.0364 7.08315 81.5921 6.79567 81.1348 6.53432C80.7166 6.28605 80.3377 6.05084 79.9849 5.84177C79.6321 5.63269 79.3576 5.39749 79.1616 5.17535C78.9526 4.94014 78.8742 4.67879 78.9003 4.36518C78.9264 4.14304 79.0048 3.90783 79.1486 3.68569C79.2923 3.46354 79.4883 3.29367 79.7366 3.17607C80.3377 3.21527 80.9257 3.34595 81.4745 3.58116C81.6183 3.63342 81.7359 3.73796 81.8665 3.81636L82.154 5.60656L83.4085 5.72417C83.513 5.41056 83.5914 5.08388 83.6567 4.74413C83.7221 4.40439 83.7743 4.06464 83.8266 3.75103C83.8658 3.42435 83.905 3.13687 83.9312 2.8886C83.6829 2.75793 83.3823 2.64031 83.0557 2.52271C82.729 2.40511 82.3762 2.31364 81.9972 2.22217C81.6183 2.1307 81.2524 2.07843 80.8865 2.03923C80.1417 1.9739 79.4491 2.03923 78.8088 2.23524C78.1685 2.43125 77.6589 2.74485 77.2669 3.17607C76.8749 3.60728 76.6397 4.12998 76.5874 4.7572C76.5351 5.34522 76.6397 5.85484 76.901 6.28606C77.1624 6.7042 77.5021 7.07008 77.9203 7.38369C78.3384 7.6973 78.7696 7.98478 79.2008 8.24613C79.6321 8.4944 80.011 8.72961 80.3377 8.93868C80.6644 9.14776 80.9257 9.38297 81.0956 9.63124C81.2785 9.87952 81.3569 10.167 81.3308 10.4806C81.3047 10.7158 81.2263 10.938 81.0694 11.1732C80.9126 11.4084 80.6774 11.5913 80.3638 11.722C79.9457 11.6828 79.5145 11.6044 79.0702 11.4606C78.7566 11.3692 78.456 11.2254 78.1685 11.0556L77.6067 8.80801L76.4829 8.70348C76.3914 8.99095 76.313 9.31763 76.2346 9.68351C76.1562 10.0494 76.0909 10.4153 76.0517 10.755C76.0125 11.0948 75.9863 11.3692 75.9733 11.5782C76.2738 11.8265 76.6397 12.0356 77.0578 12.2316C77.476 12.4145 77.9072 12.5583 78.3646 12.6759L78.3515 12.6628Z" fill="#F8F7E5"/>
<path d="M85.7344 12.7018C86.0349 13.1331 86.4269 13.4859 86.9104 13.7603C87.3939 14.0347 87.9297 14.2046 88.5438 14.2568L90.9743 13.6165L90.8306 12.7803C90.5039 12.8456 90.1903 12.8848 89.9028 12.8979C89.6153 12.8979 89.3409 12.8848 89.0796 12.8325C88.5961 12.728 88.2171 12.5189 87.9297 12.2053C87.6422 11.8917 87.4593 11.5127 87.3808 11.0554C87.3024 10.598 87.3155 10.1146 87.4331 9.59187C87.5246 9.19985 87.6683 8.8209 87.8905 8.42889C88.1126 8.03688 88.4001 7.7102 88.766 7.44885C89.0926 7.65793 89.3932 7.91926 89.6415 8.25901C89.9028 8.59876 90.125 8.99077 90.3079 9.43506L92.2288 8.6641C92.1504 8.24595 91.9936 7.89313 91.7714 7.57952C91.5362 7.26591 91.2618 7.01764 90.922 6.80857C90.5823 6.59949 90.2164 6.45575 89.8113 6.36428C89.1057 6.20747 88.4393 6.23361 87.7859 6.42962C87.1326 6.62563 86.5838 6.9915 86.1264 7.51418C85.6691 8.03687 85.3424 8.69023 85.1725 9.48733C85.0418 10.1015 85.0157 10.6764 85.1202 11.2253C85.2248 11.7741 85.4208 12.2576 85.7344 12.7018Z" fill="#F8F7E5"/>
<path d="M92.4507 14.0872C92.0848 14.0872 91.7581 14.1133 91.4576 14.1786L91.3269 14.7013L92.3723 15.0672L93.9796 15.6291L94.4369 15.7859L94.5284 15.8251L96.0572 16.3608L96.3708 15.6552C96.2402 15.5115 96.0834 15.3677 95.8874 15.2109C95.6914 15.0541 95.4953 14.9104 95.2863 14.7797C95.1687 14.7144 95.0772 14.649 94.9727 14.5968L96.0442 11.5391C96.0442 11.5391 96.0703 11.526 96.0834 11.5129C96.4362 11.2908 96.7629 11.1209 97.0765 10.9902C97.3901 10.8596 97.7037 10.7681 98.0042 10.7028L97.6776 12.4799L98.8667 12.898C99.0104 12.7151 99.1541 12.506 99.311 12.2708C99.4678 12.0356 99.6115 11.7873 99.7422 11.526C99.8728 11.2646 99.9904 11.0164 100.095 10.7681C100.2 10.5198 100.291 10.3108 100.343 10.1147C100.173 9.84034 99.9251 9.63126 99.6115 9.46139C99.2979 9.30458 98.932 9.22617 98.54 9.23924L96.4885 10.3108L96.8805 9.20004L96.397 8.23307C95.9527 8.1024 95.4823 7.99787 94.9857 7.91946C94.5022 7.84106 94.0318 7.81493 93.5875 7.82799L93.4438 8.57282L94.5022 9.09551L92.7512 14.0741C92.6598 14.0741 92.5944 14.0741 92.4899 14.0741L92.4507 14.0872Z" fill="#F8F7E5"/>
<path d="M99.2717 15.9036C99.324 16.6223 99.5331 17.2496 99.912 17.7984C100.291 18.3472 100.788 18.7784 101.389 19.079C101.99 19.3795 102.604 19.5102 103.244 19.484C103.884 19.4579 104.486 19.2488 105.06 18.8699C105.635 18.4909 106.106 17.9029 106.498 17.132C106.89 16.3479 107.073 15.6031 107.034 14.9105C106.994 14.218 106.785 13.6038 106.419 13.0681C106.054 12.5323 105.57 12.1142 104.969 11.8136C104.368 11.5131 103.741 11.3693 103.087 11.3955C102.434 11.4085 101.807 11.6046 101.232 11.9835C100.644 12.3625 100.16 12.9243 99.7814 13.6953C99.4024 14.4532 99.2325 15.185 99.2848 15.9036H99.2717ZM101.389 16.0474C101.48 15.6162 101.637 15.1719 101.872 14.7145C102.094 14.2703 102.343 13.8782 102.604 13.5385C102.878 13.1987 103.153 12.9505 103.427 12.8067C103.545 12.7806 103.675 12.7806 103.832 12.8067C103.976 12.8329 104.133 12.8851 104.263 12.9505C104.59 13.1073 104.799 13.3686 104.878 13.7084C104.956 14.0481 104.943 14.4401 104.838 14.8844C104.734 15.3287 104.564 15.786 104.329 16.2565C104.185 16.5309 104.028 16.8183 103.845 17.0928C103.662 17.3672 103.466 17.6024 103.257 17.7853C103.048 17.9683 102.826 18.0859 102.578 18.1251C102.395 18.0989 102.225 18.0336 102.068 17.9552C101.715 17.7853 101.493 17.524 101.402 17.1842C101.297 16.8445 101.297 16.4525 101.402 16.0212L101.389 16.0474Z" fill="#F8F7E5"/>
<path d="M106.642 20.4379C106.55 20.4118 106.459 20.3857 106.354 20.3595C106.002 20.2811 105.675 20.2289 105.361 20.2158L105.113 20.6862L106.459 21.5486L107.112 21.9668L108.915 23.1167L109.386 22.5025C109.255 22.2412 109.072 21.9537 108.824 21.6793C108.772 21.614 108.719 21.5748 108.68 21.5225L113.842 13.4078L113.554 12.3886C113.149 12.1534 112.718 11.9443 112.248 11.7613C111.79 11.5784 111.333 11.4477 110.902 11.3432L110.588 12.0488L111.516 12.7936L106.655 20.4249L106.642 20.4379Z" fill="#F8F7E5"/>
<path d="M111.111 23.4299C111.019 23.4038 110.928 23.3646 110.836 23.3384C110.483 23.2208 110.17 23.1555 109.856 23.1163L109.569 23.5736L110.483 24.2662L111.45 25.011L113.149 26.3047L113.672 25.7297C113.567 25.4553 113.41 25.1548 113.188 24.8542C113.136 24.7889 113.097 24.7497 113.058 24.6844L118.899 17.0531L118.703 16.0208C118.311 15.7464 117.906 15.5112 117.461 15.2891C117.017 15.0669 116.586 14.8971 116.155 14.7664L115.776 15.4459L116.638 16.256L111.137 23.456L111.111 23.4299Z" fill="#F8F7E5"/>
<path d="M118.154 30.4732C118.245 31.1005 118.533 31.6885 119.029 32.2112L121.159 32.6685C121.055 32.8907 120.976 33.1128 120.95 33.348C120.924 33.6094 120.924 33.8576 120.963 34.0798C121.003 34.3019 121.094 34.4849 121.212 34.6155L123.237 35.3604L123.668 34.7854C123.551 34.6939 123.446 34.6025 123.342 34.5241C123.237 34.4457 123.159 34.3672 123.08 34.2758C123.002 34.1843 122.963 34.0928 122.963 34.0014C122.963 33.8968 123.002 33.8184 123.08 33.74L129.836 27.6246V26.5662C129.496 26.2264 129.13 25.9128 128.738 25.6123C128.346 25.3117 127.941 25.0634 127.549 24.8674L127.053 25.4685L127.745 26.4224L125.916 28.0819C125.759 27.7945 125.589 27.507 125.341 27.2457C124.923 26.7752 124.465 26.4355 123.969 26.2133C123.472 25.9912 122.963 25.8605 122.44 25.8475C121.917 25.8344 121.408 25.9259 120.911 26.1088C120.415 26.2917 119.957 26.5792 119.552 26.9582C119.029 27.4286 118.65 27.9774 118.389 28.5916C118.141 29.2057 118.049 29.8329 118.141 30.4732H118.154ZM120.571 29.5324C120.754 29.1796 121.003 28.866 121.329 28.5654C121.695 28.2387 122.1 27.9774 122.544 27.7945C122.989 27.6115 123.42 27.5331 123.838 27.5854C124.126 27.8467 124.361 28.1473 124.518 28.474C124.622 28.6961 124.701 28.9182 124.753 29.1404L121.551 32.0413C121.551 32.0413 121.525 32.0413 121.512 32.0282C121.159 31.8584 120.898 31.6623 120.715 31.4663C120.467 31.1919 120.336 30.8914 120.323 30.5516C120.31 30.2119 120.388 29.8721 120.571 29.5193V29.5324Z" fill="#F8F7E5"/>
<path d="M125.837 33.8577C125.145 34.3411 124.635 34.903 124.335 35.5433C124.034 36.1836 123.904 36.85 123.969 37.5165C124.034 38.1829 124.256 38.797 124.648 39.3589C125.027 39.9078 125.498 40.3259 126.073 40.6134C126.648 40.9009 127.275 41.0185 127.954 40.9531C128.634 40.9009 129.339 40.6265 130.058 40.1299C130.777 39.6333 131.3 39.0715 131.6 38.4442C131.901 37.817 132.031 37.1767 131.966 36.5364C131.901 35.8831 131.678 35.295 131.3 34.7332C130.921 34.1843 130.437 33.7531 129.862 33.4526C129.287 33.152 128.647 33.0214 127.954 33.0606C127.262 33.0998 126.556 33.3742 125.851 33.8577H125.837ZM129.47 34.8638C129.588 34.903 129.705 34.9684 129.823 35.0598C129.941 35.1513 130.045 35.2689 130.137 35.3996C130.346 35.7001 130.398 36.0268 130.306 36.3666C130.215 36.7063 130.006 37.0461 129.705 37.3727C129.405 37.7125 129.026 38.0261 128.595 38.3266C128.333 38.5096 128.059 38.6664 127.758 38.8232C127.458 38.98 127.183 39.0845 126.909 39.1499C126.635 39.2152 126.386 39.2021 126.151 39.1237C126.007 39.0061 125.89 38.8755 125.785 38.7317C125.563 38.4181 125.498 38.0784 125.576 37.7386C125.655 37.3989 125.837 37.0591 126.138 36.7194C126.425 36.3927 126.791 36.0791 127.21 35.7916C127.615 35.5172 128.02 35.2951 128.425 35.1252C128.83 34.9553 129.183 34.8769 129.496 34.89L129.47 34.8638Z" fill="#F8F7E5"/>
<path d="M128.255 44.5596C128.307 44.7686 128.386 45.0038 128.516 45.2652C128.647 45.5265 128.764 45.7748 128.921 46.0231C129.078 46.2714 129.222 46.4674 129.379 46.6242L132.11 46.5196L130.123 48.4928C130.176 48.6888 130.254 48.9109 130.372 49.1723C130.489 49.4205 130.62 49.6688 130.764 49.9171C130.907 50.1654 131.064 50.3614 131.234 50.5312L137.794 49.7211C137.794 49.7211 137.911 49.8256 137.964 49.8779C138.134 50.0216 138.303 50.1523 138.486 50.283L139.101 49.9432L138.931 49.5904L138.735 49.1853L138.369 48.4274L138.225 48.1269L137.48 46.5588L136.735 46.8986V47.7479L132.319 49.0285L132.253 48.8979L133.508 48.0093L136.709 45.0953L135.533 43.1222L133.521 45.1345L130.581 45.3567L130.515 45.2129L131.757 44.259L134.2 42.0507C134.2 42.0507 134.227 42.0768 134.253 42.0899C134.423 42.2336 134.605 42.3774 134.775 42.508L135.39 42.1421L134.997 41.3189V41.2928L133.769 38.7055L133.024 39.0452V40.0122L128.268 44.5988L128.255 44.5596Z" fill="#F8F7E5"/>
<path d="M138.735 52.9095L133.638 54.2815C133.586 54.2031 133.56 54.1378 133.508 54.0594C133.299 53.7589 133.09 53.5106 132.867 53.3015L132.371 53.4845L132.658 54.5429L133.26 56.7512L133.482 57.6006L134.24 57.4569C134.331 57.1694 134.383 56.8688 134.409 56.5291C134.409 56.503 134.409 56.4768 134.409 56.4376L138.578 55.3139C138.774 55.4968 138.957 55.6797 139.101 55.8757C139.283 56.111 139.414 56.3331 139.466 56.5422C139.558 56.8558 139.506 57.1302 139.323 57.3785C139.14 57.6267 138.774 57.8228 138.264 57.9534L134.828 58.8812C134.618 58.5806 134.409 58.3324 134.187 58.1233L133.691 58.3062L134.109 59.8482L134.226 60.2794L134.788 62.3701L135.546 62.2264C135.638 61.9389 135.677 61.6122 135.69 61.2071C135.69 61.1418 135.69 61.0895 135.69 61.0242L139.022 60.1226C139.427 60.018 139.741 59.9135 139.989 59.8351C140.237 59.7567 140.407 59.6783 140.551 59.626C140.682 59.5607 140.786 59.4953 140.852 59.4169C141.048 59.2079 141.191 58.9857 141.283 58.7244C141.374 58.463 141.426 58.2148 141.453 57.9534C141.466 57.7051 141.453 57.4699 141.413 57.2609C141.257 56.9864 141.021 56.6728 140.708 56.3331C140.394 55.9933 140.028 55.6405 139.597 55.2877C139.519 55.2224 139.414 55.1571 139.336 55.0917L140.041 54.9088L140.577 53.9549C140.433 53.5106 140.25 53.0532 140.041 52.609C139.819 52.1647 139.584 51.7596 139.323 51.3937L138.63 51.6943L138.8 52.8703L138.735 52.9095Z" fill="#F8F7E5"/>
<path d="M135.638 70.4328C135.938 70.6288 136.226 70.7595 136.487 70.8379C136.618 70.7334 136.748 70.6027 136.892 70.4328C137.036 70.2629 137.154 70.08 137.284 69.884C137.402 69.688 137.493 69.492 137.532 69.309C137.389 69.1 137.167 68.904 136.866 68.7079C136.566 68.5119 136.265 68.3551 135.964 68.2245C135.834 68.3421 135.69 68.4989 135.559 68.6818C135.429 68.8648 135.298 69.0608 135.18 69.2698C135.063 69.4789 134.984 69.6618 134.932 69.8187C135.102 70.0408 135.337 70.2368 135.638 70.4328Z" fill="#F8F7E5"/>
<path d="M140.643 77.9726C140.329 78.3908 140.041 78.822 139.78 79.2532C139.532 79.6844 139.297 80.0634 139.088 80.3901C138.878 80.7167 138.643 80.9781 138.395 81.1479C138.147 81.3309 137.859 81.4093 137.546 81.3832C137.31 81.357 137.088 81.2786 136.853 81.1218C136.618 80.965 136.435 80.7298 136.304 80.4162C136.343 79.998 136.422 79.5668 136.566 79.1225C136.657 78.8089 136.801 78.5084 136.971 78.2209L139.218 77.659L139.323 76.5352C139.035 76.4438 138.709 76.3654 138.343 76.287C137.977 76.2086 137.611 76.1432 137.271 76.104C136.931 76.0648 136.657 76.0387 136.448 76.0256C136.2 76.3262 135.978 76.692 135.795 77.1102C135.612 77.5283 135.455 77.9596 135.35 78.4169C135.233 78.8743 135.167 79.2793 135.128 79.6583C135.063 80.3508 135.128 81.0042 135.311 81.6053C135.494 82.2064 135.808 82.716 136.239 83.1211C136.67 83.5262 137.232 83.7483 137.898 83.8136C138.526 83.8659 139.048 83.7744 139.48 83.5262C139.911 83.2779 140.29 82.9381 140.603 82.52C140.917 82.1018 141.204 81.6576 141.466 81.2002C141.714 80.7821 141.949 80.4031 142.158 80.0503C142.367 79.6975 142.603 79.4231 142.838 79.2271C143.073 79.0311 143.334 78.9396 143.648 78.9657C143.87 78.9919 144.105 79.0703 144.327 79.214C144.55 79.3577 144.719 79.5538 144.837 79.802C144.798 80.4031 144.667 80.9911 144.432 81.54C144.367 81.6837 144.275 81.8013 144.197 81.932L142.407 82.2194L142.289 83.4739C142.603 83.5784 142.929 83.6568 143.269 83.7222C143.609 83.7875 143.948 83.8528 144.275 83.892C144.602 83.9312 144.889 83.9704 145.138 83.9966C145.268 83.7483 145.386 83.4608 145.503 83.1211C145.621 82.7944 145.713 82.4416 145.804 82.0626C145.896 81.6837 145.948 81.3178 145.987 80.9519C146.052 80.2071 145.987 79.5146 145.791 78.8743C145.595 78.234 145.281 77.7244 144.85 77.3323C144.419 76.9403 143.896 76.7051 143.269 76.6528C142.681 76.6006 142.171 76.7051 141.74 76.9665C141.309 77.2278 140.956 77.5675 140.643 77.9857V77.9726Z" fill="#F8F7E5"/>
<path d="M140.486 86.1262C139.963 85.6688 139.31 85.3421 138.513 85.1723C137.898 85.0416 137.323 85.0154 136.775 85.12C136.226 85.2245 135.742 85.4205 135.298 85.7341C134.854 86.0478 134.514 86.4267 134.24 86.9102C133.965 87.3937 133.795 87.9294 133.743 88.5436L134.383 90.9741L135.22 90.8303C135.154 90.5037 135.115 90.19 135.102 89.9026C135.102 89.6151 135.115 89.3407 135.167 89.0793C135.272 88.5958 135.481 88.2169 135.795 87.9294C136.108 87.6419 136.487 87.459 136.931 87.3806C137.389 87.3022 137.872 87.3153 138.395 87.4329C138.787 87.5243 139.166 87.6681 139.558 87.8902C139.937 88.0993 140.277 88.3998 140.538 88.7657C140.342 89.0924 140.068 89.3929 139.728 89.6412C139.388 89.9026 138.996 90.1247 138.552 90.3076L139.323 92.2285C139.741 92.1501 140.094 91.9933 140.407 91.7581C140.721 91.5229 140.969 91.2485 141.178 90.9087C141.387 90.569 141.531 90.2031 141.623 89.798C141.779 89.0924 141.753 88.426 141.557 87.7726C141.361 87.1193 140.995 86.5704 140.473 86.1131L140.486 86.1262Z" fill="#F8F7E5"/>
<path d="M138.878 94.4629L133.9 92.7119C133.9 92.6205 133.9 92.5551 133.9 92.4506C133.9 92.0847 133.874 91.758 133.808 91.4575L133.286 91.3268L132.92 92.3722L132.763 92.8295L132.358 93.9794L131.626 96.0441L132.332 96.3577C132.475 96.227 132.619 96.0702 132.776 95.8742C132.933 95.6782 133.077 95.4822 133.207 95.2731C133.273 95.1555 133.338 95.064 133.39 94.9595L136.448 96.031C136.448 96.031 136.461 96.0571 136.474 96.0702C136.696 96.423 136.866 96.7497 136.997 97.0633C137.127 97.3769 137.219 97.6905 137.284 97.9911L135.507 97.6644L135.089 98.8535C135.272 98.9972 135.481 99.141 135.716 99.2978C135.951 99.4546 136.2 99.5983 136.461 99.729C136.722 99.8597 136.971 99.9773 137.219 100.082C137.467 100.186 137.676 100.278 137.872 100.33C138.147 100.16 138.356 99.9119 138.526 99.5983C138.682 99.2847 138.761 98.9188 138.748 98.5268L137.676 96.4753L138.787 96.8673L139.754 96.3838C139.884 95.9395 139.989 95.4691 140.067 94.9726C140.146 94.4891 140.172 94.0186 140.159 93.5744L139.414 93.4306L138.891 94.4891L138.878 94.4629Z" fill="#F8F7E5"/>
<path d="M130.868 106.485C131.652 106.877 132.397 107.06 133.09 107.021C133.782 106.981 134.396 106.772 134.932 106.407C135.468 106.041 135.886 105.557 136.186 104.956C136.487 104.355 136.631 103.728 136.605 103.074C136.592 102.421 136.396 101.794 136.017 101.219C135.638 100.644 135.076 100.147 134.305 99.7684C133.547 99.3895 132.815 99.2196 132.096 99.2719C131.378 99.3241 130.751 99.5332 130.202 99.9122C129.653 100.291 129.222 100.788 128.921 101.389C128.621 101.99 128.49 102.604 128.516 103.244C128.542 103.885 128.751 104.486 129.13 105.061C129.509 105.636 130.084 106.106 130.868 106.498V106.485ZM130.019 102.055C130.189 101.702 130.45 101.48 130.79 101.389C131.13 101.284 131.522 101.284 131.953 101.389C132.384 101.493 132.828 101.637 133.286 101.872C133.73 102.094 134.122 102.343 134.462 102.604C134.801 102.878 135.05 103.153 135.193 103.427C135.22 103.545 135.22 103.675 135.193 103.832C135.167 103.976 135.115 104.133 135.05 104.264C134.893 104.59 134.632 104.799 134.292 104.878C133.952 104.956 133.56 104.943 133.116 104.838C132.671 104.734 132.214 104.564 131.744 104.329C131.469 104.185 131.182 104.028 130.907 103.845C130.633 103.662 130.398 103.466 130.215 103.257C130.032 103.048 129.914 102.826 129.875 102.578C129.901 102.395 129.967 102.225 130.045 102.068L130.019 102.055Z" fill="#F8F7E5"/>
<path d="M135.18 111.542L127.549 106.668C127.575 106.576 127.601 106.485 127.628 106.38C127.706 106.028 127.758 105.701 127.771 105.387L127.301 105.139L126.687 106.106L125.458 108.04L124.883 108.941L125.498 109.412C125.759 109.281 126.046 109.098 126.334 108.85C126.399 108.798 126.438 108.745 126.491 108.706L134.592 113.881L135.612 113.593C135.847 113.188 136.056 112.757 136.239 112.287C136.422 111.829 136.552 111.372 136.657 110.941L135.951 110.614L135.207 111.542H135.18Z" fill="#F8F7E5"/>
<path d="M131.77 116.599L124.57 111.098C124.596 111.006 124.635 110.915 124.674 110.823C124.792 110.471 124.857 110.157 124.896 109.843L124.439 109.556L123.747 110.471L122.361 112.287L121.708 113.136L122.283 113.659C122.557 113.554 122.858 113.398 123.158 113.175C123.224 113.123 123.263 113.084 123.328 113.045L130.96 118.886L131.992 118.69C132.266 118.298 132.502 117.893 132.724 117.448C132.946 117.004 133.116 116.573 133.246 116.142L132.567 115.763L131.757 116.625L131.77 116.599Z" fill="#F8F7E5"/>
<path d="M121.525 127.771L119.866 125.942C120.153 125.785 120.441 125.615 120.702 125.367C121.173 124.949 121.512 124.492 121.747 123.995C121.97 123.498 122.1 122.989 122.113 122.466C122.126 121.943 122.035 121.434 121.852 120.937C121.656 120.441 121.382 119.983 121.016 119.578C120.545 119.056 120.01 118.677 119.382 118.415C118.768 118.167 118.141 118.076 117.514 118.167C116.886 118.259 116.298 118.546 115.776 119.03L115.318 121.173C115.096 121.068 114.874 120.99 114.639 120.963C114.378 120.937 114.129 120.937 113.907 120.977C113.685 121.016 113.502 121.107 113.371 121.225L112.627 123.25L113.202 123.681C113.293 123.564 113.384 123.459 113.463 123.355C113.541 123.25 113.62 123.172 113.711 123.093C113.803 123.015 113.894 122.976 113.986 122.976C114.09 122.976 114.169 123.015 114.234 123.093L120.349 129.849H121.408C121.747 129.509 122.061 129.143 122.362 128.751C122.662 128.359 122.91 127.954 123.106 127.562L122.505 127.066L121.551 127.758L121.525 127.771ZM116.494 120.741C116.769 120.493 117.069 120.362 117.409 120.349C117.749 120.336 118.089 120.415 118.441 120.598C118.794 120.781 119.108 121.029 119.408 121.355C119.735 121.721 119.996 122.126 120.179 122.571C120.362 123.015 120.441 123.446 120.388 123.864C120.127 124.152 119.827 124.387 119.5 124.544C119.278 124.648 119.056 124.727 118.833 124.779L115.933 121.565C115.933 121.565 115.933 121.538 115.946 121.525C116.116 121.173 116.312 120.911 116.508 120.728L116.494 120.741Z" fill="#F8F7E5"/>
<path d="M112.417 124.348C111.777 124.047 111.111 123.917 110.444 123.982C109.778 124.047 109.164 124.269 108.602 124.648C108.053 125.027 107.635 125.498 107.347 126.073C107.06 126.648 106.942 127.275 107.008 127.954C107.06 128.634 107.334 129.339 107.831 130.058C108.327 130.777 108.889 131.3 109.517 131.6C110.144 131.901 110.784 132.031 111.424 131.966C112.078 131.901 112.666 131.678 113.228 131.3C113.776 130.921 114.208 130.437 114.508 129.862C114.809 129.274 114.939 128.647 114.9 127.954C114.861 127.262 114.587 126.556 114.103 125.851C113.62 125.158 113.058 124.648 112.417 124.348ZM112.901 129.836C112.809 129.954 112.692 130.058 112.561 130.15C112.261 130.359 111.934 130.411 111.594 130.32C111.254 130.228 110.915 130.019 110.588 129.718C110.261 129.418 109.935 129.039 109.634 128.608C109.451 128.346 109.294 128.072 109.138 127.771C108.981 127.471 108.876 127.196 108.811 126.922C108.746 126.648 108.759 126.399 108.837 126.164C108.955 126.02 109.085 125.903 109.229 125.798C109.543 125.576 109.882 125.511 110.222 125.589C110.562 125.668 110.902 125.851 111.241 126.151C111.581 126.452 111.882 126.804 112.169 127.223C112.444 127.628 112.666 128.033 112.836 128.438C113.005 128.843 113.084 129.196 113.071 129.509C113.032 129.627 112.966 129.745 112.875 129.862L112.901 129.836Z" fill="#F8F7E5"/>
<path d="M109.281 133.782L108.942 133.037H107.975L103.401 128.281C103.192 128.333 102.957 128.411 102.695 128.529C102.434 128.646 102.186 128.777 101.938 128.934C101.689 129.078 101.493 129.235 101.336 129.391L101.441 132.122L99.4678 130.136C99.2718 130.188 99.0497 130.267 98.7883 130.384C98.527 130.502 98.2918 130.633 98.0435 130.776C97.7952 130.92 97.5992 131.077 97.4293 131.234L98.2264 137.807C98.2264 137.807 98.1219 137.924 98.0696 137.976C97.9259 138.146 97.7952 138.316 97.6646 138.499L98.0043 139.113L99.8337 138.251L100.539 137.911L101.402 137.506L101.062 136.761H100.213L98.9451 132.344L99.0758 132.279L99.9644 133.534L102.865 136.735L104.838 135.559L102.826 133.534L102.604 130.593L102.748 130.528L103.702 131.783L105.91 134.226C105.91 134.226 105.884 134.252 105.871 134.278C105.727 134.448 105.583 134.631 105.453 134.801L105.805 135.415L106.629 135.023L106.851 134.919L109.255 133.782H109.281Z" fill="#F8F7E5"/>
<path d="M95.0643 138.735L93.6922 133.625C93.7707 133.573 93.8229 133.547 93.9144 133.495C94.2149 133.286 94.4632 133.076 94.6723 132.854L94.4893 132.358L92.9474 132.776L91.4055 133.194L90.3732 133.468L90.5169 134.226C90.8044 134.318 91.105 134.37 91.4447 134.396C91.4708 134.396 91.51 134.396 91.5362 134.396L92.6599 138.565C92.477 138.761 92.2941 138.944 92.0981 139.087C91.8628 139.27 91.6407 139.401 91.4316 139.453C91.118 139.545 90.8436 139.492 90.5953 139.309C90.3471 139.113 90.151 138.761 90.0204 138.251L89.0926 134.814C89.3932 134.605 89.6414 134.396 89.8505 134.174L89.6676 133.678L88.1256 134.096L86.6229 134.501L85.6037 134.775L85.7474 135.533C86.0349 135.625 86.3616 135.664 86.7536 135.677C86.8189 135.677 86.8712 135.677 86.9365 135.677L87.8251 139.009C87.9296 139.414 88.0342 139.728 88.1126 139.976C88.191 140.211 88.2694 140.394 88.3216 140.538C88.387 140.668 88.4523 140.773 88.5307 140.838C88.7398 141.034 88.9619 141.178 89.2233 141.27C89.4846 141.361 89.7329 141.413 89.9942 141.439C90.2425 141.453 90.4777 141.439 90.6868 141.4C90.9743 141.243 91.2748 141.008 91.6146 140.695C91.9543 140.381 92.3071 140.015 92.6599 139.584C92.7253 139.505 92.7906 139.401 92.856 139.323L93.0389 140.028L93.9928 140.564C94.4371 140.42 94.8944 140.237 95.3387 140.028C95.783 139.806 96.1881 139.571 96.554 139.309L96.2534 138.617L95.0774 138.787L95.0643 138.735Z" fill="#F8F7E5"/>
<path d="M78.7043 135.167C78.4952 135.05 78.3123 134.971 78.1554 134.919C77.9333 135.089 77.7373 135.324 77.5413 135.625C77.3453 135.925 77.2146 136.213 77.1362 136.474C77.2407 136.605 77.3845 136.736 77.5413 136.879C77.7112 137.023 77.8941 137.141 78.0901 137.271C78.2861 137.389 78.4821 137.48 78.6651 137.52C78.8741 137.376 79.0701 137.154 79.2662 136.853C79.4622 136.553 79.619 136.252 79.7366 135.951C79.619 135.821 79.4622 135.677 79.2792 135.546C79.0963 135.416 78.8872 135.285 78.6912 135.167H78.7043Z" fill="#F8F7E5"/>
</g>
<defs>
<clipPath id="clip0_214_1183">
<rect width="88" height="88" fill="white" transform="matrix(-1 0 0 -1 118 118)"/>
</clipPath>
<clipPath id="clip1_214_1183">
<rect width="144" height="144" fill="white" transform="matrix(-1 0 0 -1 146 146)"/>
</clipPath>
</defs>
</svg>
