<svg width="181" height="180" viewBox="0 0 181 180" fill="none" xmlns="http://www.w3.org/2000/svg">
<path d="M0.500008 102.154L3.93243 116.819L54.6111 106.574L14.7344 139.821L24.1231 151.574L65.4131 120.435L43.91 167.545L57.5387 174.074L81.1618 128.27L82.3732 180H97.5163L98.7277 128.471L122.452 174.576L136.08 168.047L114.678 121.138L156.17 152.478L165.559 140.625L125.884 107.578L176.866 117.924L180.298 103.259L130.023 90.6027L180.5 77.846L177.169 63.1808L126.389 73.4263L166.266 40.1786L156.877 28.4263L115.587 59.5647L137.09 12.4554L123.461 5.92635L99.8382 51.8304L98.6268 6.55787e-06H83.4837L82.2723 51.529L58.6492 5.42412L44.9195 11.9531L66.3216 58.8616L24.8298 27.5223L15.4411 39.375L55.1158 72.4219L4.13434 62.0759L0.802875 76.7411L50.9767 89.3973L0.500008 102.154Z" fill="#FF834F"/>
</svg>
