<svg width="21" height="20" viewBox="0 0 21 20" fill="none" xmlns="http://www.w3.org/2000/svg">
<g clip-path="url(#clip0_2_1541)">
<path d="M20.9688 8.64955L20.5874 7.02009L14.9564 8.15848L19.3871 4.46429L18.344 3.15848L13.7562 6.6183L16.1454 1.38393L14.6311 0.658482L12.0063 5.74777L11.8717 0H10.1892L10.0546 5.72545L7.41855 0.602679L5.90425 1.32813L8.28227 6.54018L3.67206 3.05804L2.62887 4.375L7.03717 8.04688L1.37256 6.89732L0.991184 8.52679L6.57728 9.93304L0.96875 11.3504L1.33891 12.9799L6.98109 11.8415L2.55035 15.5357L3.59354 16.8415L8.18131 13.3817L5.79208 18.6161L7.30638 19.3415L9.93117 14.2411L10.0658 20H11.7483L11.8829 14.2746L14.5077 19.3973L16.0332 18.6719L13.6552 13.4598L18.2654 16.942L19.3086 15.625L14.9003 11.9531L20.5649 13.1027L20.9351 11.4732L15.3602 10.067L20.9688 8.64955Z" fill="#FF834F"/>
</g>
<defs>
<clipPath id="clip0_2_1541">
<rect width="20" height="20" fill="white" transform="translate(0.96875)"/>
</clipPath>
</defs>
</svg>
