<svg width="40" height="40" viewBox="0 0 40 40" fill="none" xmlns="http://www.w3.org/2000/svg">
<g clip-path="url(#clip0_2_1652)">
<g clip-path="url(#clip1_2_1652)">
<path d="M34.4 14.2C34.4 5.57 28.82 0 20.2 0C11.58 0 6 5.57 6 14.2C6 22.21 10.81 27.58 18.41 28.31C19.32 29.48 20.73 30.24 22.32 30.24H22.82C25.06 30.24 26.95 28.74 27.57 26.7C31.86 24.43 34.4 20.01 34.4 14.2Z" fill="white"/>
<path d="M20.2 27.4C29 27.4 33.4 21.49 33.4 14.2C33.4 6.91 29 1 20.2 1C11.4 1 7 6.91 7 14.2C7 21.49 11.4 27.4 20.2 27.4Z" fill="#F9AF42"/>
<path d="M14.94 14.41C17.13 14.41 18.91 12.63 18.91 10.44C18.91 8.24997 17.13 6.46997 14.94 6.46997C12.75 6.46997 10.97 8.24997 10.97 10.44C10.97 12.63 12.75 14.41 14.94 14.41Z" fill="white"/>
<path d="M25.45 14.48C27.66 14.48 29.45 12.69 29.45 10.48C29.45 8.26998 27.66 6.47998 25.45 6.47998C23.24 6.47998 21.45 8.26998 21.45 10.48C21.45 12.69 23.24 14.48 25.45 14.48Z" fill="white"/>
<path d="M18.31 10.43C18.31 11.99 17.04 13.26 15.48 13.26C13.92 13.26 12.65 11.99 12.65 10.43C12.65 8.86998 13.92 7.59998 15.48 7.59998C17.04 7.59998 18.31 8.86998 18.31 10.43Z" fill="#402A32"/>
<path d="M27.74 10.43C27.74 11.99 26.47 13.26 24.91 13.26C23.35 13.26 22.08 11.99 22.08 10.43C22.08 8.86998 23.35 7.59998 24.91 7.59998C26.47 7.59998 27.74 8.86998 27.74 10.43Z" fill="#402A32"/>
<path d="M17.37 17.97C16.85 17.97 16.43 18.39 16.43 18.91C16.43 19.43 16.85 19.85 17.37 19.85H23.03C23.55 19.85 23.97 19.43 23.97 18.91C23.97 18.39 23.55 17.97 23.03 17.97H17.37Z" fill="#402A32"/>
<path d="M22.83 19.87C22.1 19.87 22.1 19.14 22.1 19.14V16.09C22.1 15.05 21.25 14.2 20.21 14.2C19.17 14.2 18.32 15.05 18.32 16.09V25.23C18.32 27.44 20.11 29.22 22.31 29.22H22.81C25.02 29.22 26.8 27.43 26.8 25.23V23.84C26.8 21.64 25.19 19.85 22.82 19.85L22.83 19.87Z" fill="#FF822D"/>
</g>
</g>
<defs>
<clipPath id="clip0_2_1652">
<rect width="40" height="40" fill="white"/>
</clipPath>
<clipPath id="clip1_2_1652">
<rect width="28.4" height="30.24" fill="white" transform="translate(6)"/>
</clipPath>
</defs>
</svg>
