<svg width="29" height="30" viewBox="0 0 29 30" fill="none" xmlns="http://www.w3.org/2000/svg">
<g clip-path="url(#clip0_65_251)">
<path d="M28.4 14.2C28.4 5.57 22.82 0 14.2 0C5.58 0 0 5.57 0 14.2C0 22.21 4.81 27.58 12.41 28.31C13.32 29.48 14.73 30.24 16.32 30.24H16.82C19.06 30.24 20.95 28.74 21.57 26.7C25.86 24.43 28.4 20.01 28.4 14.2Z" fill="white"/>
<path d="M14.2 27.4C23 27.4 27.4 21.49 27.4 14.2C27.4 6.91 23 1 14.2 1C5.4 1 1 6.91 1 14.2C1 21.49 5.4 27.4 14.2 27.4Z" fill="#F9AF42"/>
<path d="M8.93997 14.41C11.13 14.41 12.91 12.63 12.91 10.44C12.91 8.24997 11.13 6.46997 8.93997 6.46997C6.74997 6.46997 4.96997 8.24997 4.96997 10.44C4.96997 12.63 6.74997 14.41 8.93997 14.41Z" fill="white"/>
<path d="M19.45 14.48C21.66 14.48 23.45 12.69 23.45 10.48C23.45 8.26998 21.66 6.47998 19.45 6.47998C17.24 6.47998 15.45 8.26998 15.45 10.48C15.45 12.69 17.24 14.48 19.45 14.48Z" fill="white"/>
<path d="M12.3099 10.43C12.3099 11.99 11.0399 13.26 9.4799 13.26C7.9199 13.26 6.6499 11.99 6.6499 10.43C6.6499 8.86998 7.9199 7.59998 9.4799 7.59998C11.0399 7.59998 12.3099 8.86998 12.3099 10.43Z" fill="#402A32"/>
<path d="M21.7401 10.43C21.7401 11.99 20.4701 13.26 18.9101 13.26C17.3501 13.26 16.0801 11.99 16.0801 10.43C16.0801 8.86998 17.3501 7.59998 18.9101 7.59998C20.4701 7.59998 21.7401 8.86998 21.7401 10.43Z" fill="#402A32"/>
<path d="M11.3699 17.97C10.8499 17.97 10.4299 18.39 10.4299 18.91C10.4299 19.43 10.8499 19.85 11.3699 19.85H17.0299C17.5499 19.85 17.9699 19.43 17.9699 18.91C17.9699 18.39 17.5499 17.97 17.0299 17.97H11.3699Z" fill="#402A32"/>
<path d="M16.8301 19.87C16.1001 19.87 16.1001 19.14 16.1001 19.14V16.09C16.1001 15.05 15.2501 14.2 14.2101 14.2C13.1701 14.2 12.3201 15.05 12.3201 16.09V25.23C12.3201 27.44 14.1101 29.22 16.3101 29.22H16.8101C19.0201 29.22 20.8001 27.43 20.8001 25.23V23.84C20.8001 21.64 19.1901 19.85 16.8201 19.85L16.8301 19.87Z" fill="#FF822D"/>
</g>
<defs>
<clipPath id="clip0_65_251">
<rect width="28.4" height="30.24" fill="white"/>
</clipPath>
</defs>
</svg>
