<svg width="40" height="40" viewBox="0 0 40 40" fill="none" xmlns="http://www.w3.org/2000/svg">
<g clip-path="url(#clip0_2_266)">
<path d="M38.102 11.2955L36.3754 8.43306L26.4406 14.0528L32.5299 4.31292L29.7529 2.4718L23.2222 11.8627L24.5039 0.449075L21.1952 0L19.379 11.2825L15.5757 0.442446L12.3971 1.47524L15.678 12.4381L7.53512 4.32119L5.12231 6.62929L12.8329 15.0742L1.97351 11.2869L0.815939 14.4299L11.4111 18.7017L0 19.9942L0.285635 23.3249L11.7069 22.5683L1.98673 28.7045L3.69214 31.5738L13.6481 25.9472L7.55883 35.6871L10.3358 37.5282L16.8665 28.1373L15.5849 39.5509L18.8936 40L20.7029 28.6963L24.5131 39.5576L27.6917 38.5248L24.4108 27.5619L32.5324 35.6857L34.9664 33.3707L27.2558 24.9258L38.1152 28.7131L39.2728 25.5701L28.6777 21.2983L40.0888 20.0058L39.7819 16.682L28.3819 17.4317L38.102 11.2955Z" fill="#FF834F"/>
</g>
<defs>
<clipPath id="clip0_2_266">
<rect width="40" height="40" fill="white"/>
</clipPath>
</defs>
</svg>
