<svg width="14" height="14" viewBox="0 0 14 14" fill="none" xmlns="http://www.w3.org/2000/svg">
<path d="M6.06671 8.20004L4.63337 6.76671C4.51115 6.64448 4.3556 6.58337 4.16671 6.58337C3.97782 6.58337 3.82226 6.64448 3.70004 6.76671C3.57782 6.88893 3.51671 7.04449 3.51671 7.23337C3.51671 7.42226 3.57782 7.57782 3.70004 7.70004L5.60004 9.60004C5.73337 9.73337 5.88893 9.80004 6.06671 9.80004C6.24448 9.80004 6.40004 9.73337 6.53337 9.60004L10.3 5.83337C10.4223 5.71115 10.4834 5.5556 10.4834 5.36671C10.4834 5.17782 10.4223 5.02226 10.3 4.90004C10.1778 4.77782 10.0223 4.71671 9.83337 4.71671C9.64448 4.71671 9.48893 4.77782 9.36671 4.90004L6.06671 8.20004ZM7.00004 13.6667C6.07782 13.6667 5.21115 13.4917 4.40004 13.1417C3.58893 12.7917 2.88337 12.3167 2.28337 11.7167C1.68337 11.1167 1.20837 10.4112 0.858374 9.60004C0.508374 8.78893 0.333374 7.92226 0.333374 7.00004C0.333374 6.07782 0.508374 5.21115 0.858374 4.40004C1.20837 3.58893 1.68337 2.88337 2.28337 2.28337C2.88337 1.68337 3.58893 1.20837 4.40004 0.858374C5.21115 0.508374 6.07782 0.333374 7.00004 0.333374C7.92226 0.333374 8.78893 0.508374 9.60004 0.858374C10.4112 1.20837 11.1167 1.68337 11.7167 2.28337C12.3167 2.88337 12.7917 3.58893 13.1417 4.40004C13.4917 5.21115 13.6667 6.07782 13.6667 7.00004C13.6667 7.92226 13.4917 8.78893 13.1417 9.60004C12.7917 10.4112 12.3167 11.1167 11.7167 11.7167C11.1167 12.3167 10.4112 12.7917 9.60004 13.1417C8.78893 13.4917 7.92226 13.6667 7.00004 13.6667Z" fill="#F8F7E5"/>
</svg>
