<svg width="505" height="500" viewBox="0 0 505 500" fill="none" xmlns="http://www.w3.org/2000/svg">
<g clip-path="url(#clip0_3_3348)">
<path d="M500.833 283.761L491.299 324.498L350.525 296.038L461.293 388.393L435.214 421.038L320.519 334.542L380.25 465.402L342.392 483.538L276.773 356.306L273.408 500L231.344 500L227.979 356.864L162.078 484.933L124.221 466.797L183.671 336.496L68.416 423.549L42.3363 390.625L152.544 298.828L10.9286 327.567L1.3941 286.83L141.046 251.674L0.833252 216.239L10.0873 175.502L151.142 203.962L40.3734 111.607L66.453 78.9621L181.147 165.458L121.417 34.5982L159.274 16.4621L224.894 143.973L228.259 1.25197e-05L270.323 1.25197e-05L273.688 143.136L339.308 15.067L377.446 33.2032L317.995 163.504L433.251 76.4509L459.33 109.375L349.123 201.172L490.738 172.433L499.992 213.17L360.62 248.326L500.833 283.761Z" fill="#FF834F"/>
</g>
<defs>
<clipPath id="clip0_3_3348">
<rect width="500" height="500" fill="white" transform="matrix(1 0 0 -1 0.833252 500)"/>
</clipPath>
</defs>
</svg>
