<svg width="48" height="48" viewBox="0 0 48 48" fill="none" xmlns="http://www.w3.org/2000/svg">
<path d="M17.5062 22.3372C18.1555 22.3372 18.7654 22.0815 19.2245 21.6224C19.8869 20.96 20.1099 20.0025 19.8017 19.104C19.5393 18.3432 18.8835 17.7857 18.1162 17.5431C16.8242 17.143 15.8732 16.7954 15.1321 16.4675C15.1321 16.4675 15.119 16.4675 15.1124 16.4609C14.4041 16.1461 14.2992 15.1886 14.9025 14.7033C15.2698 14.4147 15.6633 14.1524 15.9716 13.9556C18.5162 12.3751 23.0284 10.6436 29.3769 8.80074C30.3935 8.50561 31.1805 7.62679 31.2329 6.57089C31.3051 5.12148 30.1442 4 28.7998 4C28.5702 4 28.3407 4.03279 28.1243 4.09838C21.2117 6.09868 16.3979 7.96782 13.4204 9.81729C10.4428 11.6668 9 13.7195 9 16.1068C9 19.0581 12.1284 20.455 13.158 20.9141C14.1024 21.3338 15.2567 21.7536 16.7848 22.2258C17.0209 22.2979 17.2636 22.3372 17.5062 22.3372Z" fill="#FF834F"/>
<path d="M33.4793 13.8731C33.0203 13.414 32.4103 13.1582 31.761 13.1582C31.1118 13.1582 30.5018 13.414 30.0427 13.8731L13.0303 30.879C12.5712 31.3381 12.3154 31.948 12.3154 32.5973C12.3154 33.2465 12.5712 33.8565 13.0303 34.3221C13.4894 34.7812 14.0993 35.037 14.7486 35.037C15.3979 35.037 16.0078 34.7812 16.4669 34.3221L33.4793 17.3097C34.4303 16.3587 34.4303 14.8175 33.4793 13.8665V13.8731Z" fill="#FF834F"/>
<path d="M36.5354 28.5075C35.8402 27.8254 34.8958 27.2155 33.6562 26.6383C32.843 26.2579 31.8789 25.8841 30.7115 25.4972C30.4623 25.4119 30.2 25.3726 29.9376 25.3726C29.2949 25.3726 28.6719 25.6349 28.2193 26.0874C27.5635 26.7433 27.334 27.7008 27.6356 28.5927C27.8849 29.3404 28.521 29.8978 29.2621 30.1471C30.2065 30.4684 30.9739 30.7636 31.6035 31.0521C31.774 31.1308 31.9314 31.2095 32.0691 31.2817C32.7315 31.6293 32.8233 32.5343 32.2462 33.0065C31.7215 33.4328 30.9148 33.9706 29.6687 34.6133C26.9929 35.9971 23.4448 37.2826 20.0017 38.5287L19.8049 38.6008C19.195 38.8238 18.5982 39.0402 18.021 39.2501C17.5357 39.4272 17.0963 39.7289 16.8012 40.1552C16.329 40.8372 16.2306 41.6636 16.5126 42.4178C16.8668 43.3622 17.7849 43.9984 18.7884 43.9984C19.0769 43.9984 19.359 43.9459 19.6278 43.8475C20.2837 43.6049 20.9592 43.3622 21.6675 43.1064C25.2418 41.8079 28.9408 40.47 31.8986 38.9419C34.4957 37.604 37.9585 35.4331 38.07 32.0621C38.1159 30.7636 37.5847 29.5371 36.5354 28.514V28.5075Z" fill="#FF834F"/>
</svg>
