<svg width="129" height="40" viewBox="0 0 129 40" fill="none" xmlns="http://www.w3.org/2000/svg">
<path d="M8.50623 18.3372C9.15551 18.3372 9.76544 18.0815 10.2245 17.6224C10.8869 16.96 11.1099 16.0025 10.8017 15.104C10.5393 14.3432 9.88349 13.7857 9.11616 13.5431C7.82416 13.143 6.87319 12.7954 6.13209 12.4675C6.13209 12.4675 6.11897 12.4675 6.11242 12.4609C5.40411 12.1461 5.29918 11.1886 5.90255 10.7033C6.26982 10.4147 6.66332 10.1524 6.97157 9.95563C9.51622 8.37506 14.0284 6.64365 20.3769 4.80074C21.3935 4.50561 22.1805 3.62679 22.2329 2.57089C22.3051 1.12148 21.1442 0 19.7998 0C19.5702 0 19.3407 0.0327919 19.1243 0.0983758C12.2117 2.09868 7.39786 3.96782 4.42035 5.81729C1.44284 7.66675 0 9.71953 0 12.1068C0 15.0581 3.12835 16.455 4.15802 16.9141C5.10242 17.3338 6.2567 17.7536 7.7848 18.2258C8.02091 18.2979 8.26357 18.3372 8.50623 18.3372Z" fill="#FF834F"/>
<path d="M24.4793 9.87307C24.0203 9.41398 23.4103 9.1582 22.761 9.1582C22.1118 9.1582 21.5018 9.41398 21.0427 9.87307L4.03029 26.879C3.57121 27.3381 3.31543 27.948 3.31543 28.5973C3.31543 29.2465 3.57121 29.8565 4.03029 30.3221C4.48938 30.7812 5.09931 31.037 5.74859 31.037C6.39787 31.037 7.0078 30.7812 7.46689 30.3221L24.4793 13.3097C25.4303 12.3587 25.4303 10.8175 24.4793 9.86651V9.87307Z" fill="#FF834F"/>
<path d="M27.5354 24.5075C26.8402 23.8254 25.8958 23.2155 24.6562 22.6383C23.843 22.2579 22.8789 21.8841 21.7115 21.4972C21.4623 21.4119 21.2 21.3726 20.9376 21.3726C20.2949 21.3726 19.6719 21.6349 19.2193 22.0874C18.5635 22.7433 18.334 23.7008 18.6356 24.5927C18.8849 25.3404 19.521 25.8978 20.2621 26.1471C21.2065 26.4684 21.9739 26.7636 22.6035 27.0521C22.774 27.1308 22.9314 27.2095 23.0691 27.2817C23.7315 27.6293 23.8233 28.5343 23.2462 29.0065C22.7215 29.4328 21.9148 29.9706 20.6687 30.6133C17.9929 31.9971 14.4448 33.2826 11.0017 34.5287L10.8049 34.6008C10.195 34.8238 9.59818 35.0402 9.02104 35.2501C8.53572 35.4272 8.09631 35.7289 7.80118 36.1552C7.32898 36.8372 7.2306 37.6636 7.51261 38.4178C7.86676 39.3622 8.78494 39.9984 9.78837 39.9984C10.0769 39.9984 10.359 39.9459 10.6278 39.8475C11.2837 39.6049 11.9592 39.3622 12.6675 39.1064C16.2418 37.8079 19.9408 36.47 22.8986 34.9419C25.4957 33.604 28.9585 31.4331 29.07 28.0621C29.1159 26.7636 28.5847 25.5371 27.5354 24.514V24.5075Z" fill="#FF834F"/>
<path d="M45.4888 31.9995C44.8914 31.9995 44.4008 31.8182 44.0168 31.4555C43.6541 31.0715 43.4728 30.6022 43.4728 30.0475V11.5515C43.4728 10.9968 43.6541 10.5382 44.0168 10.1755C44.4008 9.79151 44.8701 9.59951 45.4248 9.59951H55.8248C56.3794 9.59951 56.8381 9.78084 57.2008 10.1435C57.5848 10.4848 57.7768 10.9328 57.7768 11.4875C57.7768 11.9568 57.5848 12.3728 57.2008 12.7355C56.8381 13.0982 56.3794 13.2795 55.8248 13.2795H47.1848L47.4728 12.8955V19.3275L47.2488 18.9115H54.3848C54.9394 18.9115 55.3981 19.0928 55.7608 19.4555C56.1448 19.7968 56.3368 20.2448 56.3368 20.7995C56.3368 21.2688 56.1448 21.6848 55.7608 22.0475C55.3981 22.4102 54.9394 22.5915 54.3848 22.5915H47.1848L47.4728 22.3035V30.0475C47.4728 30.6022 47.2701 31.0715 46.8648 31.4555C46.4808 31.8182 46.0221 31.9995 45.4888 31.9995ZM73.3568 14.8795C73.9114 14.8795 74.3701 15.0715 74.7328 15.4555C75.0954 15.8182 75.2768 16.2768 75.2768 16.8315V24.9595C75.2768 27.2208 74.6474 29.0128 73.3888 30.3355C72.1301 31.6582 70.3168 32.3195 67.9488 32.3195C65.5808 32.3195 63.7674 31.6582 62.5088 30.3355C61.2714 29.0128 60.6528 27.2208 60.6528 24.9595V16.8315C60.6528 16.2768 60.8341 15.8182 61.1968 15.4555C61.5594 15.0715 62.0181 14.8795 62.5728 14.8795C63.1274 14.8795 63.5861 15.0715 63.9488 15.4555C64.3114 15.8182 64.4928 16.2768 64.4928 16.8315V24.9595C64.4928 26.2608 64.7808 27.2315 65.3568 27.8715C65.9328 28.4902 66.7968 28.7995 67.9488 28.7995C69.1221 28.7995 69.9968 28.4902 70.5728 27.8715C71.1488 27.2315 71.4368 26.2608 71.4368 24.9595V16.8315C71.4368 16.2768 71.6181 15.8182 71.9808 15.4555C72.3434 15.0715 72.8021 14.8795 73.3568 14.8795ZM87.05 14.5595C88.266 14.5595 89.322 14.6875 90.218 14.9435C91.1353 15.1995 91.8393 15.5622 92.33 16.0315C92.842 16.4795 93.098 17.0235 93.098 17.6635C93.098 18.0902 92.97 18.4955 92.714 18.8795C92.458 19.2422 92.0847 19.4235 91.594 19.4235C91.2527 19.4235 90.9647 19.3808 90.73 19.2955C90.5167 19.1888 90.3247 19.0608 90.154 18.9115C89.9833 18.7622 89.7807 18.6235 89.546 18.4955C89.3327 18.3675 89.002 18.2715 88.554 18.2075C88.1273 18.1222 87.8073 18.0795 87.594 18.0795C86.506 18.0795 85.578 18.3142 84.81 18.7835C84.0633 19.2528 83.4873 19.8928 83.082 20.7035C82.6767 21.4928 82.474 22.4102 82.474 23.4555C82.474 24.4795 82.6767 25.3968 83.082 26.2075C83.5087 26.9968 84.0847 27.6262 84.81 28.0955C85.5567 28.5648 86.41 28.7995 87.37 28.7995C87.9033 28.7995 88.362 28.7675 88.746 28.7035C89.13 28.6395 89.45 28.5435 89.706 28.4155C90.0047 28.2448 90.2713 28.0635 90.506 27.8715C90.7407 27.6795 91.0927 27.5835 91.562 27.5835C92.1167 27.5835 92.5433 27.7648 92.842 28.1275C93.1407 28.4688 93.29 28.8955 93.29 29.4075C93.29 29.9408 92.9913 30.4315 92.394 30.8795C91.7967 31.3062 91.0073 31.6582 90.026 31.9355C89.066 32.1915 88.0207 32.3195 86.89 32.3195C85.2047 32.3195 83.7433 31.9355 82.506 31.1675C81.2687 30.3782 80.3087 29.3115 79.626 27.9675C78.9647 26.6235 78.634 25.1195 78.634 23.4555C78.634 21.7062 78.986 20.1702 79.69 18.8475C80.4153 17.5035 81.4073 16.4582 82.666 15.7115C83.946 14.9435 85.4073 14.5595 87.05 14.5595ZM105.051 14.5595C106.587 14.5595 107.75 14.8902 108.539 15.5515C109.35 16.2128 109.904 17.0982 110.203 18.2075C110.502 19.2955 110.651 20.5115 110.651 21.8555V30.0475C110.651 30.6022 110.47 31.0715 110.107 31.4555C109.744 31.8182 109.286 31.9995 108.731 31.9995C108.176 31.9995 107.718 31.8182 107.355 31.4555C106.992 31.0715 106.811 30.6022 106.811 30.0475V21.8555C106.811 21.1515 106.726 20.5222 106.555 19.9675C106.384 19.3915 106.075 18.9328 105.627 18.5915C105.179 18.2502 104.539 18.0795 103.707 18.0795C102.896 18.0795 102.203 18.2502 101.627 18.5915C101.051 18.9328 100.614 19.3915 100.315 19.9675C100.038 20.5222 99.899 21.1515 99.899 21.8555V30.0475C99.899 30.6022 99.7177 31.0715 99.355 31.4555C98.9923 31.8182 98.5337 31.9995 97.979 31.9995C97.4243 31.9995 96.9657 31.8182 96.603 31.4555C96.2403 31.0715 96.059 30.6022 96.059 30.0475V10.2715C96.059 9.71684 96.2403 9.25818 96.603 8.89551C96.9657 8.51151 97.4243 8.31951 97.979 8.31951C98.5337 8.31951 98.9923 8.51151 99.355 8.89551C99.7177 9.25818 99.899 9.71684 99.899 10.2715V18.2075L99.419 18.1115C99.611 17.7488 99.8777 17.3648 100.219 16.9595C100.56 16.5328 100.976 16.1382 101.467 15.7755C101.958 15.4128 102.502 15.1248 103.099 14.9115C103.696 14.6768 104.347 14.5595 105.051 14.5595ZM113.817 29.3435C113.604 29.0448 113.508 28.6608 113.529 28.1915C113.55 27.7222 113.828 27.3168 114.361 26.9755C114.702 26.7622 115.065 26.6768 115.449 26.7195C115.833 26.7408 116.206 26.9328 116.569 27.2955C117.188 27.9142 117.838 28.3942 118.521 28.7355C119.204 29.0768 120.057 29.2475 121.081 29.2475C121.401 29.2262 121.753 29.1835 122.137 29.1195C122.521 29.0342 122.852 28.8635 123.129 28.6075C123.428 28.3302 123.577 27.9142 123.577 27.3595C123.577 26.8902 123.417 26.5168 123.097 26.2395C122.777 25.9622 122.35 25.7275 121.817 25.5355C121.305 25.3435 120.729 25.1622 120.089 24.9915C119.428 24.7995 118.745 24.5862 118.041 24.3515C117.358 24.1168 116.729 23.8182 116.153 23.4555C115.577 23.0715 115.108 22.5702 114.745 21.9515C114.382 21.3328 114.201 20.5542 114.201 19.6155C114.201 18.5488 114.5 17.6422 115.097 16.8955C115.694 16.1488 116.462 15.5728 117.401 15.1675C118.361 14.7622 119.364 14.5595 120.409 14.5595C121.07 14.5595 121.764 14.6448 122.489 14.8155C123.214 14.9648 123.908 15.2208 124.569 15.5835C125.23 15.9248 125.785 16.3835 126.233 16.9595C126.468 17.2795 126.606 17.6635 126.649 18.1115C126.692 18.5595 126.489 18.9648 126.041 19.3275C125.721 19.5835 125.348 19.7008 124.921 19.6795C124.494 19.6368 124.142 19.4875 123.865 19.2315C123.502 18.7622 123.012 18.3888 122.393 18.1115C121.796 17.8342 121.102 17.6955 120.313 17.6955C119.993 17.6955 119.641 17.7382 119.257 17.8235C118.894 17.8875 118.574 18.0475 118.297 18.3035C118.02 18.5382 117.881 18.9222 117.881 19.4555C117.881 19.9462 118.041 20.3408 118.361 20.6395C118.681 20.9168 119.108 21.1515 119.641 21.3435C120.196 21.5142 120.782 21.6848 121.401 21.8555C122.041 22.0262 122.692 22.2288 123.353 22.4635C124.014 22.6982 124.622 23.0075 125.177 23.3915C125.732 23.7755 126.18 24.2768 126.521 24.8955C126.862 25.4928 127.033 26.2608 127.033 27.1995C127.033 28.2875 126.713 29.2155 126.073 29.9835C125.433 30.7515 124.633 31.3382 123.673 31.7435C122.713 32.1275 121.732 32.3195 120.729 32.3195C119.47 32.3195 118.212 32.1062 116.953 31.6795C115.694 31.2315 114.649 30.4528 113.817 29.3435Z" fill="#F8F7E5"/>
</svg>
