<svg width="144" height="144" viewBox="0 0 144 144" fill="none" xmlns="http://www.w3.org/2000/svg">
<g clip-path="url(#clip0_3_3353)">
<path d="M28 77.942L29.6781 85.1116L54.4543 80.1027L34.9591 96.3571L39.5491 102.103L59.7353 86.8795L49.2227 109.911L55.8856 113.103L67.4347 90.7098L68.0269 116H75.4302L76.0224 90.808L87.6209 113.348L94.2838 110.156L83.8205 87.2232L104.105 102.545L108.695 96.75L89.2989 80.5938L114.223 85.6518L115.901 78.4821L91.3225 72.2946L116 66.058L114.371 58.8884L89.5457 63.8973L109.041 47.6429L104.451 41.8973L84.2647 57.1205L94.7773 34.0893L88.1144 30.8973L76.5653 53.3393L75.9731 28H68.5698L67.9776 53.192L56.4285 30.6518L49.7162 33.8438L60.1795 56.7768L39.8946 41.4554L35.3045 47.25L54.7011 63.4062L29.7768 58.3482L28.1481 65.5179L52.6775 71.7054L28 77.942Z" fill="#F9AF42"/>
</g>
<g clip-path="url(#clip1_3_3353)">
<path d="M64.055 143.791C64.434 143.882 64.7999 143.935 65.1657 143.974C65.9106 144.039 66.6031 143.974 67.2434 143.778C67.8706 143.582 68.3933 143.268 68.7853 142.837C69.1774 142.406 69.3995 141.883 69.4648 141.256C69.5171 140.668 69.4126 140.158 69.1512 139.727C68.8899 139.309 68.5501 138.943 68.132 138.629C67.7138 138.316 67.2826 138.028 66.8514 137.78C66.4202 137.532 66.0412 137.297 65.7146 137.088C65.3879 136.878 65.1265 136.643 64.9436 136.395C64.7607 136.147 64.6823 135.859 64.7084 135.546C64.7345 135.31 64.8129 135.088 64.9697 134.853C65.1265 134.618 65.3618 134.435 65.6754 134.304C66.0935 134.343 66.5247 134.422 66.969 134.566C67.2826 134.657 67.5832 134.801 67.8706 134.971L68.4325 137.218L69.5563 137.323C69.6478 137.035 69.7262 136.709 69.8046 136.343C69.883 135.977 69.9483 135.611 69.9875 135.271C70.0267 134.931 70.0529 134.657 70.0659 134.448C69.7654 134.2 69.3995 133.991 68.9813 133.795C68.5632 133.612 68.132 133.468 67.6746 133.35C67.2173 133.233 66.8122 133.167 66.4333 133.128C65.7407 133.063 65.0873 133.128 64.4863 133.311C63.8852 133.494 63.3755 133.808 62.9835 134.252C62.5784 134.683 62.3563 135.245 62.291 135.911C62.2387 136.539 62.3302 137.061 62.5784 137.493C62.8267 137.924 63.1665 138.303 63.5846 138.616C64.0028 138.93 64.434 139.217 64.9044 139.479C65.3225 139.727 65.7146 139.962 66.0543 140.171C66.4071 140.38 66.6815 140.616 66.8775 140.838C67.0866 141.073 67.165 141.334 67.1519 141.635C67.1258 141.857 67.0474 142.092 66.9037 142.314C66.7599 142.537 66.5639 142.706 66.3156 142.824C65.7146 142.798 65.1265 142.654 64.5777 142.419C64.434 142.367 64.3164 142.262 64.1857 142.184L63.8852 140.394L62.6307 140.276C62.5262 140.59 62.4478 140.916 62.3824 141.256C62.3171 141.596 62.2648 141.935 62.2126 142.262C62.1734 142.589 62.1342 142.876 62.108 143.125C62.3563 143.255 62.6438 143.373 62.9835 143.49C63.3233 143.608 63.663 143.7 64.042 143.791H64.055Z" fill="#F8F7E5"/>
<path d="M59.1551 132.253C58.6716 131.978 58.1358 131.808 57.5217 131.756L55.0912 132.409L55.248 133.246C55.5747 133.18 55.8883 133.141 56.1757 133.128C56.4632 133.128 56.7376 133.141 56.999 133.193C57.4825 133.298 57.8614 133.507 58.1489 133.821C58.4364 134.134 58.6193 134.513 58.6977 134.958C58.7761 135.415 58.763 135.898 58.6454 136.421C58.554 136.813 58.4102 137.192 58.1881 137.584C57.979 137.976 57.6785 138.303 57.3126 138.564C56.9859 138.368 56.6854 138.094 56.4371 137.754C56.1757 137.414 55.9536 137.022 55.7707 136.578L53.8498 137.349C53.9282 137.767 54.085 138.12 54.3202 138.433C54.5554 138.747 54.8298 138.995 55.1696 139.204C55.5093 139.413 55.8752 139.557 56.2803 139.649C56.9859 139.805 57.6523 139.779 58.3057 139.583C58.946 139.374 59.5079 139.021 59.9652 138.499C60.4226 137.976 60.7362 137.323 60.9191 136.526C61.0498 135.911 61.0759 135.336 60.9714 134.788C60.8668 134.239 60.6708 133.755 60.3572 133.324C60.0436 132.893 59.6647 132.54 59.1812 132.266L59.1551 132.253Z" fill="#F8F7E5"/>
<path d="M48.3877 133.52L47.1986 133.102C47.0548 133.285 46.9111 133.494 46.7543 133.729C46.5975 133.964 46.4537 134.213 46.3231 134.474C46.1924 134.735 46.0748 134.984 45.9702 135.232C45.8657 135.48 45.7742 135.689 45.722 135.885C45.8918 136.16 46.1401 136.369 46.4537 136.539C46.7804 136.695 47.1332 136.774 47.5252 136.761L49.5768 135.689L49.1848 136.8L49.6813 137.767C50.1387 137.898 50.6091 138.002 51.0926 138.081C51.5891 138.159 52.0465 138.185 52.4907 138.172L52.6345 137.427L51.576 136.905L53.327 131.926C53.4185 131.926 53.4969 131.926 53.5884 131.926C53.9543 131.926 54.2809 131.9 54.5815 131.835L54.7122 131.312L53.1964 130.776L51.4976 130.175L49.9688 129.639L49.6552 130.345C49.7859 130.489 49.9427 130.632 50.1387 130.789C50.3347 130.946 50.5307 131.09 50.7397 131.22C50.8573 131.286 50.9488 131.351 51.0534 131.403L49.9819 134.461C49.9819 134.461 49.9557 134.474 49.9426 134.487C49.5898 134.709 49.2632 134.879 48.9496 135.01C48.6359 135.141 48.3223 135.232 48.0218 135.297L48.3485 133.52H48.3877Z" fill="#F8F7E5"/>
<path d="M46.7935 130.11C46.7412 129.391 46.5321 128.764 46.1532 128.215C45.7743 127.666 45.2777 127.235 44.6766 126.934C44.0755 126.634 43.4614 126.503 42.8211 126.529C42.1808 126.555 41.5797 126.764 41.0047 127.143C40.4298 127.522 39.9594 128.11 39.5674 128.881C39.1753 129.665 39.0055 130.41 39.0447 131.103C39.0839 131.795 39.2929 132.409 39.6588 132.945C40.0247 133.481 40.5082 133.899 41.1093 134.2C41.7104 134.5 42.3376 134.644 42.9909 134.618C43.6443 134.605 44.2715 134.409 44.8465 134.03C45.4345 133.651 45.918 133.089 46.2969 132.318C46.6759 131.56 46.8458 130.828 46.7935 130.11ZM44.6766 129.966C44.5851 130.397 44.4283 130.841 44.1931 131.299C43.971 131.743 43.7358 132.135 43.4614 132.475C43.187 132.815 42.9125 133.063 42.6381 133.207C42.5205 133.233 42.3899 133.233 42.2331 133.207C42.0893 133.18 41.9325 133.128 41.8018 133.063C41.4752 132.906 41.2661 132.645 41.1877 132.305C41.1093 131.965 41.1223 131.573 41.2269 131.129C41.3314 130.685 41.5013 130.227 41.7365 129.757C41.8802 129.482 42.037 129.195 42.22 128.921C42.4029 128.646 42.5989 128.411 42.808 128.228C43.0171 128.045 43.2392 127.927 43.4875 127.888C43.6704 127.914 43.8403 127.98 43.9971 128.058C44.3499 128.228 44.5721 128.489 44.6635 128.829C44.7681 129.169 44.7681 129.561 44.6635 129.992L44.6766 129.966Z" fill="#F8F7E5"/>
<path d="M39.3845 125.575C39.4759 125.601 39.5674 125.628 39.672 125.654C40.0248 125.732 40.3514 125.784 40.6651 125.797L40.9133 125.327L39.5674 124.465L38.9141 124.046L37.1108 122.897L36.6404 123.511C36.771 123.772 36.954 124.06 37.2023 124.334C37.2545 124.399 37.3068 124.438 37.346 124.491L32.1845 132.605L32.472 133.625C32.877 133.86 33.3083 134.069 33.7787 134.252C34.2491 134.435 34.6934 134.566 35.1246 134.657L35.4513 133.951L34.5235 133.207L39.3845 125.562V125.575Z" fill="#F8F7E5"/>
<path d="M34.9415 122.596C35.0329 122.635 35.1244 122.661 35.2159 122.701C35.5687 122.818 35.8823 122.883 36.1959 122.923L36.4834 122.465L35.5687 121.773L35.3858 121.629L35.2159 121.498L34.6017 121.028L32.903 119.734L32.3803 120.309C32.4849 120.584 32.6416 120.871 32.8638 121.185C32.9161 121.25 32.9553 121.289 32.9945 121.355L27.1665 128.999L27.3625 130.031C27.7545 130.306 28.1596 130.541 28.6039 130.763C29.0482 130.985 29.4794 131.155 29.9106 131.286L30.2896 130.606L29.4271 129.796L34.9153 122.596H34.9415Z" fill="#F8F7E5"/>
<path d="M27.8853 115.54C27.7939 114.912 27.5064 114.324 27.0098 113.802L24.8668 113.344C24.9714 113.122 25.0498 112.9 25.0759 112.665C25.102 112.404 25.102 112.155 25.0498 111.933C25.0106 111.711 24.9191 111.528 24.8015 111.397L22.7761 110.653L22.3449 111.228C22.4625 111.319 22.567 111.41 22.6715 111.489C22.7761 111.567 22.8545 111.646 22.9329 111.737C23.0113 111.816 23.0505 111.92 23.0505 112.012C23.0505 112.116 23.0113 112.195 22.9329 112.26L16.1772 118.375V119.434C16.5169 119.773 16.8828 120.087 17.2748 120.388C17.6668 120.688 18.0719 120.936 18.4639 121.132L18.9605 120.531L18.2679 119.577L20.0973 117.918C20.2541 118.205 20.424 118.493 20.6723 118.754C21.0904 119.225 21.5478 119.564 22.0443 119.787C22.5409 120.009 23.0505 120.139 23.5732 120.152C24.0959 120.165 24.6055 120.074 25.102 119.891C25.5986 119.708 26.0559 119.421 26.461 119.042C26.9837 118.571 27.3626 118.022 27.624 117.408C27.8723 116.794 27.9637 116.167 27.8723 115.527L27.8853 115.54ZM25.4548 116.481C25.2719 116.833 25.0236 117.147 24.6969 117.448C24.3311 117.774 23.926 118.036 23.4817 118.218C23.0374 118.401 22.6062 118.48 22.1881 118.428C21.9006 118.166 21.6654 117.866 21.5086 117.539C21.404 117.317 21.3256 117.095 21.2734 116.873L24.4748 113.972C24.4748 113.972 24.5009 113.972 24.514 113.985C24.8668 114.155 25.1282 114.338 25.3111 114.547C25.5594 114.821 25.6901 115.122 25.7031 115.461C25.7162 115.801 25.6378 116.141 25.4548 116.494V116.481Z" fill="#F8F7E5"/>
<path d="M20.1887 112.168C20.8813 111.685 21.3909 111.123 21.6915 110.483C21.992 109.842 22.1096 109.176 22.0443 108.51C21.9789 107.843 21.7568 107.229 21.3648 106.667C20.9858 106.118 20.5154 105.7 19.9405 105.413C19.3655 105.125 18.7383 105.008 18.0588 105.073C17.3793 105.125 16.6737 105.4 15.955 105.896C15.2363 106.393 14.7136 106.955 14.4131 107.582C14.1125 108.209 13.9818 108.849 14.0472 109.49C14.1125 110.143 14.3346 110.731 14.7136 111.293C15.0925 111.842 15.576 112.273 16.151 112.573C16.739 112.874 17.3662 113.005 18.0588 112.966C18.7513 112.926 19.457 112.652 20.1626 112.168H20.1887ZM16.5561 111.162C16.4385 111.123 16.3209 111.058 16.2032 110.966C16.0856 110.875 15.9811 110.757 15.8896 110.626C15.6806 110.326 15.6283 109.999 15.7198 109.66C15.8112 109.32 16.0203 108.98 16.3209 108.653C16.6214 108.314 17.0003 108 17.4316 107.699C17.6929 107.517 17.9673 107.36 18.2548 107.203C18.5553 107.046 18.8297 106.942 19.1042 106.876C19.3786 106.811 19.6268 106.824 19.8621 106.902C20.0058 107.02 20.1234 107.151 20.2279 107.294C20.4501 107.608 20.5154 107.948 20.437 108.287C20.3586 108.64 20.1757 108.967 19.8882 109.307C19.6007 109.646 19.2348 109.947 18.8167 110.248C18.4116 110.522 18.0065 110.744 17.6014 110.914C17.1964 111.084 16.8435 111.162 16.5299 111.149L16.5561 111.162Z" fill="#F8F7E5"/>
<path d="M17.7582 101.427C17.7059 101.218 17.6275 100.983 17.4968 100.722C17.3662 100.46 17.2485 100.212 17.0917 99.9636C16.9349 99.7154 16.7912 99.5194 16.6344 99.3626L13.9034 99.4671L15.8896 97.494C15.8373 97.298 15.7589 97.0758 15.6544 96.8145C15.5368 96.5662 15.4061 96.3179 15.2623 96.0696C15.1186 95.8214 14.9618 95.6254 14.7919 95.4555L8.23221 96.2656C8.23221 96.2656 8.11461 96.1611 8.06234 96.1088C7.89247 95.9651 7.72259 95.8344 7.53965 95.7038L6.9255 96.0435L7.29137 96.8145L7.46125 97.1673L7.80099 97.8729L8.54582 99.441L9.29066 99.1012V98.2388L13.7074 96.9582L13.7727 97.0889L12.5182 97.9774L9.31679 100.891L10.4928 102.865L12.5182 100.852L15.4583 100.63L15.5237 100.774L14.2692 101.728L11.8257 103.936C11.8257 103.936 11.7995 103.91 11.7734 103.897C11.6035 103.753 11.4206 103.609 11.2507 103.479L10.6366 103.832L11.0286 104.655L11.499 105.661L12.27 107.281L13.0148 106.942V105.975L17.7712 101.388L17.7582 101.427Z" fill="#F8F7E5"/>
<path d="M7.27839 93.1035L12.3746 91.7314C12.4268 91.8098 12.453 91.8621 12.5053 91.9405C12.7143 92.241 12.9234 92.4893 13.1455 92.6984L13.6421 92.5155L13.3546 91.457L13.0541 90.3332L12.5314 88.3993L11.7735 88.543C11.682 88.8305 11.6298 89.1311 11.6167 89.4708C11.6167 89.4969 11.6167 89.5361 11.6167 89.5623L7.44826 90.6861C7.25225 90.5031 7.06931 90.3202 6.92557 90.1242C6.74263 89.889 6.61196 89.6668 6.55969 89.4577C6.46823 89.1441 6.52049 88.8697 6.70343 88.6214C6.89944 88.3732 7.25225 88.1772 7.76187 88.0465L11.1985 87.1187C11.4076 87.4193 11.6167 87.6675 11.8388 87.8766L12.3354 87.6937L11.9172 86.1518L11.7604 85.5768L11.2377 83.6429L10.4798 83.7866C10.3884 84.0741 10.3492 84.4008 10.3361 84.7928C10.3361 84.8581 10.3361 84.9104 10.3361 84.9757L7.01704 85.8773C6.61196 85.9819 6.29835 86.0864 6.05008 86.1648C5.81487 86.2432 5.63193 86.3216 5.48819 86.387C5.35752 86.4523 5.25298 86.5176 5.18764 86.596C4.99163 86.8051 4.8479 87.0273 4.75643 87.2886C4.66496 87.5499 4.61269 87.7982 4.58655 88.0596C4.57348 88.3078 4.58655 88.543 4.62575 88.7521C4.78256 89.0265 5.01777 89.3401 5.33138 89.6799C5.64499 90.0196 6.01088 90.3594 6.4421 90.7253C6.5205 90.7906 6.62503 90.8559 6.70343 90.9213L6.01088 91.1042L5.47512 92.0581C5.61886 92.5024 5.8018 92.9597 6.01088 93.404C6.23302 93.8483 6.46822 94.2534 6.72956 94.6193L7.42213 94.3187L7.25225 93.1427L7.27839 93.1035Z" fill="#F8F7E5"/>
<path d="M10.0617 77.7887C10.2054 77.6711 10.3361 77.5143 10.4668 77.3313C10.5974 77.1484 10.7281 76.9393 10.8457 76.7433C10.9633 76.5473 11.0417 76.3513 11.094 76.1945C10.9241 75.9724 10.6758 75.7764 10.3884 75.5803C10.0878 75.3843 9.80034 75.2537 9.539 75.1753C9.40833 75.2798 9.27766 75.4235 9.13392 75.5803C8.99018 75.7502 8.87257 75.9332 8.7419 76.1292C8.6243 76.3252 8.53284 76.5212 8.49363 76.7041C8.63737 76.9132 8.85951 77.1092 9.16005 77.3052C9.4606 77.5012 9.76114 77.658 10.0617 77.7756V77.7887Z" fill="#F8F7E5"/>
<path d="M0.222172 67.1913C0.418179 67.8185 0.731791 68.3412 1.16301 68.7332C1.59422 69.1252 2.11691 69.3604 2.74413 69.4127C3.33215 69.465 3.84177 69.3604 4.27298 69.0991C4.7042 68.8377 5.05702 68.498 5.37063 68.0799C5.68424 67.6617 5.97171 67.2305 6.23306 66.7993C6.48133 66.3681 6.71654 65.9891 6.92561 65.6624C7.13469 65.3358 7.3699 65.0744 7.61817 64.9045C7.86645 64.7347 8.15393 64.6432 8.46754 64.6693C8.70275 64.6955 8.92489 64.7739 9.1601 64.9307C9.3953 65.0875 9.57825 65.3227 9.70892 65.6363C9.66972 66.0544 9.59131 66.4857 9.44757 66.9299C9.3561 67.2436 9.21237 67.5441 9.0425 67.8316L6.79495 68.3935L6.69041 69.5172C6.97788 69.6087 7.30456 69.6871 7.67044 69.7655C8.03632 69.8439 8.4022 69.9093 8.74195 69.9485C9.08169 69.9877 9.35611 70.0138 9.56518 70.0269C9.81346 69.7263 10.0225 69.3604 10.2185 68.9423C10.4015 68.5241 10.5452 68.0929 10.6628 67.6356C10.7804 67.1782 10.8458 66.7731 10.885 66.3942C10.9503 65.7016 10.885 65.0483 10.702 64.4472C10.5191 63.8461 10.2055 63.3365 9.76118 62.9314C9.32997 62.5263 8.76808 62.3042 8.10166 62.2388C7.47444 62.1866 6.95175 62.278 6.52054 62.5263C6.08932 62.7746 5.71037 63.1143 5.39676 63.5325C5.08315 63.9506 4.79567 64.3949 4.53432 64.8523C4.28605 65.2704 4.05084 65.6494 3.84177 66.0022C3.63269 66.355 3.39749 66.6294 3.17535 66.8254C2.94014 67.0345 2.67879 67.1129 2.36518 67.0867C2.14304 67.0606 1.90783 66.9822 1.68569 66.8515C1.46354 66.7078 1.29367 66.5118 1.17607 66.2635C1.21527 65.6624 1.34595 65.0744 1.58116 64.5256C1.64649 64.3818 1.73796 64.2642 1.81637 64.1336L3.60656 63.8461L3.72417 62.5917C3.41056 62.4871 3.08388 62.4087 2.74413 62.3434C2.40439 62.278 2.06464 62.2258 1.75103 62.1735C1.42435 62.1343 1.13687 62.0951 0.888598 62.069C0.757927 62.3172 0.640314 62.6178 0.52271 62.9445C0.405106 63.2711 0.313642 63.624 0.222172 64.0029C0.130701 64.3818 0.078433 64.7477 0.0392323 65.1136C-0.026104 65.8584 0.0392342 66.551 0.235241 67.1782L0.222172 67.1913Z" fill="#F8F7E5"/>
<path d="M5.51431 59.8998C6.037 60.3571 6.69036 60.6707 7.48746 60.8537C8.10161 60.9844 8.67657 61.0105 9.22539 60.906C9.77421 60.8014 10.2577 60.6054 10.6889 60.2918C11.1201 59.9913 11.4729 59.5992 11.7473 59.1158C12.0218 58.6323 12.1916 58.0965 12.2439 57.4824L11.6036 55.0519L10.7673 55.2087C10.8326 55.5354 10.8718 55.849 10.8849 56.1364C10.8849 56.4239 10.8719 56.6983 10.8196 56.9597C10.715 57.4432 10.506 57.8221 10.1924 58.1096C9.87874 58.3971 9.4998 58.58 9.04245 58.6584C8.5851 58.7368 8.10161 58.7237 7.57893 58.6061C7.18691 58.5147 6.80796 58.3709 6.41595 58.1488C6.037 57.9397 5.69726 57.6392 5.43591 57.2733C5.63192 56.9466 5.90634 56.6461 6.24608 56.3978C6.58583 56.1364 6.97784 55.9143 7.42213 55.7314L6.65116 53.8105C6.23301 53.8889 5.8802 54.0457 5.56658 54.2809C5.25297 54.5161 5.0047 54.7905 4.79563 55.1303C4.58655 55.47 4.44281 55.8359 4.35134 56.241C4.19453 56.9466 4.22067 57.613 4.41668 58.2664C4.62575 58.9067 4.97857 59.4686 5.50125 59.9259L5.51431 59.8998Z" fill="#F8F7E5"/>
<path d="M7.1347 51.5367L12.1133 53.2877C12.1133 53.3792 12.1133 53.4576 12.1133 53.5491C12.1133 53.915 12.1394 54.2416 12.2048 54.5422L12.7274 54.6729L13.0933 53.6275L13.8512 51.4714L14.387 49.9425L13.6813 49.6289C13.5376 49.7596 13.3939 49.9164 13.2371 50.1124C13.0803 50.3084 12.9365 50.5044 12.8058 50.7135C12.7405 50.818 12.6752 50.9226 12.6229 51.0271L9.56519 49.9556C9.56519 49.9556 9.55212 49.9295 9.53905 49.9164C9.31691 49.5636 9.14704 49.2369 9.01637 48.9233C8.88569 48.6097 8.79423 48.2961 8.7289 47.9955L10.506 48.3222L10.9242 47.1331C10.7412 46.9894 10.5322 46.8456 10.2969 46.6888C10.0617 46.532 9.81347 46.3883 9.55212 46.2576C9.29078 46.1269 9.0425 46.0093 8.79423 45.9048C8.54595 45.8003 8.33688 45.7088 8.14087 45.6565C7.86646 45.8264 7.65738 46.0747 7.48751 46.3883C7.33071 46.715 7.25231 47.0678 7.26537 47.4598L8.33688 49.5113L7.22617 49.1193L6.2592 49.6028C6.12852 50.0602 6.02399 50.5306 5.94559 51.014C5.86718 51.4975 5.84105 51.968 5.85412 52.4122L6.59894 52.556L7.12163 51.4975L7.1347 51.5367Z" fill="#F8F7E5"/>
<path d="M17.0917 44.6244C17.3922 44.0233 17.5229 43.4091 17.4967 42.7688C17.4706 42.1285 17.2615 41.5275 16.8826 40.9525C16.5036 40.3775 15.9156 39.9071 15.1447 39.5151C14.3606 39.1231 13.6158 38.9402 12.9232 38.9794C12.2307 39.0186 11.6165 39.2276 11.0808 39.5935C10.545 39.9594 10.1269 40.4429 9.82632 41.044C9.52578 41.6451 9.38204 42.2723 9.40817 42.9256C9.43431 43.579 9.61724 44.2062 9.99619 44.7812C10.3751 45.3692 10.937 45.8527 11.708 46.2316C12.4659 46.6106 13.1976 46.7804 13.9163 46.7282C14.635 46.6759 15.2623 46.4668 15.8111 46.0879C16.3599 45.7089 16.7911 45.2124 17.0917 44.6113V44.6244ZM15.21 44.6113C14.8702 44.7158 14.4782 44.7158 14.047 44.6113C13.6158 44.5198 13.1715 44.363 12.7142 44.1278C12.2699 43.9057 11.8779 43.6574 11.5381 43.3961C11.1984 43.1217 10.9501 42.8472 10.8064 42.5728C10.7802 42.4552 10.7802 42.3246 10.8064 42.1677C10.8325 42.024 10.8848 41.8672 10.9501 41.7365C11.1069 41.4099 11.3682 41.2008 11.708 41.1224C12.0477 41.044 12.4398 41.057 12.884 41.1616C13.3283 41.2661 13.7857 41.436 14.2561 41.6712C14.5305 41.8149 14.818 41.9717 15.0924 42.1547C15.3668 42.3376 15.602 42.5336 15.7849 42.7427C15.9679 42.9518 16.0855 43.1739 16.1247 43.4222C16.0986 43.6051 16.0332 43.775 15.9548 43.9318C15.7849 44.2716 15.5236 44.5068 15.1839 44.5982L15.21 44.6113Z" fill="#F8F7E5"/>
<path d="M10.8065 34.4974L18.4377 39.3584C18.4116 39.4498 18.3854 39.5413 18.3593 39.6458C18.2809 39.9986 18.2286 40.3253 18.2155 40.6389L18.686 40.8872L19.5484 39.5413L19.9665 38.8879L21.1165 37.0847L20.5023 36.6143C20.241 36.7449 19.9535 36.9279 19.6791 37.1761C19.6137 37.2284 19.5745 37.2807 19.5223 37.3199L11.4076 32.1584L10.3883 32.4458C10.1531 32.8509 9.94404 33.2821 9.7611 33.7525C9.57816 34.2099 9.44749 34.6673 9.34295 35.0985L10.0486 35.4251L10.7934 34.4974H10.8065Z" fill="#F8F7E5"/>
<path d="M14.2431 29.4011L21.4431 34.9024C21.417 34.9939 21.3778 35.0854 21.3516 35.1768C21.234 35.5296 21.1687 35.8432 21.1295 36.1569L21.5868 36.4443L22.2794 35.5296L23.0242 34.5627L24.3179 32.8639L23.7429 32.3413C23.4685 32.4458 23.168 32.6026 22.8674 32.8247C22.8021 32.877 22.7629 32.9162 22.6975 32.9554L15.0663 27.1144L14.034 27.3104C13.7596 27.6893 13.5244 28.1075 13.3023 28.5518C13.0801 28.9961 12.9102 29.4273 12.7796 29.8585L13.4591 30.2374L14.2692 29.375L14.2431 29.4011Z" fill="#F8F7E5"/>
<path d="M24.4485 18.2547L26.1081 20.0841C25.8206 20.2409 25.5331 20.4108 25.2718 20.6591C24.8014 21.0772 24.4616 21.5346 24.2395 22.0311C24.0173 22.5277 23.8867 23.0373 23.8736 23.56C23.8605 24.0827 23.952 24.5923 24.1349 25.0888C24.3179 25.5854 24.6053 26.0428 24.9843 26.4478C25.4547 26.9705 26.0035 27.3495 26.6177 27.5977C27.2318 27.846 27.8591 27.9375 28.4994 27.846C29.1266 27.7545 29.7146 27.4671 30.2373 26.9705L30.6946 24.8275C30.9168 24.932 31.1389 25.0104 31.3741 25.0366C31.6355 25.0627 31.8838 25.0627 32.1059 25.0235C32.328 24.9843 32.511 24.8928 32.6416 24.7752L33.3865 22.7498L32.8115 22.3186C32.7201 22.4362 32.6286 22.5408 32.5502 22.6453C32.4718 22.7498 32.3934 22.8282 32.3019 22.9066C32.2104 22.985 32.119 23.0242 32.0275 23.0242C31.923 23.0242 31.8446 22.985 31.7662 22.9066L25.6507 16.1509H24.5923C24.2525 16.4907 23.9389 16.8565 23.6384 17.2486C23.3378 17.6536 23.0896 18.0457 22.8936 18.4377L23.4946 18.9342L24.4485 18.2417V18.2547ZM29.4794 25.2849C29.205 25.5331 28.9044 25.6638 28.5647 25.6769C28.225 25.6899 27.8852 25.6115 27.5324 25.4286C27.1796 25.2457 26.866 24.9974 26.5654 24.6707C26.2387 24.3048 25.9774 23.8997 25.7945 23.4555C25.6115 23.0112 25.5331 22.58 25.5854 22.1618C25.8467 21.8743 26.1473 21.6391 26.4739 21.4823C26.6961 21.3778 26.9182 21.2994 27.1404 21.2471L30.0413 24.4486C30.0413 24.4486 30.0413 24.4747 30.0282 24.4878C29.8583 24.8406 29.6623 25.1019 29.4663 25.2849H29.4794Z" fill="#F8F7E5"/>
<path d="M33.5565 21.6784C34.1968 21.9789 34.8632 22.0965 35.5296 22.0443C36.1961 21.9789 36.8102 21.7568 37.3721 21.3648C37.9209 20.9858 38.3391 20.5154 38.6266 19.9404C38.914 19.3655 39.0316 18.7383 38.9663 18.0588C38.914 17.3793 38.6396 16.6737 38.1431 15.955C37.6465 15.2363 37.0846 14.7136 36.4574 14.413C35.8302 14.1125 35.1899 13.9818 34.5496 14.0472C33.8963 14.1125 33.3082 14.3346 32.7463 14.7136C32.1975 15.0925 31.7663 15.576 31.4658 16.151C31.1652 16.739 31.0346 17.3662 31.0738 18.0588C31.113 18.7513 31.3874 19.457 31.8708 20.1626C32.3543 20.8552 32.9162 21.3648 33.5565 21.6653V21.6784ZM33.06 16.1902C33.1514 16.0726 33.269 15.968 33.3997 15.8766C33.7002 15.6675 34.0269 15.6152 34.3667 15.7067C34.7064 15.7982 35.0462 16.0072 35.3728 16.3078C35.6995 16.6083 36.0262 16.9873 36.3267 17.4185C36.5097 17.6798 36.6665 17.9542 36.8233 18.2548C36.9801 18.5553 37.0846 18.8297 37.15 19.1041C37.2153 19.3786 37.2022 19.6268 37.1238 19.862C37.0062 20.0058 36.8756 20.1234 36.7318 20.2279C36.4182 20.4501 36.0785 20.5154 35.7387 20.437C35.399 20.3586 35.0462 20.1757 34.7195 19.8751C34.3928 19.5876 34.0792 19.2218 33.7917 18.8036C33.5173 18.3985 33.2952 17.9934 33.1253 17.5884C32.9554 17.1833 32.877 16.8305 32.8901 16.5169C32.9293 16.3993 32.9946 16.2947 33.0861 16.1771L33.06 16.1902Z" fill="#F8F7E5"/>
<path d="M37.0192 12.9888L37.9862 12.9888L42.5727 17.7452C42.7818 17.693 43.017 17.6146 43.2784 17.4839C43.5397 17.3532 43.788 17.2356 44.0363 17.0788C44.2845 16.922 44.4806 16.7783 44.6374 16.6215L44.5328 13.8904L46.506 15.8766C46.702 15.8244 46.9241 15.746 47.1855 15.6284C47.4468 15.5108 47.682 15.3801 47.9303 15.2363C48.1786 15.0926 48.3746 14.9358 48.5444 14.779L47.7343 8.21928C47.7343 8.21928 47.8388 8.10168 47.8911 8.04941C48.0348 7.87954 48.1655 7.6966 48.2962 7.52673L47.9564 6.91257L47.1985 7.26539L45.4083 8.11475L44.5459 8.51983L44.8856 9.26466H45.735L47.0156 13.6814L46.8849 13.7467L45.9963 12.4922L43.0824 9.2908L41.1092 10.4668L43.1216 12.4922L43.3437 15.4324L43.2 15.4977L42.2461 14.2432L40.0377 11.7997C40.0377 11.7997 40.0639 11.7736 40.0769 11.7474C40.2207 11.5775 40.3644 11.3946 40.4951 11.2247L40.1292 10.6106L39.306 11.0026L38.2998 11.473L36.6795 12.244L37.0192 12.9888Z" fill="#F8F7E5"/>
<path d="M50.9227 7.26532L52.2947 12.3615C52.2163 12.4138 52.151 12.4399 52.0726 12.4922C51.7721 12.7013 51.5238 12.9103 51.3147 13.1325L51.4976 13.629L53.0396 13.2109L54.7644 12.7405L55.6138 12.5183L55.4701 11.7604C55.1826 11.669 54.882 11.6167 54.5423 11.6036C54.5162 11.6036 54.49 11.6036 54.4508 11.6036L53.327 7.43519C53.51 7.23918 53.6929 7.05624 53.8889 6.9125C54.1241 6.72956 54.3463 6.59889 54.5554 6.54662C54.869 6.45515 55.1434 6.49436 55.3917 6.69036C55.6399 6.88637 55.8359 7.23919 55.9666 7.74881L56.8944 11.1855C56.5938 11.3945 56.3456 11.6036 56.1365 11.8258L56.3194 12.3223L57.3909 12.0348L58.2926 11.7866L60.3833 11.2247L60.2396 10.4668C59.9521 10.3753 59.6123 10.3361 59.2203 10.323C59.155 10.323 59.1027 10.323 59.0374 10.323L58.1358 6.99091C58.0312 6.58583 57.9267 6.27222 57.8483 6.02394C57.7699 5.78874 57.6915 5.60579 57.6261 5.46206C57.5608 5.33138 57.4955 5.22684 57.4171 5.16151C57.208 4.9655 56.9858 4.82176 56.7245 4.73029C56.4632 4.63882 56.2149 4.58655 55.9535 4.56042C55.6922 4.53429 55.4701 4.56042 55.261 4.59962C54.9866 4.75642 54.673 4.99164 54.3332 5.30525C53.9935 5.61886 53.6407 5.98474 53.2878 6.41595C53.2225 6.49436 53.1572 6.5989 53.0918 6.6773L52.9089 5.97167L51.955 5.43592C51.5107 5.57966 51.0534 5.7626 50.6091 5.97167C50.1648 6.19382 49.7597 6.42902 49.3938 6.69036L49.6944 7.38292L50.8704 7.21305L50.9227 7.26532Z" fill="#F8F7E5"/>
<path d="M67.2566 10.8327C67.4657 10.9503 67.6356 11.0287 67.8055 11.0809C68.0276 10.9111 68.2236 10.6628 68.4196 10.3753C68.6156 10.0748 68.7463 9.78728 68.8247 9.52594C68.7202 9.39527 68.5764 9.2646 68.4196 9.12086C68.2498 8.97712 68.0668 8.85952 67.8708 8.72885C67.6748 8.59818 67.4788 8.51977 67.2958 8.48057C67.0868 8.62431 66.8908 8.84646 66.6948 9.147C66.4988 9.44754 66.3419 9.74808 66.2243 10.0486C66.3419 10.1924 66.4988 10.323 66.6817 10.4537C66.8646 10.5844 67.0606 10.715 67.2697 10.8327H67.2566Z" fill="#F8F7E5"/>
<path d="M76.3515 10.6628C76.8088 10.7804 77.2139 10.8458 77.5929 10.885C78.2854 10.9503 78.9388 10.885 79.5529 10.702C80.154 10.5191 80.6636 10.2055 81.0557 9.76118C81.4477 9.3169 81.6829 8.76808 81.7482 8.10166C81.8005 7.47444 81.709 6.95175 81.4607 6.52054C81.2125 6.08932 80.8727 5.71037 80.4546 5.39676C80.0364 5.08315 79.5921 4.79567 79.1348 4.53432C78.7166 4.28605 78.3377 4.05084 77.9849 3.84177C77.6321 3.63269 77.3576 3.39749 77.1616 3.17535C76.9526 2.94014 76.8742 2.67879 76.9003 2.36518C76.9264 2.14304 77.0048 1.90783 77.1486 1.68569C77.2923 1.46354 77.4883 1.29367 77.7366 1.17607C78.3377 1.21527 78.9257 1.34595 79.4745 1.58116C79.6183 1.63342 79.7359 1.73796 79.8665 1.81637L80.154 3.60656L81.4085 3.72417C81.513 3.41056 81.5914 3.08388 81.6567 2.74413C81.7221 2.40439 81.7743 2.06464 81.8266 1.75103C81.8658 1.42435 81.905 1.13687 81.9312 0.888598C81.6829 0.757927 81.3823 0.640314 81.0557 0.52271C80.729 0.405106 80.3762 0.313642 79.9972 0.222172C79.6183 0.130701 79.2524 0.078433 78.8865 0.0392323C78.1417 -0.026104 77.4491 0.0392342 76.8088 0.235241C76.1685 0.431249 75.6589 0.744852 75.2669 1.17607C74.8749 1.60728 74.6397 2.12998 74.5874 2.7572C74.5351 3.34522 74.6397 3.85484 74.901 4.28606C75.1624 4.7042 75.5021 5.07008 75.9203 5.38369C76.3384 5.6973 76.7696 5.98478 77.2008 6.24613C77.6321 6.4944 78.011 6.72961 78.3377 6.93868C78.6644 7.14776 78.9257 7.38297 79.0956 7.63124C79.2785 7.87952 79.3569 8.167 79.3308 8.48061C79.3047 8.71582 79.2263 8.93796 79.0694 9.17317C78.9126 9.40837 78.6774 9.59131 78.3638 9.72198C77.9457 9.68278 77.5145 9.60438 77.0702 9.46064C76.7566 9.36917 76.456 9.22544 76.1685 9.05557L75.6067 6.80801L74.4829 6.70348C74.3914 6.99095 74.313 7.31763 74.2346 7.68351C74.1562 8.04939 74.0909 8.41527 74.0517 8.75502C74.0125 9.09476 73.9863 9.36917 73.9733 9.57824C74.2738 9.82652 74.6397 10.0356 75.0578 10.2316C75.476 10.4145 75.9072 10.5583 76.3646 10.6759L76.3515 10.6628Z" fill="#F8F7E5"/>
<path d="M83.7344 10.7021C84.0349 11.1333 84.4269 11.4861 84.9104 11.7605C85.3939 12.0349 85.9297 12.2048 86.5438 12.2571L88.9743 11.6168L88.8306 10.7805C88.5039 10.8458 88.1903 10.885 87.9028 10.8981C87.6153 10.8981 87.3409 10.885 87.0796 10.8328C86.5961 10.7282 86.2171 10.5192 85.9297 10.2055C85.6422 9.89193 85.4593 9.51298 85.3808 9.05563C85.3024 8.59828 85.3155 8.1148 85.4331 7.59211C85.5246 7.20009 85.6683 6.82115 85.8905 6.42913C86.1126 6.03712 86.4001 5.71044 86.766 5.4491C87.0926 5.65817 87.3932 5.91951 87.6415 6.25925C87.9028 6.599 88.125 6.99102 88.3079 7.4353L90.2288 6.66434C90.1504 6.24619 89.9936 5.89338 89.7714 5.57977C89.5362 5.26616 89.2618 5.01788 88.922 4.80881C88.5823 4.59974 88.2164 4.45599 87.8113 4.36452C87.1057 4.20772 86.4393 4.23386 85.7859 4.42986C85.1326 4.62587 84.5838 4.99174 84.1264 5.51443C83.6691 6.03711 83.3424 6.69047 83.1725 7.48757C83.0418 8.10173 83.0157 8.67668 83.1202 9.2255C83.2248 9.77432 83.4208 10.2578 83.7344 10.7021Z" fill="#F8F7E5"/>
<path d="M90.4507 12.087C90.0848 12.087 89.7581 12.1132 89.4576 12.1785L89.3269 12.7012L90.3723 13.0671L91.9796 13.629L92.4369 13.7858L92.5284 13.825L94.0572 14.3607L94.3708 13.6551C94.2402 13.5114 94.0834 13.3676 93.8874 13.2108C93.6914 13.054 93.4953 12.9103 93.2863 12.7796C93.1687 12.7143 93.0772 12.6489 92.9727 12.5967L94.0442 9.53894C94.0442 9.53894 94.0703 9.52587 94.0834 9.51281C94.4362 9.29067 94.7629 9.12079 95.0765 8.99012C95.3901 8.85945 95.7037 8.76798 96.0042 8.70264L95.6776 10.4798L96.8667 10.8979C97.0104 10.715 97.1541 10.5059 97.311 10.2707C97.4678 10.0355 97.6115 9.78721 97.7422 9.52587C97.8728 9.26452 97.9904 9.01626 98.095 8.76798C98.1995 8.5197 98.291 8.31063 98.3433 8.11462C98.1734 7.84021 97.9251 7.63114 97.6115 7.46127C97.2979 7.30446 96.932 7.22605 96.54 7.23912L94.4885 8.31063L94.8805 7.19992L94.397 6.23295C93.9527 6.10228 93.4823 5.99775 92.9857 5.91934C92.5022 5.84094 92.0318 5.81481 91.5875 5.82787L91.4438 6.5727L92.5022 7.09539L90.7512 12.074C90.6598 12.074 90.5944 12.074 90.4899 12.074L90.4507 12.087Z" fill="#F8F7E5"/>
<path d="M97.2717 13.9034C97.324 14.6221 97.5331 15.2493 97.912 15.7981C98.291 16.347 98.7875 16.7782 99.3886 17.0787C99.9897 17.3793 100.604 17.5099 101.244 17.4838C101.884 17.4577 102.486 17.2486 103.06 16.8696C103.635 16.4907 104.106 15.9027 104.498 15.1317C104.89 14.3477 105.073 13.6029 105.034 12.9103C104.994 12.2177 104.785 11.6036 104.419 11.0678C104.054 10.5321 103.57 10.1139 102.969 9.81338C102.368 9.51284 101.741 9.3691 101.087 9.39523C100.434 9.4083 99.8068 9.60431 99.2318 9.98326C98.6438 10.3622 98.1603 10.9241 97.7814 11.6951C97.4024 12.4529 97.2325 13.1847 97.2848 13.9034H97.2717ZM99.3886 14.0471C99.4801 13.6159 99.6369 13.1716 99.8721 12.7143C100.094 12.27 100.343 11.878 100.604 11.5382C100.878 11.1985 101.153 10.9502 101.427 10.8065C101.545 10.7804 101.675 10.7804 101.832 10.8065C101.976 10.8326 102.133 10.8849 102.263 10.9502C102.59 11.107 102.799 11.3684 102.878 11.7081C102.956 12.0479 102.943 12.4399 102.838 12.8842C102.734 13.3285 102.564 13.7858 102.329 14.2562C102.185 14.5306 102.028 14.8181 101.845 15.0925C101.662 15.3669 101.466 15.6021 101.257 15.7851C101.048 15.968 100.826 16.0856 100.578 16.1248C100.395 16.0987 100.225 16.0334 100.068 15.9549C99.7153 15.7851 99.4931 15.5237 99.4017 15.184C99.2971 14.8442 99.2971 14.4522 99.4017 14.021L99.3886 14.0471Z" fill="#F8F7E5"/>
<path d="M104.642 18.4378C104.55 18.4117 104.459 18.3855 104.354 18.3594C104.002 18.281 103.675 18.2287 103.361 18.2157L103.113 18.6861L104.459 19.5485L105.112 19.9667L106.915 21.1166L107.386 20.5024C107.255 20.2411 107.072 19.9536 106.824 19.6792C106.772 19.6139 106.719 19.5747 106.68 19.5224L111.842 11.4077L111.554 10.3884C111.149 10.1532 110.718 9.94416 110.248 9.76122C109.79 9.57828 109.333 9.44761 108.902 9.34307L108.588 10.0487L109.516 10.7935L104.655 18.4247L104.642 18.4378Z" fill="#F8F7E5"/>
<path d="M109.111 21.4302C109.019 21.404 108.928 21.3648 108.836 21.3387C108.483 21.2211 108.17 21.1557 107.856 21.1165L107.569 21.5739L108.483 22.2664L109.45 23.0113L111.149 24.3049L111.672 23.73C111.567 23.4556 111.41 23.155 111.188 22.8545C111.136 22.7891 111.097 22.7499 111.058 22.6846L116.899 15.0534L116.703 14.0211C116.311 13.7467 115.906 13.5115 115.461 13.2893C115.017 13.0672 114.586 12.8973 114.155 12.7666L113.776 13.4461L114.638 14.2563L109.137 21.4563L109.111 21.4302Z" fill="#F8F7E5"/>
<path d="M116.154 28.4734C116.245 29.1006 116.533 29.6886 117.029 30.2113L119.159 30.6686C119.055 30.8908 118.976 31.1129 118.95 31.3481C118.924 31.6095 118.924 31.8577 118.963 32.0799C119.003 32.302 119.094 32.485 119.212 32.6156L121.237 33.3605L121.668 32.7855C121.551 32.694 121.446 32.6026 121.342 32.5242C121.237 32.4458 121.159 32.3674 121.08 32.2759C121.002 32.1844 120.963 32.093 120.963 32.0015C120.963 31.897 121.002 31.8185 121.08 31.7401L127.836 25.6247V24.5663C127.496 24.2265 127.13 23.9129 126.738 23.6124C126.346 23.3118 125.941 23.0636 125.549 22.8676L125.053 23.4686L125.745 24.4225L123.916 26.0821C123.759 25.7946 123.589 25.5071 123.341 25.2458C122.923 24.7754 122.465 24.4356 121.969 24.2135C121.472 23.9913 120.963 23.8607 120.44 23.8476C119.917 23.8345 119.408 23.926 118.911 24.1089C118.415 24.2919 117.957 24.5793 117.552 24.9583C117.029 25.4287 116.65 25.9775 116.389 26.5917C116.141 27.2058 116.049 27.8331 116.141 28.4734H116.154ZM118.571 27.5325C118.754 27.1797 119.003 26.8661 119.329 26.5655C119.695 26.2389 120.1 25.9775 120.544 25.7946C120.989 25.6117 121.42 25.5332 121.838 25.5855C122.126 25.8469 122.361 26.1474 122.518 26.4741C122.622 26.6962 122.701 26.9184 122.753 27.1405L119.551 30.0414C119.551 30.0414 119.525 30.0414 119.512 30.0283C119.159 29.8585 118.898 29.6625 118.715 29.4665C118.467 29.192 118.336 28.8915 118.323 28.5518C118.31 28.212 118.388 27.8723 118.571 27.5195V27.5325Z" fill="#F8F7E5"/>
<path d="M123.837 31.8577C123.145 32.3411 122.635 32.903 122.335 33.5433C122.034 34.1836 121.904 34.85 121.969 35.5165C122.034 36.1829 122.256 36.797 122.648 37.3589C123.027 37.9078 123.498 38.3259 124.073 38.6134C124.648 38.9009 125.275 39.0185 125.954 38.9531C126.634 38.9009 127.339 38.6265 128.058 38.1299C128.777 37.6333 129.3 37.0715 129.6 36.4442C129.901 35.817 130.031 35.1767 129.966 34.5364C129.901 33.8831 129.678 33.295 129.3 32.7332C128.921 32.1843 128.437 31.7531 127.862 31.4526C127.287 31.152 126.647 31.0214 125.954 31.0606C125.262 31.0998 124.556 31.3742 123.851 31.8577H123.837ZM127.47 32.8638C127.588 32.903 127.705 32.9684 127.823 33.0598C127.941 33.1513 128.045 33.2689 128.137 33.3996C128.346 33.7001 128.398 34.0268 128.306 34.3666C128.215 34.7063 128.006 35.0461 127.705 35.3727C127.405 35.7125 127.026 36.0261 126.595 36.3266C126.333 36.5096 126.059 36.6664 125.758 36.8232C125.458 36.98 125.183 37.0845 124.909 37.1499C124.635 37.2152 124.386 37.2021 124.151 37.1237C124.007 37.0061 123.89 36.8755 123.785 36.7317C123.563 36.4181 123.498 36.0784 123.576 35.7386C123.655 35.3989 123.837 35.0591 124.138 34.7194C124.425 34.3927 124.791 34.0791 125.21 33.7916C125.615 33.5172 126.02 33.2951 126.425 33.1252C126.83 32.9553 127.183 32.8769 127.496 32.89L127.47 32.8638Z" fill="#F8F7E5"/>
<path d="M126.255 42.5598C126.307 42.7689 126.386 43.0041 126.516 43.2654C126.647 43.5268 126.764 43.775 126.921 44.0233C127.078 44.2716 127.222 44.4676 127.379 44.6244L130.11 44.5199L128.123 46.493C128.176 46.689 128.254 46.9112 128.372 47.1725C128.489 47.4208 128.62 47.6691 128.764 47.9173C128.907 48.1656 129.064 48.3616 129.234 48.5315L135.794 47.7213C135.794 47.7213 135.911 47.8259 135.964 47.8781C136.134 48.0219 136.303 48.1525 136.486 48.2832L137.101 47.9435L136.931 47.5907L136.735 47.1856L136.369 46.4277L136.225 46.1271L135.48 44.5591L134.735 44.8988V45.7482L130.319 47.0288L130.253 46.8981L131.508 46.0095L134.709 43.0956L133.533 41.1224L131.521 43.1348L128.581 43.3569L128.515 43.2132L129.757 42.2593L132.2 40.0509C132.2 40.0509 132.227 40.0771 132.253 40.0901C132.423 40.2339 132.605 40.3776 132.775 40.5083L133.39 40.1424L132.997 39.3192V39.293L131.769 36.7057L131.024 37.0455V38.0124L126.268 42.599L126.255 42.5598Z" fill="#F8F7E5"/>
<path d="M136.735 50.9096L131.638 52.2817C131.586 52.2033 131.56 52.1379 131.508 52.0595C131.299 51.759 131.09 51.5107 130.867 51.3016L130.371 51.4846L130.658 52.543L131.26 54.7514L131.482 55.6007L132.24 55.457C132.331 55.1695 132.383 54.869 132.409 54.5292C132.409 54.5031 132.409 54.477 132.409 54.4378L136.578 53.314C136.774 53.4969 136.957 53.6799 137.101 53.8759C137.283 54.1111 137.414 54.3332 137.466 54.5423C137.558 54.8559 137.506 55.1303 137.323 55.3786C137.14 55.6269 136.774 55.8229 136.264 55.9535L132.828 56.8813C132.618 56.5808 132.409 56.3325 132.187 56.1234L131.691 56.3064L132.109 57.8483L132.226 58.2795L132.788 60.3702L133.546 60.2265C133.638 59.939 133.677 59.6123 133.69 59.2073C133.69 59.1419 133.69 59.0897 133.69 59.0243L137.022 58.1227C137.427 58.0182 137.741 57.9136 137.989 57.8352C138.237 57.7568 138.407 57.6784 138.551 57.6261C138.682 57.5608 138.786 57.4955 138.852 57.4171C139.048 57.208 139.191 56.9858 139.283 56.7245C139.374 56.4632 139.426 56.2149 139.453 55.9535C139.466 55.7053 139.453 55.4701 139.413 55.261C139.257 54.9866 139.021 54.673 138.708 54.3332C138.394 53.9935 138.028 53.6407 137.597 53.2878C137.519 53.2225 137.414 53.1572 137.336 53.0918L138.041 52.9089L138.577 51.955C138.433 51.5107 138.25 51.0534 138.041 50.6091C137.819 50.1648 137.584 49.7597 137.323 49.3938L136.63 49.6944L136.8 50.8704L136.735 50.9096Z" fill="#F8F7E5"/>
<path d="M133.638 68.4326C133.938 68.6286 134.226 68.7592 134.487 68.8376C134.618 68.7331 134.748 68.6024 134.892 68.4326C135.036 68.2627 135.154 68.0798 135.284 67.8837C135.402 67.6877 135.493 67.4917 135.532 67.3088C135.389 67.0997 135.167 66.9037 134.866 66.7077C134.566 66.5117 134.265 66.3549 133.964 66.2242C133.834 66.3418 133.69 66.4986 133.559 66.6816C133.429 66.8645 133.298 67.0605 133.18 67.2696C133.063 67.4787 132.984 67.6616 132.932 67.8184C133.102 68.0406 133.337 68.2366 133.638 68.4326Z" fill="#F8F7E5"/>
<path d="M138.643 75.9724C138.329 76.3905 138.041 76.8217 137.78 77.253C137.532 77.6842 137.297 78.0631 137.088 78.3898C136.878 78.7165 136.643 78.9778 136.395 79.1477C136.147 79.3306 135.859 79.409 135.546 79.3829C135.31 79.3568 135.088 79.2784 134.853 79.1216C134.618 78.9648 134.435 78.7296 134.304 78.4159C134.343 77.9978 134.422 77.5666 134.566 77.1223C134.657 76.8087 134.801 76.5081 134.971 76.2207L137.218 75.6588L137.323 74.535C137.035 74.4435 136.709 74.3651 136.343 74.2867C135.977 74.2083 135.611 74.143 135.271 74.1038C134.931 74.0646 134.657 74.0384 134.448 74.0254C134.2 74.3259 133.978 74.6918 133.795 75.11C133.612 75.5281 133.455 75.9593 133.35 76.4167C133.233 76.874 133.167 77.2791 133.128 77.658C133.063 78.3506 133.128 79.004 133.311 79.6051C133.494 80.2061 133.808 80.7158 134.239 81.1208C134.67 81.5259 135.232 81.7481 135.898 81.8134C136.526 81.8657 137.048 81.7742 137.48 81.5259C137.911 81.2776 138.29 80.9379 138.603 80.5197C138.917 80.1016 139.204 79.6573 139.466 79.2C139.714 78.7818 139.949 78.4029 140.158 78.0501C140.367 77.6972 140.603 77.4228 140.838 77.2268C141.073 77.0308 141.334 76.9394 141.648 76.9655C141.87 76.9916 142.105 77.07 142.327 77.2138C142.55 77.3575 142.719 77.5535 142.837 77.8018C142.798 78.4029 142.667 78.9909 142.432 79.5397C142.367 79.6835 142.275 79.8011 142.197 79.9317L140.407 80.2192L140.289 81.4737C140.603 81.5782 140.929 81.6566 141.269 81.7219C141.609 81.7873 141.948 81.8526 142.275 81.8918C142.602 81.931 142.889 81.9702 143.138 81.9963C143.268 81.7481 143.386 81.4606 143.503 81.1208C143.621 80.7942 143.713 80.4413 143.804 80.0624C143.896 79.6835 143.948 79.3176 143.987 78.9517C144.052 78.2069 143.987 77.5143 143.791 76.874C143.595 76.2337 143.281 75.7241 142.85 75.3321C142.419 74.9401 141.896 74.7049 141.269 74.6526C140.681 74.6003 140.171 74.7049 139.74 74.9662C139.309 75.2276 138.956 75.5673 138.643 75.9855V75.9724Z" fill="#F8F7E5"/>
<path d="M138.486 84.1263C137.963 83.6689 137.31 83.3423 136.513 83.1724C135.898 83.0417 135.323 83.0156 134.775 83.1201C134.226 83.2246 133.742 83.4207 133.298 83.7343C132.854 84.0479 132.514 84.4268 132.24 84.9103C131.965 85.3938 131.795 85.9295 131.743 86.5437L132.383 88.9742L133.22 88.8305C133.154 88.5038 133.115 88.1902 133.102 87.9027C133.102 87.6152 133.115 87.3408 133.167 87.0795C133.272 86.596 133.481 86.217 133.795 85.9295C134.108 85.6421 134.487 85.4591 134.931 85.3807C135.389 85.3023 135.872 85.3154 136.395 85.433C136.787 85.5245 137.166 85.6682 137.558 85.8903C137.937 86.0994 138.277 86.4 138.538 86.7658C138.342 87.0925 138.068 87.3931 137.728 87.6413C137.388 87.9027 136.996 88.1248 136.552 88.3078L137.323 90.2286C137.741 90.1502 138.094 89.9934 138.407 89.7582C138.721 89.523 138.969 89.2486 139.178 88.9089C139.387 88.5691 139.531 88.2032 139.623 87.7982C139.779 87.0925 139.753 86.4261 139.557 85.7727C139.361 85.1194 138.995 84.5706 138.473 84.1132L138.486 84.1263Z" fill="#F8F7E5"/>
<path d="M136.878 92.4632L131.9 90.7122C131.9 90.6207 131.9 90.5554 131.9 90.4508C131.9 90.085 131.874 89.7583 131.808 89.4577L131.286 89.3271L130.92 90.3724L130.763 90.8298L130.358 91.9797L129.626 94.0443L130.332 94.3579C130.475 94.2272 130.619 94.0704 130.776 93.8744C130.933 93.6784 131.077 93.4824 131.207 93.2733C131.273 93.1557 131.338 93.0643 131.39 92.9597L134.448 94.0312C134.448 94.0312 134.461 94.0574 134.474 94.0704C134.696 94.4232 134.866 94.7499 134.997 95.0635C135.127 95.3771 135.219 95.6908 135.284 95.9913L133.507 95.6646L133.089 96.8537C133.272 96.9975 133.481 97.1412 133.716 97.298C133.951 97.4548 134.2 97.5986 134.461 97.7292C134.722 97.8599 134.971 97.9775 135.219 98.082C135.467 98.1866 135.676 98.2781 135.872 98.3303C136.147 98.1604 136.356 97.9122 136.526 97.5986C136.682 97.285 136.761 96.9191 136.748 96.5271L135.676 94.4755L136.787 94.8675L137.754 94.384C137.884 93.9398 137.989 93.4693 138.067 92.9728C138.146 92.4893 138.172 92.0189 138.159 91.5746L137.414 91.4309L136.891 92.4893L136.878 92.4632Z" fill="#F8F7E5"/>
<path d="M128.868 104.485C129.652 104.877 130.397 105.06 131.09 105.021C131.782 104.981 132.396 104.772 132.932 104.407C133.468 104.041 133.886 103.557 134.186 102.956C134.487 102.355 134.631 101.728 134.605 101.074C134.592 100.421 134.396 99.7938 134.017 99.2189C133.638 98.6439 133.076 98.1474 132.305 97.7684C131.547 97.3895 130.815 97.2196 130.096 97.2719C129.378 97.3241 128.751 97.5332 128.202 97.9122C127.653 98.2911 127.222 98.7877 126.921 99.3887C126.621 99.9898 126.49 100.604 126.516 101.244C126.542 101.885 126.751 102.486 127.13 103.061C127.509 103.636 128.084 104.106 128.868 104.498V104.485ZM128.019 100.055C128.189 99.7023 128.45 99.4802 128.79 99.3887C129.13 99.2842 129.522 99.2842 129.953 99.3887C130.384 99.4933 130.828 99.637 131.286 99.8722C131.73 100.094 132.122 100.343 132.462 100.604C132.801 100.878 133.05 101.153 133.193 101.427C133.22 101.545 133.22 101.675 133.193 101.832C133.167 101.976 133.115 102.133 133.05 102.264C132.893 102.59 132.632 102.799 132.292 102.878C131.952 102.956 131.56 102.943 131.116 102.838C130.671 102.734 130.214 102.564 129.744 102.329C129.469 102.185 129.182 102.028 128.907 101.845C128.633 101.662 128.398 101.466 128.215 101.257C128.032 101.048 127.914 100.826 127.875 100.578C127.901 100.395 127.967 100.225 128.045 100.068L128.019 100.055Z" fill="#F8F7E5"/>
<path d="M133.18 109.542L125.549 104.668C125.575 104.576 125.601 104.485 125.628 104.38C125.706 104.028 125.758 103.701 125.771 103.387L125.301 103.139L124.687 104.106L123.458 106.04L122.883 106.942L123.498 107.412C123.759 107.281 124.046 107.098 124.334 106.85C124.399 106.798 124.438 106.746 124.491 106.706L132.592 111.881L133.612 111.594C133.847 111.188 134.056 110.757 134.239 110.287C134.422 109.829 134.552 109.372 134.657 108.941L133.951 108.614L133.207 109.542H133.18Z" fill="#F8F7E5"/>
<path d="M129.77 114.599L122.57 109.098C122.596 109.006 122.635 108.915 122.674 108.823C122.792 108.47 122.857 108.157 122.896 107.843L122.439 107.556L121.747 108.47L120.361 110.287L119.708 111.136L120.283 111.659C120.557 111.554 120.858 111.397 121.158 111.175C121.224 111.123 121.263 111.084 121.328 111.045L128.96 116.886L129.992 116.69C130.266 116.298 130.502 115.893 130.724 115.448C130.946 115.004 131.116 114.573 131.246 114.142L130.567 113.763L129.757 114.625L129.77 114.599Z" fill="#F8F7E5"/>
<path d="M119.525 125.771L117.866 123.942C118.153 123.785 118.441 123.615 118.702 123.367C119.173 122.949 119.512 122.491 119.747 121.995C119.97 121.498 120.1 120.989 120.113 120.466C120.126 119.943 120.035 119.434 119.852 118.937C119.656 118.441 119.382 117.983 119.016 117.578C118.545 117.056 118.01 116.677 117.382 116.415C116.768 116.167 116.141 116.075 115.514 116.167C114.886 116.258 114.298 116.546 113.776 117.029L113.318 119.172C113.096 119.068 112.874 118.989 112.639 118.963C112.378 118.937 112.129 118.937 111.907 118.976C111.685 119.016 111.502 119.107 111.371 119.225L110.627 121.25L111.202 121.681C111.293 121.564 111.384 121.459 111.463 121.355C111.541 121.25 111.62 121.172 111.711 121.093C111.803 121.015 111.894 120.976 111.986 120.976C112.09 120.976 112.169 121.015 112.234 121.093L118.349 127.849H119.408C119.747 127.509 120.061 127.143 120.362 126.751C120.662 126.359 120.91 125.954 121.106 125.562L120.505 125.066L119.551 125.758L119.525 125.771ZM114.494 118.741C114.769 118.493 115.069 118.362 115.409 118.349C115.749 118.336 116.089 118.415 116.441 118.597C116.794 118.78 117.108 119.029 117.408 119.355C117.735 119.721 117.996 120.126 118.179 120.571C118.362 121.015 118.441 121.446 118.388 121.864C118.127 122.152 117.827 122.387 117.5 122.544C117.278 122.648 117.056 122.727 116.833 122.779L113.933 119.564C113.933 119.564 113.933 119.538 113.946 119.525C114.116 119.172 114.312 118.911 114.508 118.728L114.494 118.741Z" fill="#F8F7E5"/>
<path d="M110.417 122.348C109.777 122.047 109.111 121.916 108.444 121.982C107.778 122.047 107.164 122.269 106.602 122.648C106.053 123.027 105.635 123.498 105.347 124.073C105.06 124.648 104.942 125.275 105.008 125.954C105.06 126.634 105.334 127.339 105.831 128.058C106.327 128.777 106.889 129.299 107.517 129.6C108.144 129.901 108.784 130.031 109.424 129.966C110.078 129.901 110.666 129.678 111.228 129.299C111.776 128.92 112.208 128.437 112.508 127.862C112.809 127.274 112.939 126.647 112.9 125.954C112.861 125.262 112.587 124.556 112.103 123.85C111.62 123.158 111.058 122.648 110.417 122.348ZM110.901 127.836C110.809 127.954 110.692 128.058 110.561 128.15C110.261 128.359 109.934 128.411 109.594 128.319C109.254 128.228 108.915 128.019 108.588 127.718C108.261 127.418 107.935 127.039 107.634 126.608C107.451 126.346 107.294 126.072 107.138 125.771C106.981 125.471 106.876 125.196 106.811 124.922C106.746 124.648 106.759 124.399 106.837 124.164C106.955 124.02 107.085 123.903 107.229 123.798C107.543 123.576 107.882 123.511 108.222 123.589C108.562 123.667 108.902 123.85 109.241 124.151C109.581 124.452 109.882 124.804 110.169 125.222C110.444 125.628 110.666 126.033 110.836 126.438C111.005 126.843 111.084 127.196 111.071 127.509C111.032 127.627 110.966 127.744 110.875 127.862L110.901 127.836Z" fill="#F8F7E5"/>
<path d="M107.281 131.782L106.942 131.037H105.975L101.401 126.281C101.192 126.333 100.957 126.412 100.695 126.529C100.434 126.647 100.186 126.778 99.9375 126.934C99.6892 127.078 99.4932 127.235 99.3364 127.392L99.441 130.123L97.4678 128.137C97.2718 128.189 97.0497 128.267 96.7883 128.385C96.527 128.502 96.2918 128.633 96.0435 128.777C95.7952 128.921 95.5992 129.077 95.4293 129.234L96.2264 135.807C96.2264 135.807 96.1219 135.925 96.0696 135.977C95.9259 136.147 95.7952 136.317 95.6646 136.499L96.0043 137.114L97.8337 136.251L98.5393 135.911L99.4018 135.506L99.062 134.762H98.2126L96.9451 130.345L97.0758 130.28L97.9644 131.534L100.865 134.735L102.838 133.559L100.826 131.534L100.604 128.594L100.748 128.529L101.702 129.783L103.91 132.227C103.91 132.227 103.884 132.253 103.871 132.279C103.727 132.449 103.583 132.632 103.453 132.801L103.805 133.416L104.629 133.024L104.851 132.919L107.255 131.782H107.281Z" fill="#F8F7E5"/>
<path d="M93.0643 136.735L91.6922 131.625C91.7707 131.573 91.8229 131.547 91.9144 131.495C92.2149 131.286 92.4632 131.077 92.6723 130.854L92.4893 130.358L90.9474 130.776L89.4055 131.194L88.3732 131.469L88.5169 132.226C88.8044 132.318 89.105 132.37 89.4447 132.396C89.4708 132.396 89.51 132.396 89.5362 132.396L90.6599 136.565C90.477 136.761 90.2941 136.944 90.0981 137.087C89.8628 137.27 89.6407 137.401 89.4316 137.453C89.118 137.545 88.8436 137.493 88.5953 137.31C88.3471 137.114 88.151 136.761 88.0204 136.251L87.0926 132.815C87.3932 132.605 87.6414 132.396 87.8505 132.174L87.6676 131.678L86.1256 132.096L84.6229 132.501L83.6037 132.775L83.7474 133.533C84.0349 133.625 84.3616 133.664 84.7536 133.677C84.8189 133.677 84.8712 133.677 84.9365 133.677L85.8251 137.009C85.9296 137.414 86.0342 137.728 86.1126 137.976C86.191 138.211 86.2694 138.394 86.3216 138.538C86.387 138.669 86.4523 138.773 86.5307 138.838C86.7398 139.034 86.9619 139.178 87.2233 139.27C87.4846 139.361 87.7329 139.413 87.9942 139.44C88.2425 139.453 88.4777 139.44 88.6868 139.4C88.9743 139.244 89.2748 139.008 89.6146 138.695C89.9543 138.381 90.3071 138.015 90.6599 137.584C90.7253 137.506 90.7906 137.401 90.856 137.323L91.0389 138.028L91.9928 138.564C92.4371 138.42 92.8944 138.237 93.3387 138.028C93.783 137.806 94.1881 137.571 94.554 137.31L94.2534 136.617L93.0774 136.787L93.0643 136.735Z" fill="#F8F7E5"/>
<path d="M76.7043 133.167C76.4952 133.05 76.3123 132.971 76.1554 132.919C75.9333 133.089 75.7373 133.324 75.5413 133.625C75.3453 133.925 75.2146 134.213 75.1362 134.474C75.2407 134.605 75.3845 134.735 75.5413 134.879C75.7112 135.023 75.8941 135.14 76.0901 135.271C76.2861 135.389 76.4821 135.48 76.6651 135.519C76.8741 135.376 77.0701 135.154 77.2662 134.853C77.4622 134.552 77.619 134.252 77.7366 133.951C77.619 133.821 77.4622 133.677 77.2792 133.546C77.0963 133.416 76.8872 133.285 76.6912 133.167H76.7043Z" fill="#F8F7E5"/>
</g>
<path d="M74.2856 51.5C74.2856 50.3954 73.3902 49.5 72.2856 49.5C71.1811 49.5 70.2856 50.3954 70.2856 51.5H74.2856ZM70.8714 92.9142C71.6525 93.6953 72.9188 93.6953 73.6999 92.9142L86.4278 80.1863C87.2088 79.4052 87.2088 78.1389 86.4278 77.3579C85.6467 76.5768 84.3804 76.5768 83.5994 77.3579L72.2856 88.6716L60.9719 77.3579C60.1909 76.5768 58.9246 76.5768 58.1435 77.3579C57.3625 78.1389 57.3625 79.4052 58.1435 80.1863L70.8714 92.9142ZM72.2856 51.5H70.2856V91.5H72.2856H74.2856V51.5H72.2856Z" fill="#F8F7E5"/>
<defs>
<clipPath id="clip0_3_3353">
<rect width="88" height="88" fill="white" transform="matrix(-1 0 0 -1 116 116)"/>
</clipPath>
<clipPath id="clip1_3_3353">
<rect width="144" height="144" fill="white" transform="matrix(-1 0 0 -1 144 144)"/>
</clipPath>
</defs>
</svg>
