<svg width="32" height="32" viewBox="0 0 32 32" fill="none" xmlns="http://www.w3.org/2000/svg">
<mask id="mask0_2_1616" style="mask-type:alpha" maskUnits="userSpaceOnUse" x="0" y="0" width="32" height="32">
<rect width="32" height="32" fill="#D9D9D9"/>
</mask>
<g mask="url(#mask0_2_1616)">
<path d="M16 17.8666L9.46667 24.3999C9.22223 24.6444 8.91112 24.7666 8.53334 24.7666C8.15556 24.7666 7.84445 24.6444 7.6 24.3999C7.35556 24.1555 7.23334 23.8444 7.23334 23.4666C7.23334 23.0888 7.35556 22.7777 7.6 22.5333L14.1333 15.9999L7.6 9.46661C7.35556 9.22217 7.23334 8.91105 7.23334 8.53328C7.23334 8.1555 7.35556 7.84439 7.6 7.59994C7.84445 7.3555 8.15556 7.23328 8.53334 7.23328C8.91112 7.23328 9.22223 7.3555 9.46667 7.59994L16 14.1333L22.5333 7.59994C22.7778 7.3555 23.0889 7.23328 23.4667 7.23328C23.8444 7.23328 24.1556 7.3555 24.4 7.59994C24.6444 7.84439 24.7667 8.1555 24.7667 8.53328C24.7667 8.91105 24.6444 9.22217 24.4 9.46661L17.8667 15.9999L24.4 22.5333C24.6444 22.7777 24.7667 23.0888 24.7667 23.4666C24.7667 23.8444 24.6444 24.1555 24.4 24.3999C24.1556 24.6444 23.8444 24.7666 23.4667 24.7666C23.0889 24.7666 22.7778 24.6444 22.5333 24.3999L16 17.8666Z" fill="#F9AF42"/>
</g>
</svg>
