<svg width="32" height="32" viewBox="0 0 32 32" fill="none" xmlns="http://www.w3.org/2000/svg">
<g clip-path="url(#clip0_2_1601)">
<path d="M22.8 8.95996H8.87V22.89H22.8V8.95996Z" fill="#FF834F"/>
<path d="M8.89 7.68994H23.11C23.6 7.68994 24 8.08994 24 8.57994V22.7999C24 23.2899 23.6 23.6899 23.11 23.6899H8.89C8.4 23.6899 8 23.2899 8 22.7999V8.57994C8 8.08994 8.4 7.68994 8.89 7.68994ZM9.78 9.46994V21.9099H22.22V9.46994H9.78ZM12 13.0199C11.26 13.0199 10.67 12.4199 10.67 11.6899C10.67 10.9599 11.27 10.3599 12 10.3599C12.73 10.3599 13.33 10.9599 13.33 11.6899C13.33 12.4199 12.73 13.0199 12 13.0199ZM11.11 13.9099H12.89V20.5799H11.11V13.9099ZM16 14.2899C16.52 13.7899 17.12 13.4599 17.78 13.4599C19.62 13.4599 20.89 14.9499 20.89 16.7899V20.5699H19.11V16.7899C19.11 15.9299 18.41 15.2299 17.55 15.2299C16.69 15.2299 15.99 15.9299 15.99 16.7899V20.5699H14.21V13.8999H15.99V14.2799L16 14.2899Z" fill="#F8F7E5"/>
</g>
<defs>
<clipPath id="clip0_2_1601">
<rect width="16" height="16" fill="white" transform="translate(8 7.68994)"/>
</clipPath>
</defs>
</svg>
