<svg width="40" height="40" viewBox="0 0 40 40" fill="none" xmlns="http://www.w3.org/2000/svg">
<g clip-path="url(#clip0_2_1663)">
<g clip-path="url(#clip1_2_1663)">
<path d="M34.84 13.15L21.68 6.41C21.16 6.14 20.58 6 20 6C19.42 6 18.83 6.14 18.33 6.41L5.16 13.15C4.45 13.52 4 14.24 4 15.04C4 15.84 4.44 16.57 5.16 16.93L7.98 18.38V18.99C7.98 23.65 11.77 27.44 16.43 27.44H23.55C23.75 27.44 23.94 27.42 24.13 27.41C24.17 27.8 24.27 28.18 24.45 28.52L24.03 30.47C23.83 31.39 24.06 32.33 24.65 33.05C25.24 33.78 26.11 34.19 27.05 34.19C27.99 34.19 28.86 33.77 29.45 33.04C30.04 32.31 30.26 31.37 30.06 30.46L29.65 28.52C29.65 28.52 29.92 27.86 29.94 27.79C30.11 26.85 29.93 25.9 29.29 25.17C29.37 25.1 29.45 25.03 29.53 24.95C31.12 23.35 32 21.23 31.99 18.98V18.38L34.85 16.92C35.56 16.55 36 15.83 36 15.03C36 14.23 35.56 13.5 34.84 13.14V13.15Z" fill="white"/>
<path d="M23.55 26.45H16.43C12.31 26.45 8.98001 23.12 8.98001 19V14.33H30.99V19C31 23.12 27.67 26.45 23.55 26.45Z" fill="#533566"/>
<path d="M21.22 7.3L34.39 14.04C35.2 14.46 35.2 15.63 34.39 16.05L21.22 22.79C20.45 23.19 19.55 23.19 18.78 22.79L5.61 16.05C4.8 15.63 4.8 14.46 5.61 14.04L18.78 7.3C19.54 6.9 20.45 6.9 21.22 7.3Z" fill="#321B41"/>
<path d="M19.1 14.56C19.3 14.12 19.83 13.95 20.26 14.16L27.45 17.85C27.74 18 27.91 18.29 27.91 18.61V25.34C28.56 25.66 29.01 26.33 29.01 27.1C29.01 27.27 28.99 27.43 28.95 27.59V27.61C28.95 27.61 28.93 27.71 28.91 27.75C28.91 27.76 28.9 27.77 28.9 27.78C28.89 27.82 28.87 27.87 28.85 27.91C28.85 27.92 28.84 27.93 28.84 27.93C28.79 28.05 28.71 28.17 28.64 28.26C28.63 28.28 28.62 28.29 28.6 28.31L29.1 30.67C29.38 31.97 28.39 33.19 27.06 33.19C25.73 33.19 24.74 31.97 25.02 30.67L25.52 28.31C25.25 27.98 25.09 27.56 25.09 27.1C25.09 26.83 25.14 26.57 25.24 26.35C25.24 26.34 25.25 26.33 25.26 26.32C25.27 26.29 25.29 26.25 25.31 26.21C25.33 26.17 25.35 26.12 25.39 26.08C25.4 26.07 25.4 26.06 25.41 26.05C25.6 25.75 25.88 25.5 26.2 25.34V19.12L19.5 15.69C19.08 15.48 18.89 14.96 19.09 14.54L19.1 14.56Z" fill="#FFB02E"/>
</g>
</g>
<defs>
<clipPath id="clip0_2_1663">
<rect width="40" height="40" fill="white"/>
</clipPath>
<clipPath id="clip1_2_1663">
<rect width="32" height="28.2" fill="white" transform="translate(4 6)"/>
</clipPath>
</defs>
</svg>
