<svg width="72" height="72" viewBox="0 0 72 72" fill="none" xmlns="http://www.w3.org/2000/svg">
<circle cx="36" cy="36" r="36" fill="white"/>
<path d="M40.5025 21.1015C41.5325 18.6149 40.3517 15.7642 37.8651 14.7342C35.3785 13.7042 32.5277 14.8851 31.4978 17.3717C30.4678 19.8582 31.6486 22.709 34.1352 23.739C36.6218 24.7689 39.4725 23.5881 40.5025 21.1015Z" fill="#052250"/>
<path d="M52.3096 20.9165C52.0005 21.0865 51.6966 21.2514 51.3875 21.4162C51.2226 21.5038 51.0629 21.5862 50.8981 21.6687C50.7332 21.7511 50.5684 21.8387 50.4036 21.9159C50.2181 22.0087 50.0275 22.0962 49.842 22.1838C49.7029 22.2508 49.5587 22.3177 49.4196 22.3847C49.2187 22.4774 49.0229 22.565 48.822 22.6526C48.6933 22.7093 48.5645 22.7659 48.4357 22.8226C48.2296 22.9102 48.0236 22.9977 47.8175 23.0802C47.6939 23.1317 47.5702 23.178 47.4517 23.2296C47.2405 23.312 47.0345 23.3944 46.8233 23.4717C46.7048 23.518 46.5863 23.5593 46.4678 23.6056C46.2566 23.6829 46.0454 23.755 45.8342 23.8271C45.7157 23.8684 45.5972 23.9044 45.4839 23.9456C45.2726 24.0126 45.0614 24.0847 44.8502 24.1465C44.7317 24.1826 44.6133 24.2187 44.4999 24.2496C44.2887 24.3114 44.0775 24.3732 43.8663 24.4299C43.7478 24.4608 43.6345 24.4917 43.516 24.5226C43.3048 24.5793 43.0936 24.6308 42.8823 24.6823C42.7639 24.708 42.6454 24.7338 42.532 24.7647C42.3208 24.8111 42.1096 24.8574 41.8984 24.9038C41.7799 24.9296 41.6666 24.9502 41.5481 24.9708C41.3369 25.012 41.1257 25.0532 40.9145 25.0893C40.8011 25.1099 40.6826 25.1253 40.5693 25.1459C40.353 25.182 40.1417 25.2129 39.9254 25.2438C39.8172 25.2593 39.709 25.2696 39.5957 25.285C39.3742 25.3108 39.1578 25.3417 38.9363 25.3623C38.8384 25.3726 38.7354 25.3777 38.6375 25.3881C38.4108 25.4087 38.179 25.4293 37.9523 25.4447C37.8802 25.4447 37.8133 25.4499 37.7411 25.455C36.5872 25.5271 35.4281 25.5271 34.2742 25.455C34.202 25.455 34.1351 25.4499 34.0629 25.4447C33.8363 25.4293 33.6045 25.4087 33.3778 25.3881C33.2799 25.3777 33.1769 25.3726 33.079 25.3623C32.8626 25.3417 32.6411 25.3108 32.4248 25.285C32.3166 25.2696 32.2033 25.2593 32.0951 25.2438C31.8839 25.2129 31.6675 25.182 31.4563 25.1459C31.3429 25.1253 31.2245 25.1099 31.1111 25.0893C30.8999 25.0532 30.6887 25.012 30.4775 24.9708C30.359 24.9502 30.2405 24.9244 30.122 24.9038C29.9108 24.8626 29.6996 24.8162 29.4884 24.7647C29.3699 24.739 29.2514 24.7132 29.1381 24.6823C28.9269 24.6308 28.7157 24.5793 28.5045 24.5226C28.386 24.4917 28.2675 24.4608 28.1542 24.4299C27.9429 24.3732 27.7317 24.3114 27.5205 24.2496C27.402 24.2135 27.2836 24.1826 27.1702 24.1465C26.959 24.0796 26.7478 24.0126 26.5366 23.9456C26.4181 23.9044 26.2996 23.8684 26.1811 23.8271C25.9699 23.755 25.7587 23.6829 25.5475 23.6056C25.429 23.5644 25.3105 23.518 25.1869 23.4717C24.9757 23.3944 24.7696 23.312 24.5584 23.2296C24.4348 23.1832 24.3163 23.1317 24.1926 23.0802C23.9866 22.9977 23.7805 22.9102 23.5745 22.8226C23.4457 22.7659 23.3169 22.7093 23.1881 22.6526C22.9872 22.565 22.7914 22.4774 22.5905 22.3847C22.4514 22.3177 22.3072 22.2508 22.1681 22.1838C21.9826 22.0962 21.792 22.0035 21.6066 21.9108C21.4469 21.8284 21.282 21.7459 21.1172 21.6635C20.9523 21.5811 20.7875 21.4935 20.6226 21.4111C20.3136 21.2514 20.0096 21.0865 19.7005 20.9114C18.7063 20.355 17.4493 20.7105 16.8981 21.7047C16.3417 22.699 16.7023 23.9559 17.6914 24.5071C17.9902 24.672 18.289 24.8317 18.5878 24.9914C18.6342 25.0171 18.6754 25.0377 18.7217 25.0635C18.8763 25.1459 19.0308 25.2232 19.1854 25.3005C19.4017 25.4138 19.6233 25.522 19.8396 25.6302C19.9942 25.7074 20.1487 25.7796 20.3033 25.8517C20.5196 25.9547 20.7411 26.0577 20.9575 26.1608C21.112 26.2329 21.2666 26.2999 21.4263 26.3668C21.6426 26.4647 21.859 26.5574 22.0754 26.6502C22.2351 26.7171 22.3896 26.779 22.5493 26.8459C22.7657 26.9335 22.9769 27.0211 23.1933 27.1035C23.3529 27.1653 23.5178 27.2271 23.6775 27.289C23.8887 27.3662 24.0999 27.4435 24.3111 27.5208C24.476 27.5774 24.6408 27.6341 24.8057 27.6908C25.0117 27.7629 25.2178 27.8299 25.4239 27.8968C25.5939 27.9535 25.7639 28.005 25.9339 28.0565C26.1348 28.1184 26.3357 28.175 26.5366 28.2368C26.7117 28.2884 26.8817 28.3347 27.0569 28.3811C27.2526 28.4326 27.4536 28.4841 27.6493 28.5356C27.8245 28.582 28.0048 28.6232 28.1799 28.6696C28.3705 28.7159 28.5663 28.7571 28.7569 28.7984C28.9372 28.8396 29.1226 28.8808 29.3029 28.9168C29.4884 28.9529 29.679 28.989 29.8645 29.025C29.9469 29.0405 30.0345 29.0559 30.1169 29.0714L30.8587 36.8605V39.2199L24.8263 56.2302C24.3369 57.6108 25.0581 59.1253 26.4387 59.6147C26.7323 59.7177 27.0311 59.7693 27.3248 59.7693C28.4169 59.7693 29.4369 59.0893 29.8233 58.0023L35.2478 42.692H36.7623L42.1869 58.0023C42.5733 59.0893 43.5933 59.7693 44.6854 59.7693C44.979 59.7693 45.2778 59.7177 45.5714 59.6147C46.952 59.1253 47.6733 57.6108 47.1839 56.2302L41.1566 39.2199V36.8605L41.8984 29.0714C41.986 29.0559 42.0684 29.0405 42.156 29.025C42.3414 28.989 42.5269 28.958 42.7123 28.9168C42.8978 28.8808 43.0833 28.8396 43.2687 28.7984C43.4593 28.7571 43.6499 28.7159 43.8405 28.6696C44.0208 28.6284 44.2011 28.582 44.3814 28.5356C44.5772 28.4841 44.773 28.4377 44.9687 28.3811C45.1439 28.3347 45.319 28.2832 45.4942 28.2317C45.6951 28.175 45.896 28.1132 46.0969 28.0565C46.2669 28.005 46.4369 27.9484 46.612 27.8968C46.8181 27.8299 47.019 27.7629 47.2251 27.6959C47.3899 27.6393 47.5599 27.5826 47.7248 27.5208C47.936 27.4487 48.142 27.3714 48.3533 27.2941C48.5181 27.2323 48.6778 27.1705 48.8426 27.1087C49.0539 27.0262 49.2702 26.9387 49.4814 26.8511C49.6411 26.7841 49.7957 26.7223 49.9554 26.6553C50.1717 26.5626 50.3881 26.4699 50.6096 26.372C50.7642 26.305 50.9187 26.2329 51.0733 26.1659C51.2948 26.068 51.5111 25.9599 51.7326 25.8568C51.8872 25.7847 52.0417 25.7126 52.1911 25.6353C52.4126 25.5271 52.629 25.4138 52.8505 25.3005C53.0051 25.2232 53.1596 25.1459 53.309 25.0635C53.3554 25.0377 53.3966 25.0171 53.4429 24.9965C53.7417 24.8368 54.0405 24.6771 54.3393 24.5123C55.3336 23.9559 55.689 22.7041 55.1326 21.7099C54.5763 20.7156 53.3245 20.3602 52.3302 20.9165H52.3096Z" fill="#052250"/>
<path d="M36 3.03027C17.7894 3.03027 3.03027 17.7894 3.03027 36C3.03027 54.2106 17.7894 68.9697 36 68.9697C54.2106 68.9697 68.9697 54.2106 68.9697 36C68.9697 17.7894 54.2106 3.03027 36 3.03027ZM36 66.9091C18.9588 66.9091 5.09088 53.0412 5.09088 36C5.09088 18.9588 18.9588 5.09088 36 5.09088C53.0412 5.09088 66.9091 18.9588 66.9091 36C66.9091 53.0412 53.0412 66.9091 36 66.9091Z" fill="#052250"/>
<path d="M36.0001 8.69732C51.0528 8.69732 63.3031 20.9476 63.3031 36.0004C63.3031 51.0531 51.0528 63.3034 36.0001 63.3034C20.9474 63.3034 8.69708 51.0531 8.69708 36.0004C8.69708 20.9476 20.9474 8.69732 36.0001 8.69732ZM36.0001 6.63672C19.7831 6.63672 6.63647 19.7834 6.63647 36.0004C6.63647 52.2173 19.7831 65.364 36.0001 65.364C52.2171 65.364 65.3637 52.2173 65.3637 36.0004C65.3637 19.7834 52.2171 6.63672 36.0001 6.63672Z" fill="#92BCFF"/>
</svg>
