<svg width="72" height="72" viewBox="0 0 72 72" fill="none" xmlns="http://www.w3.org/2000/svg">
<path d="M35.852 72C35.102 72 34.352 71.85 33.677 71.4L8.85199 57.6C7.57699 56.925 6.75199 55.65 6.52699 54.15L2.02699 15.45C1.80199 13.35 3.00199 11.4 4.95199 10.725L34.352 0.225C34.877 0.075 35.327 0 35.852 0C36.377 0 36.902 0.075 37.352 0.225L66.677 10.65C68.627 11.325 69.902 13.35 69.602 15.375L65.102 54.15C64.952 55.575 64.052 56.85 62.777 57.6L37.952 71.4C37.277 71.775 36.527 72 35.777 72H35.852Z" fill="white"/>
<path d="M35.838 4.5L6.513 14.925L11.013 53.7L35.838 67.5L60.663 53.7L65.163 14.925L35.838 4.5Z" fill="#DD0031"/>
<path d="M35.8359 4.5V11.475V43.35V67.5L60.6609 53.7L65.1609 14.925L35.8359 4.5Z" fill="#C3002F"/>
<path d="M35.8442 11.4791L17.5443 52.5791H24.3693L28.0443 43.3541H43.5692L47.2442 52.5791H54.0693L35.8442 11.4791ZM41.1693 37.7291H30.4442L35.7692 24.8291L41.0942 37.7291H41.1693Z" fill="white"/>
</svg>
