<svg width="96" height="96" viewBox="0 0 96 96" fill="none" xmlns="http://www.w3.org/2000/svg">
<g clip-path="url(#clip0_3_3258)">
<path d="M47.852 84C47.102 84 46.352 83.85 45.677 83.4L20.852 69.6C19.577 68.925 18.752 67.65 18.527 66.15L14.027 27.45C13.802 25.35 15.002 23.4 16.952 22.725L46.352 12.225C46.877 12.075 47.327 12 47.852 12C48.377 12 48.902 12.075 49.352 12.225L78.677 22.65C80.627 23.325 81.902 25.35 81.602 27.375L77.102 66.15C76.952 67.575 76.052 68.85 74.777 69.6L49.952 83.4C49.277 83.775 48.527 84 47.777 84H47.852Z" fill="white"/>
<path d="M47.8379 16.5L18.5129 26.925L23.0129 65.7L47.8379 79.5L72.6629 65.7L77.1629 26.925L47.8379 16.5Z" fill="#DD0031"/>
<path d="M47.8359 16.5V23.475V55.35V79.5L72.6609 65.7L77.1609 26.925L47.8359 16.5Z" fill="#C3002F"/>
<path d="M47.8442 23.4792L29.5442 64.5793H36.3692L40.0442 55.3543H55.5692L59.2442 64.5793H66.0692L47.8442 23.4792ZM53.1692 49.7293H42.4442L47.7692 36.8292L53.0942 49.7293H53.1692Z" fill="white"/>
</g>
<defs>
<clipPath id="clip0_3_3258">
<rect width="96" height="96" fill="white"/>
</clipPath>
</defs>
</svg>
