<svg width="72" height="72" viewBox="0 0 72 72" fill="none" xmlns="http://www.w3.org/2000/svg">
<path d="M36.1844 72C35.8094 72 35.3594 72 34.9844 71.85L12.3344 65.55C10.5344 65.025 9.25938 63.45 9.03438 61.65L4.00938 4.95C3.93438 3.675 4.30938 2.475 5.13438 1.5C5.95938 0.6 7.15937 0 8.43437 0H64.0094C65.2844 0 66.4844 0.525 67.3094 1.5C68.1344 2.4 68.5844 3.675 68.4344 4.95L63.4094 61.65C63.2594 63.525 61.9094 65.1 60.1094 65.55L37.3844 71.85C37.0094 71.925 36.5594 72 36.1844 72Z" fill="white"/>
<path d="M13.4625 61.2L8.4375 4.5H64.0125L58.9875 61.2L36.2625 67.5L13.6125 61.2H13.4625Z" fill="#264DE4"/>
<path d="M54.5521 57.6063L58.9021 9.15625H36.1771V62.7063L54.5521 57.6063Z" fill="#2965F1"/>
<path d="M19.9729 30.1416L20.5729 37.1166H36.0979V30.1416H19.8979H19.9729ZM19.3729 23.0166H36.1729V16.0416H18.6979L19.2979 23.0166H19.3729ZM36.1729 48.2166L28.4479 46.1166L27.9229 40.5666H20.9479L21.9229 51.5166L36.1729 55.4916V48.2166Z" fill="#EBEBEB"/>
<path d="M36.1771 30.1541V37.1291H44.7271L43.9021 46.1291L36.1771 48.2291V55.4291L50.4271 51.4541V50.2541C50.5021 50.2541 52.1521 31.9541 52.1521 31.9541L52.3021 30.0791L53.5771 15.9791H36.1771V22.9541H46.0021L45.4021 30.0791H36.2521L36.1771 30.1541Z" fill="white"/>
</svg>
