<svg width="96" height="96" viewBox="0 0 96 96" fill="none" xmlns="http://www.w3.org/2000/svg">
<path d="M48.1844 84C47.8094 84 47.3594 84 46.9844 83.85L24.3344 77.55C22.5344 77.025 21.2594 75.45 21.0344 73.65L16.0094 16.95C15.9344 15.675 16.3094 14.475 17.1344 13.5C17.9594 12.6 19.1594 12 20.4344 12H76.0094C77.2844 12 78.4844 12.525 79.3094 13.5C80.1344 14.4 80.5844 15.675 80.4344 16.95L75.4094 73.65C75.2594 75.525 73.9094 77.1 72.1094 77.55L49.3844 83.85C49.0094 83.925 48.5594 84 48.1844 84Z" fill="white"/>
<path d="M25.4625 73.2L20.4375 16.5H76.0125L70.9875 73.2L48.2625 79.5L25.6125 73.2H25.4625Z" fill="#264DE4"/>
<path d="M66.552 69.6063L70.902 21.1562H48.177V74.7063L66.552 69.6063Z" fill="#2965F1"/>
<path d="M31.973 42.1417L32.573 49.1167H48.098V42.1417H31.898H31.973ZM31.373 35.0167H48.173V28.0417H30.698L31.298 35.0167H31.373ZM48.173 60.2167L40.448 58.1167L39.923 52.5667H32.948L33.923 63.5167L48.173 67.4917V60.2167Z" fill="#EBEBEB"/>
<path d="M48.177 42.1542V49.1292H56.727L55.902 58.1292L48.177 60.2292V67.4292L62.427 63.4542V62.2542C62.502 62.2542 64.152 43.9542 64.152 43.9542L64.302 42.0792L65.577 27.9792H48.177V34.9542H58.002L57.402 42.0792H48.252L48.177 42.1542Z" fill="white"/>
</svg>
