<svg width="72" height="72" viewBox="0 0 72 72" fill="none" xmlns="http://www.w3.org/2000/svg">
<path d="M11 15.924C11 24.1663 17.636 30.8481 25.8218 30.8481H40.6436V1H25.8218C17.636 1 11 7.68179 11 15.924Z" fill="white"/>
<path d="M11 34.924C11 43.1663 17.636 49.8481 25.8218 49.8481H40.6436V20H25.8218C17.636 20 11 26.6818 11 34.924Z" fill="white"/>
<path d="M11 54.924C11 46.6818 17.636 40 25.8218 40H40.6436V54.924C40.6436 63.1663 34.0076 69.8481 25.8218 69.8481C17.636 69.8481 11 63.1663 11 54.924Z" fill="white"/>
<path d="M45.8218 49.8481C54.0077 49.8481 60.6436 43.1663 60.6436 34.924C60.6436 26.6817 54.0077 20 45.8218 20C37.636 20 31 26.6817 31 34.924C31 43.1663 37.636 49.8481 45.8218 49.8481Z" fill="white"/>
<path d="M31 1V30.8481H45.8218C54.0076 30.8481 60.6436 24.1663 60.6436 15.924C60.6436 7.68179 54.0076 1 45.8218 1H31Z" fill="white"/>
<path d="M16.4746 54.752C16.4746 49.309 20.8569 44.8965 26.2626 44.8965H36.0506V54.752C36.0506 60.195 31.6683 64.6075 26.2626 64.6075C20.8569 64.6075 16.4746 60.195 16.4746 54.752Z" fill="#24CB71"/>
<path d="M36.0505 5.47461V25.1856H45.8385C51.2442 25.1856 55.6265 20.7731 55.6265 15.3301C55.6265 9.88711 51.2442 5.47461 45.8385 5.47461H36.0505Z" fill="#FF7237"/>
<path d="M45.7567 44.8955C51.1625 44.8955 55.5447 40.4831 55.5447 35.0401C55.5447 29.597 51.1625 25.1846 45.7567 25.1846C40.351 25.1846 35.9688 29.597 35.9688 35.0401C35.9688 40.4831 40.351 44.8955 45.7567 44.8955Z" fill="#00B6FF"/>
<path d="M16.4746 15.3301C16.4746 20.7731 20.8569 25.1856 26.2626 25.1856H36.0506V5.47461H26.2626C20.8569 5.47461 16.4746 9.88711 16.4746 15.3301Z" fill="#FF3737"/>
<path d="M16.4746 35.0401C16.4746 40.483 20.8569 44.8955 26.2626 44.8955H36.0506V25.1846H26.2626C20.8569 25.1846 16.4746 29.5971 16.4746 35.0401Z" fill="#874FFF"/>
</svg>
