<svg width="72" height="72" viewBox="0 0 72 72" fill="none" xmlns="http://www.w3.org/2000/svg">
<path d="M36.3483 71.8425C34.8483 71.8425 33.3558 71.4676 32.0808 70.7176L11.8758 59.4163L11.5758 59.2663C11.0508 58.9664 10.5258 58.6664 10.1508 58.2164C9.17584 57.0915 8.80084 55.6742 9.10084 54.2493L16.8108 5.01698C17.1858 2.54973 19.1283 0.524945 21.6033 0.0749922H21.6783C21.9783 0.0749922 22.3533 0 22.6533 0C23.5533 0 24.4533 0.224977 25.1958 0.599937C26.3208 1.12488 27.2883 2.02479 27.8883 3.14217L31.9308 10.7764C33.0558 9.5765 34.6233 8.83408 36.2733 8.83408C37.9233 8.83408 36.2733 8.83408 36.3483 8.83408C38.5158 8.83408 40.4658 10.1089 41.5158 11.9763L44.5083 17.6607L47.5758 14.5935C48.4008 13.7686 49.3758 13.2436 50.4183 13.0186C50.8683 12.9437 51.3183 12.8687 51.7683 12.8687C52.2183 12.8687 51.9183 12.8687 51.9933 12.8687C52.5183 12.8687 53.1183 13.0186 53.6433 13.1686C55.7358 13.8436 57.3108 15.6359 57.6858 17.8106L63.5958 54.5568C63.8958 56.2066 63.2208 57.849 61.8708 58.8989C61.7958 58.8989 61.6458 59.0488 61.5708 59.1238C61.4958 59.1238 61.4208 59.1988 61.2708 59.2738L40.4658 70.8751C39.1908 71.625 37.6983 72 36.1983 72L36.3483 71.85V71.8425Z" fill="white"/>
<path d="M13.5859 55.2915L21.2959 5.75168C21.3709 5.15175 21.8959 4.6268 22.4959 4.55181C23.0959 4.47682 23.6959 4.77679 23.9959 5.30173L32.0059 20.1952L35.2234 14.1358C35.4484 13.6859 35.9734 13.3859 36.4984 13.3859C37.0234 13.3859 37.5484 13.6859 37.7734 14.1358L59.4034 55.224H13.6609L13.5859 55.299V55.2915Z" fill="#FFA000"/>
<path d="M40.3084 35.9796L31.9984 20.1863L13.5859 55.2151L40.3084 35.9046V35.9796Z" fill="#F57C00"/>
<path d="M59.3217 55.2949L53.4117 18.6238C53.3367 18.0988 52.9617 17.6489 52.4367 17.4989C51.9117 17.3489 51.3867 17.4989 51.0117 17.8738L13.6693 55.2949L34.3242 66.8962C35.5992 67.6461 37.1667 67.6461 38.5167 66.8962L59.3967 55.2949H59.3217Z" fill="#FFCA28"/>
<path d="M53.3305 18.6235C53.2555 18.0985 52.8805 17.6486 52.3555 17.4986C51.8305 17.3486 51.3055 17.4986 50.9305 17.8736L43.5205 25.2828L37.6855 14.2064C37.4605 13.7565 36.9355 13.4565 36.4105 13.4565C35.8855 13.4565 35.3605 13.7565 35.1355 14.2064L31.918 20.2658L23.9155 5.37986C23.6155 4.85491 23.0155 4.55494 22.4155 4.62993C21.8155 4.70493 21.3655 5.22987 21.2155 5.82981L13.513 55.3697L13.738 55.5196L50.938 18.3235C51.313 17.9485 51.913 17.7986 52.363 17.9485C52.813 18.0985 53.263 18.5485 53.338 19.0734L59.248 55.4446L53.338 18.6985V18.6235H53.3305ZM13.663 55.2197L21.298 6.12978C21.373 5.52984 21.898 5.00489 22.498 4.9299C23.098 4.85491 23.698 5.15488 23.998 5.67982L32.008 20.5733L35.2255 14.5139C35.4505 14.064 35.9755 13.764 36.5005 13.764C37.0255 13.764 37.5505 14.064 37.7755 14.5139L43.4605 25.3653L13.663 55.2197Z" fill="white" fill-opacity="0.4"/>
<path opacity="0.2" d="M38.4334 66.5167C37.1584 67.2666 35.5909 67.2666 34.2409 66.5167L13.5859 54.9154V55.2154L34.2409 66.8167C35.5159 67.5666 37.0834 67.5666 38.4334 66.8167L59.3134 55.2154V54.9154L38.4334 66.5167Z" fill="#A52714"/>
<path d="M53.3284 18.6235C53.2534 18.0985 52.8784 17.6486 52.3534 17.4986C51.8284 17.3486 51.3034 17.4986 50.9284 17.8736L43.5184 25.2828L37.6834 14.2064C37.4584 13.7565 36.9334 13.4565 36.4084 13.4565C35.8834 13.4565 35.3584 13.7565 35.1334 14.2064L31.9909 20.2658L23.9884 5.37986C23.6884 4.85491 23.0884 4.55494 22.4884 4.62993C21.8884 4.70493 21.4384 5.22987 21.2884 5.82981L13.5859 55.2947L34.1659 66.8959C35.4409 67.6459 37.0084 67.6459 38.3584 66.8959L59.1634 55.2947L53.2534 18.6235H53.3284Z" fill="url(#paint0_linear_2_1344)"/>
<defs>
<linearGradient id="paint0_linear_2_1344" x1="10.5709" y1="18.2635" x2="67.0337" y2="41.6638" gradientUnits="userSpaceOnUse">
<stop stop-color="white" stop-opacity="0.1"/>
<stop offset="0.1" stop-color="white" stop-opacity="0"/>
<stop offset="0.6" stop-color="white" stop-opacity="0"/>
<stop offset="1" stop-color="white" stop-opacity="0"/>
</linearGradient>
</defs>
</svg>
