<svg width="96" height="96" viewBox="0 0 96 96" fill="none" xmlns="http://www.w3.org/2000/svg">
<path d="M48.3483 83.8425C46.8483 83.8425 45.3558 83.4676 44.0808 82.7176L23.8758 71.4163L23.5758 71.2663C23.0508 70.9664 22.5258 70.6664 22.1508 70.2164C21.1758 69.0915 20.8008 67.6742 21.1008 66.2493L28.8108 17.017C29.1858 14.5497 31.1283 12.5249 33.6033 12.075H33.6783C33.9783 12.075 34.3533 12 34.6533 12C35.5533 12 36.4533 12.225 37.1958 12.5999C38.3208 13.1249 39.2883 14.0248 39.8883 15.1422L43.9308 22.7764C45.0558 21.5765 46.6233 20.8341 48.2733 20.8341C49.9233 20.8341 48.2733 20.8341 48.3483 20.8341C50.5158 20.8341 52.4658 22.1089 53.5158 23.9763L56.5083 29.6607L59.5758 26.5935C60.4008 25.7686 61.3758 25.2436 62.4183 25.0186C62.8683 24.9437 63.3183 24.8687 63.7683 24.8687C64.2183 24.8687 63.9183 24.8687 63.9933 24.8687C64.5183 24.8687 65.1183 25.0186 65.6433 25.1686C67.7358 25.8436 69.3108 27.6359 69.6858 29.8106L75.5958 66.5568C75.8958 68.2066 75.2208 69.849 73.8708 70.8989C73.7958 70.8989 73.6458 71.0488 73.5708 71.1238C73.4958 71.1238 73.4208 71.1988 73.2708 71.2738L52.4658 82.8751C51.1908 83.625 49.6983 84 48.1983 84L48.3483 83.85V83.8425Z" fill="white"/>
<path d="M25.5859 67.2914L33.2959 17.7516C33.3709 17.1516 33.8959 16.6267 34.4959 16.5517C35.0959 16.4767 35.6959 16.7767 35.9959 17.3016L44.0059 32.1951L47.2234 26.1357C47.4484 25.6857 47.9734 25.3858 48.4984 25.3858C49.0234 25.3858 49.5484 25.6857 49.7734 26.1357L71.4034 67.2239H25.6609L25.5859 67.2989V67.2914Z" fill="#FFA000"/>
<path d="M52.3084 47.9794L43.9984 32.186L25.5859 67.2149L52.3084 47.9044V47.9794Z" fill="#F57C00"/>
<path d="M71.3217 67.2949L65.4117 30.6238C65.3367 30.0988 64.9617 29.6489 64.4367 29.4989C63.9117 29.3489 63.3867 29.4989 63.0117 29.8738L25.6692 67.2949L46.3242 78.8962C47.5992 79.6461 49.1667 79.6461 50.5167 78.8962L71.3967 67.2949H71.3217Z" fill="#FFCA28"/>
<path d="M65.3304 30.6234C65.2554 30.0984 64.8804 29.6485 64.3554 29.4985C63.8304 29.3485 63.3054 29.4985 62.9304 29.8734L55.5204 37.2827L49.6854 26.2063C49.4604 25.7564 48.9354 25.4564 48.4104 25.4564C47.8854 25.4564 47.3604 25.7564 47.1354 26.2063L43.9179 32.2657L35.9154 17.3797C35.6154 16.8548 35.0154 16.5548 34.4154 16.6298C33.8154 16.7048 33.3654 17.2297 33.2154 17.8297L25.5129 67.3695L25.7379 67.5195L62.9379 30.3234C63.3129 29.9484 63.9129 29.7984 64.3629 29.9484C64.8129 30.0984 65.2629 30.5484 65.3379 31.0733L71.2479 67.4445L65.3379 30.6983V30.6234H65.3304ZM25.6629 67.2195L33.2979 18.1297C33.3729 17.5297 33.8979 17.0048 34.4979 16.9298C35.0979 16.8548 35.6979 17.1548 35.9979 17.6797L44.0079 32.5732L47.2254 26.5138C47.4504 26.0638 47.9754 25.7639 48.5004 25.7639C49.0254 25.7639 49.5504 26.0638 49.7754 26.5138L55.4604 37.3652L25.6629 67.2195Z" fill="white" fill-opacity="0.4"/>
<path opacity="0.2" d="M50.4334 78.5166C49.1584 79.2665 47.5909 79.2665 46.2409 78.5166L25.5859 66.9153V67.2152L46.2409 78.8165C47.5159 79.5665 49.0834 79.5665 50.4334 78.8165L71.3134 67.2152V66.9153L50.4334 78.5166Z" fill="#A52714"/>
<path d="M65.3284 30.6234C65.2534 30.0984 64.8784 29.6485 64.3534 29.4985C63.8284 29.3485 63.3034 29.4985 62.9284 29.8734L55.5184 37.2827L49.6834 26.2063C49.4584 25.7564 48.9334 25.4564 48.4084 25.4564C47.8834 25.4564 47.3584 25.7564 47.1334 26.2063L43.9909 32.2657L35.9884 17.3797C35.6884 16.8548 35.0884 16.5548 34.4884 16.6298C33.8884 16.7048 33.4384 17.2297 33.2884 17.8297L25.5859 67.2945L46.1659 78.8958C47.4409 79.6457 49.0084 79.6457 50.3584 78.8958L71.1634 67.2945L65.2534 30.6234H65.3284Z" fill="url(#paint0_linear_3_3262)"/>
<defs>
<linearGradient id="paint0_linear_3_3262" x1="22.5709" y1="30.2634" x2="79.0337" y2="53.6637" gradientUnits="userSpaceOnUse">
<stop stop-color="white" stop-opacity="0.1"/>
<stop offset="0.1" stop-color="white" stop-opacity="0"/>
<stop offset="0.6" stop-color="white" stop-opacity="0"/>
<stop offset="1" stop-color="white" stop-opacity="0"/>
</linearGradient>
</defs>
</svg>
