<svg width="72" height="72" viewBox="0 0 72 72" fill="none" xmlns="http://www.w3.org/2000/svg">
<path d="M27.1729 53.0781C27.6576 52.9427 28.1675 53.1887 28.3633 53.6523C28.533 54.0544 28.4202 54.5108 28.1035 54.79C28.3846 54.8656 28.7869 54.9458 29.3516 55.0107H29.3506C34.4755 55.5954 37.0477 55.5146 42.7178 54.4414L42.8105 54.4287C43.0284 54.4083 43.2477 54.46 43.4346 54.5771L43.4355 54.5781C43.4374 54.5793 43.4416 54.5811 43.4463 54.584C43.4557 54.5898 43.471 54.5991 43.4912 54.6113C43.5321 54.6361 43.5947 54.6739 43.6768 54.7217C43.8415 54.8176 44.0853 54.9551 44.3936 55.1182C45.0118 55.4453 45.8837 55.8714 46.8975 56.2656C47.276 56.4129 47.5282 56.7745 47.5352 57.1807C47.5419 57.5867 47.302 57.9562 46.9287 58.1162C40.2415 60.9822 32.7029 60.9025 28.0908 59.7285C26.9318 59.4335 25.9166 59.0593 25.1289 58.6191C24.3829 58.2023 23.6623 57.627 23.3848 56.8428C23.234 56.4168 23.2264 55.9588 23.3896 55.5146C23.5461 55.089 23.8354 54.7389 24.1748 54.4531C24.8378 53.8949 25.8566 53.4459 27.1729 53.0781Z" fill="#5382A1" stroke="white" stroke-width="2" stroke-linejoin="round"/>
<path d="M25.5488 45.8662C26.0151 45.7115 26.5245 45.9186 26.751 46.3545C26.9769 46.7897 26.854 47.3244 26.4609 47.6172H26.4619C26.4605 47.6183 26.4566 47.6207 26.4512 47.625C26.4397 47.634 26.4202 47.6501 26.3955 47.6709C26.3454 47.7132 26.2768 47.7739 26.2061 47.8467C26.1317 47.9232 26.0758 47.9916 26.0352 48.0479C26.241 48.145 26.6628 48.2791 27.458 48.3613L28.4766 48.4619C33.5095 48.9294 37.7417 48.8864 44.7998 47.5273L44.9229 47.5117C45.2102 47.4928 45.4939 47.5991 45.6992 47.8066L45.6982 47.8057V47.8047L45.7246 47.8311C45.748 47.8532 45.7867 47.8879 45.8389 47.9336C45.9435 48.0253 46.1025 48.158 46.3096 48.3076C46.7268 48.6092 47.3211 48.9701 48.0371 49.2227C48.4465 49.367 48.7169 49.7594 48.7051 50.1934C48.6931 50.6271 48.4019 51.0032 47.9854 51.125C40.0286 53.4516 31.6125 53.5532 26.5449 52.5771C25.2748 52.3325 24.1708 52.0117 23.3213 51.6172C22.5322 51.2508 21.7182 50.7102 21.4219 49.8848C21.0605 48.8777 21.6128 48.016 22.3184 47.4385C23.0239 46.8611 24.1129 46.3428 25.5488 45.8662Z" fill="#5382A1" stroke="white" stroke-width="2" stroke-linejoin="round"/>
<path d="M50.7336 15.5107C51.2169 15.39 51.7153 15.643 51.9026 16.1045C52.0898 16.5662 51.9088 17.0958 51.4778 17.3457C47.9001 19.4207 45.4283 21.1019 43.7756 22.5205C42.1125 23.9482 41.3679 25.0353 41.0989 25.9014C40.8471 26.7122 40.9715 27.4625 41.4104 28.3564C41.7594 29.0672 42.2641 29.7897 42.8762 30.6426L43.5227 31.543V31.5439C44.604 33.066 44.8652 34.5888 44.5696 36.001C44.283 37.3698 43.495 38.5389 42.6516 39.458C41.8022 40.3836 40.8392 41.1179 40.1018 41.6162C39.7307 41.867 39.41 42.0625 39.1799 42.1963C39.0648 42.2633 38.9711 42.3158 38.9055 42.3516C38.873 42.3693 38.8469 42.3828 38.8284 42.3926C38.8191 42.3975 38.8114 42.4014 38.8059 42.4043C38.8032 42.4057 38.8009 42.4073 38.7991 42.4082L38.7971 42.4092L38.7961 42.4102L38.3372 41.5215L38.7952 42.4102C38.3406 42.6447 37.7823 42.4986 37.5012 42.0713C37.2203 41.6442 37.3066 41.0736 37.7014 40.749H37.7024C37.7059 40.746 37.7127 40.7394 37.7229 40.7305C37.7433 40.7127 37.776 40.6835 37.8186 40.6436C37.9041 40.5633 38.028 40.4414 38.1692 40.2832C38.4551 39.9629 38.7949 39.5151 39.0452 38.9863C39.2941 38.4603 39.4408 37.8829 39.3889 37.2783C39.3444 36.7596 39.149 36.1599 38.6506 35.5L38.4182 35.2139C35.5783 31.9416 34.7869 28.9263 35.4973 26.2324C36.1881 23.6133 38.2345 21.5681 40.4602 20.0332C42.7062 18.4843 45.2795 17.3564 47.2668 16.6191C48.2651 16.2488 49.1261 15.9726 49.7395 15.7891C50.0464 15.6972 50.292 15.6284 50.4622 15.582C50.5472 15.5589 50.6136 15.5412 50.6594 15.5293C50.6821 15.5234 50.6997 15.5188 50.7122 15.5156C50.7182 15.5141 50.7233 15.5126 50.7268 15.5117C50.7286 15.5113 50.7306 15.511 50.7317 15.5107H50.7327C50.7331 15.5106 50.7335 15.5103 50.9758 16.4805L50.7336 15.5107Z" fill="#E76F00" stroke="white" stroke-width="2" stroke-linejoin="round"/>
<path d="M28.4675 38.3203C28.5442 38.3221 28.6044 38.3242 28.6472 38.3262C28.6687 38.3272 28.6864 38.3284 28.699 38.3291C28.7049 38.3294 28.7097 38.3298 28.7136 38.3301H28.7224L28.8142 38.3408C29.2641 38.4128 29.6136 38.7833 29.6521 39.2451C29.6905 39.7069 29.407 40.13 28.9753 40.2754L28.8865 40.3008L28.8855 40.3018C28.8843 40.302 28.8822 40.3021 28.8796 40.3027C28.8745 40.304 28.8667 40.3061 28.8562 40.3086C28.835 40.3137 28.8029 40.3209 28.7615 40.3311C28.6783 40.3515 28.5561 40.3828 28.4031 40.4219C28.0965 40.5002 27.6657 40.613 27.1736 40.752C26.181 41.0322 24.9692 41.4079 24.0095 41.8057C23.8172 41.8854 23.6418 41.964 23.4851 42.0391C23.7637 42.1 24.111 42.1634 24.5398 42.2207H24.5408C27.6998 42.6436 34.131 42.5526 40.1902 42.0449L41.1101 41.9629C43.2511 41.7584 45.3412 41.4803 46.9646 41.2412C47.8913 41.1047 48.6638 40.9808 49.2039 40.8916C49.4738 40.847 49.686 40.8109 49.8298 40.7861C49.9015 40.7738 49.9563 40.7642 49.9929 40.7578C50.011 40.7546 50.0248 40.7526 50.0339 40.751C50.0385 40.7502 50.0425 40.7494 50.0447 40.749L50.0466 40.748C50.547 40.6587 51.0357 40.9593 51.1814 41.4463C51.3269 41.9332 51.0841 42.4523 50.6169 42.6523L50.614 42.6533C50.6114 42.6544 50.607 42.6557 50.6013 42.6582C50.5898 42.6632 50.572 42.6713 50.5486 42.6816C50.5017 42.7023 50.4322 42.7334 50.3445 42.7734C50.1685 42.8536 49.9199 42.9693 49.6335 43.1113C49.0538 43.3988 48.3473 43.7788 47.7703 44.1729C47.6759 44.2373 47.5712 44.2854 47.4607 44.3145C41.2313 45.9528 32.1882 46.3793 25.571 45.9941C22.2879 45.803 19.463 45.4053 17.8621 44.7949C17.4559 44.64 17.0642 44.4481 16.7537 44.1992C16.4497 43.9556 16.0994 43.553 16.0681 42.9766C16.0367 42.3952 16.3463 41.9489 16.6482 41.6572C16.954 41.3618 17.3658 41.1087 17.8328 40.8828C20.8062 39.4455 23.5059 38.8068 25.4695 38.5273C26.4516 38.3876 27.2518 38.337 27.8123 38.3223C28.0924 38.3149 28.3135 38.3168 28.4675 38.3203Z" fill="#5382A1" stroke="white" stroke-width="2" stroke-linejoin="round"/>
<path d="M42.2144 2.13086C42.6057 1.90851 43.0973 1.97464 43.4155 2.29297L42.7085 3C43.3889 2.31979 43.4149 2.29428 43.4165 2.29395L43.4302 2.30762C43.4367 2.31432 43.445 2.32282 43.4546 2.33301C43.4738 2.35332 43.4985 2.38097 43.5288 2.41504C43.5896 2.48336 43.6718 2.57923 43.7671 2.70215C43.9576 2.94789 44.2048 3.30421 44.4517 3.76367C44.9459 4.68355 45.4414 6.02724 45.4663 7.73438C45.5165 11.1914 43.6442 15.8088 36.8237 21.1934C34.2188 23.2506 32.8717 25.0078 32.2681 26.5127C31.6791 27.9811 31.763 29.297 32.2134 30.584C32.6786 31.9134 33.5271 33.1935 34.4839 34.5615C35.409 35.8842 36.455 37.3147 37.1138 38.8037C37.3046 39.2352 37.1678 39.7409 36.7856 40.0176C36.4034 40.2943 35.8802 40.2663 35.5298 39.9502C32.4117 37.1369 29.5936 34.396 27.9634 31.7305C27.1412 30.3862 26.5836 29.0025 26.4722 27.5898C26.3589 26.1542 26.7127 24.7553 27.6021 23.4199L27.8364 23.0801C29.0369 21.3963 30.6622 19.9436 32.3306 18.5898C34.1547 17.1097 35.9815 15.7821 37.6323 14.2871C39.2618 12.8116 40.5911 11.2783 41.3647 9.51758C42.1263 7.78425 42.3782 5.76444 41.7388 3.24609C41.628 2.80976 41.823 2.35335 42.2144 2.13086Z" fill="#E76F00" stroke="white" stroke-width="2" stroke-linejoin="round"/>
<path d="M19.9316 67.8262C19.9326 67.8266 19.9344 67.8264 19.9365 67.8271C19.7768 67.7054 19.6526 67.5382 19.5889 67.3398C19.4742 66.983 19.569 66.5922 19.834 66.3271C20.131 66.1901 20.439 66.1628 20.6826 66.1719L20.7041 66.0469C28.0176 67.2526 40.4112 67.4749 50.4336 65.5889L51.2412 65.4307C55.1587 64.6377 57.2863 63.7819 58.4141 63.1514C59.0119 62.8171 59.3144 62.5538 59.4521 62.4111C59.5097 62.3515 59.538 62.3129 59.5479 62.2988C59.7518 61.8903 60.2112 61.6683 60.6641 61.7715C61.147 61.8816 61.4772 62.3284 61.4395 62.8223C61.2863 64.8155 59.5846 66.1645 57.5684 67.0811C55.4857 68.0278 52.6853 68.6953 49.5986 69.1523C43.4084 70.0689 35.8001 70.1736 29.8076 69.79C25.8579 69.5367 23.4527 69.0895 22.0098 68.6885C21.2872 68.4876 20.7973 68.2963 20.4717 68.1416C20.3088 68.0642 20.1853 67.9954 20.0938 67.9385C20.0479 67.91 20.0096 67.8835 19.9785 67.8613C19.963 67.8503 19.9494 67.8402 19.9375 67.8311L19.9316 67.8262ZM59.542 62.3115C59.5382 62.3189 59.5337 62.3289 59.5283 62.3408C59.5257 62.3467 59.5225 62.3534 59.5195 62.3604C59.5181 62.3638 59.5162 62.3674 59.5146 62.3711L59.5117 62.3799C59.5212 62.3558 59.5319 62.3325 59.543 62.3096L59.542 62.3115Z" fill="#5382A1" stroke="white" stroke-width="2" stroke-linejoin="round"/>
<path d="M20.9199 57.834C21.6034 57.8603 22.3512 57.9875 22.918 58.3867C23.2847 58.6453 23.4346 59.1163 23.2842 59.5391C23.1524 59.9091 22.8188 60.1628 22.4375 60.1992L22.2715 60.2012H22.2646C22.25 60.2006 22.2232 60.1994 22.1846 60.1992C22.1067 60.1988 21.9807 60.2011 21.8105 60.2119C21.47 60.2335 20.9504 60.2906 20.2773 60.4365L20.2754 60.4375C19.632 60.5757 18.2774 60.9801 17.4043 61.4424C18.9239 62.0086 21.3259 62.439 24.2959 62.7148C27.5002 63.0125 31.2587 63.1232 35.0576 63.0752C42.6952 62.9788 50.3316 62.2425 53.915 61.1572L54.2393 61.0527C54.9491 60.8117 55.3403 60.5835 55.5439 60.415C55.6318 60.3423 55.6731 60.2887 55.6934 60.2578C55.6882 60.248 55.683 60.2337 55.6719 60.2178L55.6211 60.1553H55.6221C55.2382 59.8362 55.1484 59.2827 55.4121 58.8584C55.6768 58.4329 56.216 58.2686 56.6729 58.4746C57.5605 58.875 58.5098 59.5434 58.5332 60.6406C58.5445 61.1747 58.3192 61.6308 58.0361 61.9844C57.755 62.3355 57.3747 62.6415 56.9512 62.9121C55.2925 63.9719 52.2342 64.928 48.2842 65.6318C40.3115 67.0524 28.1928 67.5323 14.9141 65.3789C13.6647 65.1764 12.696 64.8971 12.0166 64.5166C11.338 64.1365 10.7364 63.5193 10.7666 62.6279C10.7932 61.8489 11.3097 61.2381 11.7764 60.8262C12.2804 60.3813 12.9448 59.9759 13.6611 59.6221C15.0994 58.9119 16.922 58.3243 18.5674 58.0312C19.3909 57.8846 20.2028 57.8064 20.9199 57.834ZM55.6133 60.1475L55.6191 60.1533C55.6129 60.1469 55.6084 60.1436 55.6084 60.1436C55.6086 60.1437 55.6106 60.1451 55.6133 60.1475Z" fill="#5382A1" stroke="white" stroke-width="2" stroke-linejoin="round"/>
<path d="M49.2607 50.9336C49.2616 50.9328 49.2649 50.93 49.2686 50.9268C49.2691 50.9263 49.2712 50.9248 49.2734 50.9229C49.2728 50.9242 49.2721 50.9254 49.2715 50.9268C49.0984 51.0768 48.9777 51.2825 48.9385 51.5137L48.9248 51.6816C49.2234 52.2385 49.7809 52.4422 50.1406 52.5039L50.1787 52.6484C54.4137 51.5351 57.3136 49.97 59.1113 48.2109C60.9218 46.4394 61.6342 44.4401 61.3564 42.5879C60.798 38.8644 56.5246 36.6539 52.1455 38.1934L52.1426 38.1943C51.6207 38.3796 51.2364 38.68 50.9893 38.9209C50.864 39.043 50.7679 39.156 50.7002 39.2422C50.6662 39.2855 50.6387 39.3233 50.6182 39.3525C50.6079 39.3671 50.5988 39.3792 50.5918 39.3896C50.5883 39.3949 50.5857 39.4002 50.583 39.4043C50.5818 39.4062 50.5801 39.4076 50.5791 39.4092C50.5785 39.4101 50.5777 39.4113 50.5771 39.4121L50.5762 39.4131V39.4141C50.3421 39.7807 50.3714 40.2572 50.6494 40.5918C50.9274 40.9263 51.3897 41.0418 51.793 40.8789C51.7998 40.8763 51.814 40.8723 51.834 40.8652C51.8758 40.8506 51.9467 40.8273 52.0479 40.7969C52.2508 40.7359 52.5769 40.647 53.0391 40.5508C54.5624 40.2333 56.3855 41.2972 56.6602 42.9072C56.9228 44.4476 55.8469 47.2822 49.7129 50.4697C49.5229 50.5684 49.3711 50.7255 49.2773 50.916C49.2714 50.9225 49.2656 50.9287 49.2607 50.9336ZM49.2607 50.9336L49.2559 50.9375C49.2543 50.9389 49.2533 50.94 49.2529 50.9404C49.2534 50.9399 49.2551 50.9392 49.2568 50.9375C49.258 50.9364 49.2594 50.9349 49.2607 50.9336ZM51.792 40.8799L51.79 40.8809H51.791L51.792 40.8799ZM51.792 40.8799H51.793L51.792 40.8789V40.8799ZM49.3115 50.8916C49.2973 50.9026 49.286 50.9117 49.2832 50.9141C49.2821 50.9158 49.2815 50.9179 49.2803 50.9199C49.3047 50.8993 49.3291 50.8787 49.3555 50.8604C49.3375 50.873 49.3188 50.886 49.3115 50.8916Z" fill="#5382A1" stroke="white" stroke-width="2" stroke-linejoin="round"/>
</svg>
