<svg width="96" height="96" viewBox="0 0 96 96" fill="none" xmlns="http://www.w3.org/2000/svg">
<g clip-path="url(#clip0_3_3252)">
<path d="M79.5 12H16.5C14.0147 12 12 14.0147 12 16.5V79.5C12 81.9853 14.0147 84 16.5 84H79.5C81.9853 84 84 81.9853 84 79.5V16.5C84 14.0147 81.9853 12 79.5 12Z" fill="white"/>
<path d="M79.5 16.5H16.5V79.5H79.5V16.5Z" fill="#F7DF1E"/>
<path d="M58.7875 65.7011C60.0625 67.8011 61.7125 69.3011 64.6375 69.3011C67.5625 69.3011 68.6875 68.1011 68.6875 66.3761C68.6875 64.6511 67.1125 63.6011 64.4125 62.4761L62.9125 61.8761C58.6375 60.0761 55.7875 57.7511 55.7875 52.9511C55.7875 48.1511 59.1625 45.1511 64.4875 45.1511C69.8125 45.1511 70.9375 46.4261 72.8875 49.8761L68.3125 52.8011C67.2625 51.0011 66.2125 50.2511 64.4875 50.2511C62.7625 50.2511 61.6375 51.3761 61.6375 52.8011C61.6375 54.2261 62.7625 55.2761 65.3125 56.4011L66.8125 57.0011C71.8375 59.1761 74.6875 61.3511 74.6875 66.3011C74.6875 71.2511 70.4875 74.5511 64.8625 74.5511C59.2375 74.5511 55.7875 71.9261 54.0625 68.4761L58.8625 65.7011H58.7875ZM37.8625 66.2261C38.7625 67.8761 39.6625 69.3011 41.6875 69.3011C43.7125 69.3011 44.8375 68.5511 44.8375 65.5511V45.4511H50.7625V65.6261C50.7625 71.7761 47.1625 74.5511 41.9125 74.5511C36.6625 74.5511 34.4125 72.0761 33.0625 69.1511L37.8625 66.2261Z" fill="black"/>
</g>
<defs>
<clipPath id="clip0_3_3252">
<rect width="72" height="72" fill="white" transform="translate(12 12)"/>
</clipPath>
</defs>
</svg>
