<svg width="72" height="72" viewBox="0 0 72 72" fill="none" xmlns="http://www.w3.org/2000/svg">
<path d="M28.0527 51.249C29.0219 50.9784 30.041 51.4695 30.4326 52.3965C30.5176 52.5976 30.5652 52.806 30.582 53.0137C35.1349 53.528 37.408 53.4537 42.5088 52.4883L42.6953 52.4619C43.1308 52.4214 43.5699 52.5246 43.9434 52.7588L43.9424 52.7598C43.9432 52.7603 43.945 52.7599 43.9463 52.7607C43.9526 52.7646 43.9642 52.7714 43.9805 52.7812C44.0132 52.8011 44.0654 52.8331 44.1357 52.874C44.2769 52.9562 44.4898 53.0764 44.7607 53.2197C45.305 53.5077 46.0728 53.8818 46.9619 54.2275C47.719 54.5219 48.2224 55.2455 48.2363 56.0576C48.2501 56.8699 47.7711 57.6106 47.0244 57.9307C40.5996 60.6841 33.3869 60.6094 28.9248 59.4736C27.7971 59.1866 26.7633 58.8116 25.9277 58.3447C25.1757 57.9245 24.2172 57.2281 23.8262 56.123C23.6067 55.5029 23.595 54.8215 23.8359 54.166C24.0633 53.5474 24.4678 53.0778 24.8779 52.7324C25.6665 52.0685 26.7846 51.6034 28.0527 51.249Z" fill="#1D1D1D" stroke="#1D1D1D" stroke-width="4" stroke-linejoin="round"/>
<path d="M26.502 44.5977C27.4346 44.2883 28.4544 44.7021 28.9072 45.5742C29.1245 45.9927 29.1777 46.457 29.0898 46.8916C33.902 47.3699 37.757 47.3825 44.4297 46.0977L44.5527 46.0781C45.1655 45.9993 45.7831 46.2084 46.2227 46.6484L46.2275 46.6533C46.2398 46.6649 46.2655 46.6881 46.3027 46.7207C46.3776 46.7863 46.4986 46.8869 46.6592 47.0029C46.9865 47.2395 47.4441 47.5159 47.9834 47.7061C48.8022 47.9948 49.341 48.7795 49.3174 49.6475C49.2935 50.5151 48.7129 51.268 47.8799 51.5117C40.3686 53.7081 32.4163 53.8127 27.5576 52.877C26.3367 52.6418 25.2232 52.3253 24.3291 51.9102C23.5556 51.551 22.4432 50.893 22.0137 49.6963C21.454 48.1365 22.3688 46.8981 23.1738 46.2393C23.9785 45.5808 25.1334 45.0519 26.502 44.5977Z" fill="#1D1D1D" stroke="#1D1D1D" stroke-width="4" stroke-linejoin="round"/>
<path d="M37.3845 40.0625C37.3858 40.0614 37.3868 40.059 37.3884 40.0576H37.3894C37.4005 40.0478 37.4199 40.0315 37.4451 40.0078C37.5045 39.952 37.5956 39.8613 37.7019 39.7422C37.9219 39.4958 38.1676 39.1674 38.3416 38.7998C38.5131 38.4374 38.5879 38.0958 38.5603 37.7734C38.5347 37.4751 38.4098 37.0395 37.9226 36.4785V36.4775C35.1452 33.2772 34.2212 30.1357 34.9958 27.1982C35.7312 24.4101 37.8727 22.3314 40.0115 20.8564C42.1909 19.3536 44.6615 18.2746 46.5388 17.5781C47.487 17.2263 48.3054 16.9641 48.8904 16.7891C49.1831 16.7015 49.4186 16.6358 49.5837 16.5908C49.6664 16.5683 49.732 16.5511 49.7781 16.5391C49.8007 16.5332 49.8186 16.5278 49.8318 16.5244C49.8384 16.5227 49.8442 16.5216 49.8484 16.5205C49.8503 16.52 49.8519 16.5199 49.8533 16.5195L49.8552 16.5186C49.856 16.5184 49.8569 16.5186 50.3416 18.459L49.8572 16.5186C50.8239 16.2772 51.8207 16.7846 52.1951 17.708C52.5692 18.6313 52.2072 19.6896 51.3455 20.1895C48.0613 22.0941 45.8416 23.6092 44.3875 24.8574C42.912 26.1239 42.4007 26.9677 42.24 27.4854C42.1136 27.8925 42.1395 28.2947 42.4666 28.9609C42.6565 29.3478 42.9029 29.7392 43.2117 30.1875L44.3298 31.7568V31.7578V31.7588C45.494 33.3976 45.8111 35.1086 45.4734 36.7217C45.1537 38.2478 44.2896 39.4972 43.4402 40.4229C42.5786 41.3617 41.6153 42.0942 40.8933 42.582C40.5269 42.8296 40.2094 43.0234 39.9792 43.1572C39.8643 43.224 39.7702 43.2762 39.7019 43.3135C39.6679 43.3321 39.6397 43.3473 39.6189 43.3584C39.6085 43.3639 39.5994 43.3685 39.5925 43.3721C39.5892 43.3738 39.5862 43.3757 39.5837 43.377C39.5825 43.3776 39.5809 43.3784 39.5798 43.3789L39.5789 43.3799L38.6599 41.6035L39.5769 43.3799C38.6677 43.8492 37.5513 43.557 36.989 42.7021C36.4287 41.8503 36.5987 40.7137 37.3826 40.0635L37.3845 40.0625Z" fill="#1D1D1D" stroke="#1D1D1D" stroke-width="4" stroke-linejoin="round"/>
<path d="M29.5623 37.5693C29.6418 37.5712 29.7061 37.574 29.7537 37.5762C29.7775 37.5773 29.7977 37.5782 29.8132 37.5791C29.8207 37.5795 29.8273 37.5797 29.8328 37.5801C29.8356 37.5803 29.8383 37.5799 29.8406 37.5801C29.8416 37.5801 29.8426 37.581 29.8435 37.5811H29.8455C29.8458 37.5862 29.8393 37.6843 29.7117 39.5762L29.8464 37.5811C30.8331 37.6476 31.6229 38.4256 31.7048 39.4111C31.7774 40.2859 31.2724 41.0893 30.4851 41.4189C33.3423 41.4403 36.862 41.3022 40.283 41.0156L41.1208 40.9404C43.0748 40.7538 44.9872 40.4997 46.4773 40.2803C47.3265 40.1552 48.0341 40.0416 48.5281 39.96C48.775 39.9192 48.9687 39.8868 49.0994 39.8643C49.1645 39.853 49.214 39.8437 49.2468 39.8379C49.2633 39.835 49.276 39.8334 49.2839 39.832C49.2875 39.8314 49.29 39.8304 49.2917 39.8301H49.2937C50.2945 39.6513 51.2709 40.2516 51.5623 41.2256C51.8535 42.1995 51.3678 43.2375 50.4333 43.6377L50.4236 43.6416C50.4146 43.6455 50.4 43.6516 50.3806 43.6602C50.341 43.6776 50.2807 43.7043 50.2039 43.7393C50.0497 43.8095 49.831 43.9121 49.5789 44.0371C49.0603 44.2942 48.4581 44.6194 47.9851 44.9424C47.7964 45.0712 47.5869 45.1665 47.366 45.2246C41.4589 46.7781 32.9772 47.1702 26.7986 46.8105C23.7602 46.6337 21.002 46.2624 19.3533 45.6338C18.929 45.472 18.4508 45.2473 18.0398 44.918C17.6419 44.5991 17.0571 43.9728 17.0046 43.0068C16.9518 42.0309 17.4746 41.3341 17.8669 40.9551C18.2667 40.5689 18.7625 40.2764 19.241 40.0449L19.7751 39.7939C22.4293 38.5838 24.8309 38.0255 26.616 37.7715C27.5686 37.6359 28.3491 37.5859 28.9041 37.5713C29.1815 37.564 29.4031 37.5657 29.5623 37.5693Z" fill="#1D1D1D" stroke="#1D1D1D" stroke-width="4" stroke-linejoin="round"/>
<path d="M41.7117 4.26172C42.4944 3.81672 43.4784 3.94915 44.115 4.58594L42.7 6C44.1144 4.58603 44.1157 4.58761 44.1169 4.58887C44.1175 4.58939 44.1191 4.59 44.1199 4.59082C44.1217 4.59264 44.1237 4.59465 44.1257 4.59668C44.1297 4.6007 44.1337 4.60549 44.1384 4.61035C44.1479 4.62012 44.1592 4.63141 44.1716 4.64453C44.1966 4.67096 44.2269 4.70512 44.2625 4.74512C44.3335 4.82503 44.4251 4.93234 44.5291 5.06641C44.7364 5.33391 44.9994 5.71216 45.2595 6.19629C45.781 7.16682 46.2989 8.57681 46.325 10.3594C46.3781 14.0101 44.3822 18.5644 37.9275 23.6602C35.5996 25.4987 34.511 26.9815 34.0496 28.1318C33.6175 29.2091 33.6706 30.1532 34.0154 31.1387C34.39 32.2092 35.0895 33.2812 35.9802 34.5547C36.8073 35.7372 37.8518 37.16 38.5134 38.6553C38.8953 39.5184 38.6217 40.5315 37.8572 41.085C37.0927 41.6383 36.0452 41.5824 35.3445 40.9502C32.4726 38.359 29.7541 35.7297 28.155 33.1152C27.3414 31.7849 26.7426 30.3417 26.6218 28.8115C26.4975 27.2352 26.8928 25.7038 27.8435 24.2764C29.0646 22.4429 30.7715 20.9194 32.4304 19.5732C34.1787 18.1547 35.7866 16.9933 37.2869 15.6348C38.7443 14.315 39.8474 13.0179 40.4744 11.5908C41.0772 10.2186 41.2962 8.59813 40.7615 6.49219C40.5399 5.61955 40.929 4.70674 41.7117 4.26172Z" fill="#1D1D1D" stroke="#1D1D1D" stroke-width="4" stroke-linejoin="round"/>
<path d="M20.9924 66.7666C20.995 66.7686 20.9975 66.7713 21.0002 66.7734C21.0207 66.7891 21.0426 66.8061 21.0667 66.8232C21.1146 66.8575 21.1688 66.8937 21.2297 66.9316C21.3517 67.0075 21.5018 67.0903 21.6858 67.1777C22.0524 67.352 22.5652 67.5499 23.2815 67.749C24.7084 68.1456 27.0098 68.5665 30.7083 68.8037L31.7737 68.8652C37.1837 69.1466 43.7738 69.0124 49.2258 68.2051C52.1167 67.777 54.8198 67.1412 56.8792 66.2051C58.8056 65.3293 60.894 63.8469 61.0842 61.373C61.1602 60.385 60.5015 59.49 59.5354 59.2695C58.6839 59.0754 57.8205 59.4573 57.3811 60.1826C57.3135 60.2474 57.1165 60.4177 56.6917 60.6553C55.7188 61.1992 53.6797 62.0297 49.6418 62.79C40.51 64.5085 29.1812 64.3044 22.5374 63.209L22.4963 63.457C22.009 63.4387 21.3924 63.4944 20.7981 63.7686C20.2679 64.2988 20.0784 65.0811 20.3079 65.7949C20.4345 66.189 20.6781 66.5245 20.9944 66.7676L20.9924 66.7666ZM20.9924 66.7666H20.9905C20.9875 66.7643 20.985 66.7604 20.9817 66.7578M20.9924 66.7666C20.9886 66.7637 20.9852 66.7605 20.9817 66.7578M20.9817 66.7578C20.9764 66.7537 20.9709 66.7505 20.969 66.749C20.9668 66.7473 20.9641 66.7459 20.9631 66.7451C20.9643 66.746 20.9678 66.7487 20.9719 66.752C20.9748 66.7542 20.9786 66.7554 20.9817 66.7578ZM57.2659 60.4014L57.2366 60.4688C57.235 60.4727 57.2333 60.4774 57.2317 60.4814C57.2477 60.4412 57.2652 60.4019 57.2834 60.3633C57.2776 60.3754 57.2718 60.3882 57.2659 60.4014Z" fill="#1D1D1D" stroke="#1D1D1D" stroke-width="4" stroke-linejoin="round"/>
<path d="M22.6035 55.6045C23.3001 55.6313 24.247 55.7603 25.0283 56.3105C25.7624 56.8277 26.062 57.7713 25.7607 58.6172C25.4998 59.3496 24.8436 59.8517 24.0908 59.9326C24.623 60 25.1874 60.0649 25.7822 60.1201C28.6962 60.3907 32.1304 60.4922 35.6152 60.4482C42.6651 60.3592 49.5911 59.6773 52.7461 58.7217L53.0166 58.6348C53.1115 58.6024 53.1966 58.5699 53.2734 58.54C53.1661 58.0468 53.2442 57.5154 53.5283 57.0586C54.0577 56.2076 55.1352 55.879 56.0488 56.291C56.9053 56.6773 58.3657 57.5463 58.4023 59.25C58.4199 60.0732 58.0693 60.7338 57.7061 61.1875C57.3469 61.6361 56.8916 61.9939 56.4434 62.2803C54.7213 63.3805 51.7154 64.2908 48.042 64.9453C40.5501 66.2803 29.2274 66.7249 16.8389 64.7158C15.6391 64.5213 14.5982 64.2377 13.8076 63.7949C13.0182 63.3527 12.0556 62.4779 12.1035 61.0732C12.1438 59.8939 12.9101 59.0706 13.3994 58.6387C13.9635 58.1408 14.6695 57.7175 15.377 57.3682C16.803 56.6639 18.5858 56.0912 20.2002 55.8037C21.0087 55.6598 21.8396 55.5751 22.6035 55.6045Z" fill="#1D1D1D" stroke="#1D1D1D" stroke-width="4" stroke-linejoin="round"/>
<path d="M51.0652 37.5117C55.571 35.9276 60.356 38.1448 60.9988 42.4287C61.3172 44.5517 60.4782 46.7296 58.613 48.5547C56.7734 50.3548 53.901 51.8703 49.8787 52.9277L49.8035 52.6426C49.084 52.5196 47.9678 52.1086 47.3699 50.9932C47.3699 50.4735 47.571 49.9918 47.907 49.6309C48.095 49.3313 48.3594 49.0843 48.6775 48.9189C54.2856 46.0048 54.6482 43.7289 54.5349 43.0645C54.4063 42.3108 53.4907 41.6589 52.6375 41.7344L52.4675 41.7588C52.0697 41.8416 51.7981 41.9158 51.6414 41.9629C51.563 41.9864 51.5129 42.0037 51.49 42.0117C51.4826 42.0143 51.478 42.016 51.4763 42.0166C51.4774 42.0162 51.4797 42.015 51.4832 42.0137C51.4852 42.0129 51.4881 42.0119 51.491 42.0107C51.4923 42.0102 51.4943 42.0094 51.4958 42.0088L51.4978 42.0078H51.4988V42.0068C50.6925 42.3322 49.7686 42.1003 49.2126 41.4316C48.6564 40.7625 48.5971 39.8106 49.0652 39.0771L50.7507 40.1533C49.0649 39.0772 49.0648 39.0758 49.0652 39.0752L49.0681 39.0723L49.0769 39.0576C49.0815 39.0506 49.087 39.0424 49.0925 39.0342C49.1035 39.0179 49.1162 38.999 49.1306 38.9785C49.1595 38.9374 49.1962 38.8879 49.24 38.832C49.3271 38.7211 49.4481 38.58 49.6033 38.4287C49.9063 38.1334 50.3894 37.7515 51.0593 37.5137L51.0652 37.5117ZM48.0857 49.46C48.0719 49.4716 48.0612 49.4809 48.0583 49.4834C48.0505 49.4902 48.0438 49.4953 48.0417 49.4971C48.0365 49.5017 48.0325 49.5056 48.03 49.5078C48.0246 49.5127 48.0206 49.5175 48.0173 49.5205C48.0134 49.5242 48.0097 49.5273 48.0066 49.5303C48.0396 49.4995 48.074 49.47 48.1091 49.4414C48.0968 49.4514 48.0878 49.4582 48.0857 49.46ZM48.2712 49.3223C48.2703 49.3229 48.2693 49.3236 48.2683 49.3242C48.2699 49.3232 48.2716 49.3223 48.2732 49.3213L48.2712 49.3223Z" fill="#1D1D1D" stroke="#1D1D1D" stroke-width="4" stroke-linejoin="round"/>
<rect x="48" y="53.8271" width="3" height="1.66031" transform="rotate(-15.9986 48 53.8271)" fill="#1D1D1D"/>
<path d="M28.8795 53.3379C28.8795 53.3379 26.5211 54.7094 30.5578 55.1735C35.4482 55.7314 37.9477 55.6513 43.3369 54.6313C43.3369 54.6313 44.7538 55.5198 46.7326 56.2893C34.6513 61.4671 19.3903 55.9893 28.8795 53.3379Z" fill="#5382A1"/>
<path d="M27.4033 46.5811C27.4033 46.5811 24.7582 48.539 28.7979 48.9569C34.022 49.4958 38.1475 49.5399 45.2863 48.1653C45.2863 48.1653 46.2737 49.1663 47.8264 49.7137C33.2194 53.985 16.9499 50.0506 27.4033 46.5811Z" fill="#5382A1"/>
<path d="M39.8485 35.1186C42.8254 38.5459 39.0664 41.63 39.0664 41.63C39.0664 41.63 46.6251 37.728 43.1537 32.8418C39.9116 28.2851 37.4253 26.021 50.885 18.2148C50.885 18.2148 29.7577 23.4915 39.8485 35.1186Z" fill="#E76F00"/>
<path d="M30.014 39.5804C30.014 39.5804 18.7975 42.2445 26.042 43.2119C29.1008 43.6214 35.1985 43.5288 40.8783 43.0529C45.5202 42.6613 50.1812 41.8288 50.1812 41.8288C50.1812 41.8288 48.5444 42.5297 47.3602 43.3383C35.9701 46.3339 13.9665 44.9403 20.3011 41.8762C25.6582 39.2866 30.014 39.5804 30.014 39.5804Z" fill="#5382A1"/>
<path d="M43.154 5.61035C43.154 5.61035 49.5664 12.0249 37.0721 21.8887C27.053 29.8012 34.7875 34.3126 37.068 39.4672C31.2196 34.1905 26.9277 29.5455 29.8071 25.2223C34.0333 18.8763 45.7413 15.7995 43.154 5.61035Z" fill="#E76F00"/>
<path d="M31.1513 67.1311C42.2653 67.8425 59.3321 66.7364 59.7363 61.4775C59.7363 61.4775 58.9593 63.4711 50.5512 65.0543C41.0651 66.8395 29.3655 66.6311 22.4263 65.487C22.4264 65.4868 23.8468 66.6627 31.1513 67.1311Z" fill="#5382A1"/>
<path d="M55.8271 58.3354C55.8271 58.3354 57.5723 59.7735 53.905 60.8859C46.9316 62.9985 24.8807 63.6364 18.7551 60.9701C16.5531 60.0122 20.6825 58.6828 21.9814 58.4038C23.3361 58.1101 24.1102 58.1648 24.1102 58.1648C21.6614 56.4397 8.28183 61.5521 17.3141 63.0163C41.9463 67.0109 62.2164 61.2175 55.8271 58.3354Z" fill="#5382A1"/>
<path d="M50.1346 50.8265C61.7131 44.8099 56.3597 39.0279 52.623 39.8068C51.7071 39.9975 51.2988 40.1626 51.2988 40.1626C51.2988 40.1626 51.6388 39.63 52.2882 39.3995C59.6805 36.8006 65.3656 47.0646 49.9019 51.1298C49.9019 51.1299 50.081 50.9697 50.1346 50.8265Z" fill="#5382A1"/>
</svg>
