<svg width="72" height="72" viewBox="0 0 72 72" fill="none" xmlns="http://www.w3.org/2000/svg">
<g clip-path="url(#clip0_2_1324)">
<path d="M67.5 0H4.5C2.01472 0 0 2.01472 0 4.5V67.5C0 69.9853 2.01472 72 4.5 72H67.5C69.9853 72 72 69.9853 72 67.5V4.5C72 2.01472 69.9853 0 67.5 0Z" fill="white"/>
<path d="M67.5 4.5H4.5V67.5H67.5V4.5Z" fill="#F7DF1E"/>
<path d="M46.7875 53.701C48.0625 55.801 49.7125 57.301 52.6375 57.301C55.5625 57.301 56.6875 56.101 56.6875 54.376C56.6875 52.651 55.1125 51.601 52.4125 50.476L50.9125 49.876C46.6375 48.076 43.7875 45.751 43.7875 40.951C43.7875 36.151 47.1625 33.151 52.4875 33.151C57.8125 33.151 58.9375 34.426 60.8875 37.876L56.3125 40.801C55.2625 39.001 54.2125 38.251 52.4875 38.251C50.7625 38.251 49.6375 39.376 49.6375 40.801C49.6375 42.226 50.7625 43.276 53.3125 44.401L54.8125 45.001C59.8375 47.176 62.6875 49.351 62.6875 54.301C62.6875 59.251 58.4875 62.551 52.8625 62.551C47.2375 62.551 43.7875 59.926 42.0625 56.476L46.8625 53.701H46.7875ZM25.8625 54.226C26.7625 55.876 27.6625 57.301 29.6875 57.301C31.7125 57.301 32.8375 56.551 32.8375 53.551V33.451H38.7625V53.626C38.7625 59.776 35.1625 62.551 29.9125 62.551C24.6625 62.551 22.4125 60.076 21.0625 57.151L25.8625 54.226Z" fill="black"/>
</g>
<defs>
<clipPath id="clip0_2_1324">
<rect width="72" height="72" fill="white"/>
</clipPath>
</defs>
</svg>
