<svg width="96" height="96" viewBox="0 0 96 96" fill="none" xmlns="http://www.w3.org/2000/svg">
<g clip-path="url(#clip0_3_3274)">
<path d="M48 84C28.125 84 12 67.875 12 48C12 28.125 28.125 12 48 12C67.875 12 84 28.125 84 48C84 67.875 67.875 84 48 84Z" fill="white"/>
<path d="M48 79.5C65.397 79.5 79.5 65.397 79.5 48C79.5 30.603 65.397 16.5 48 16.5C30.603 16.5 16.5 30.603 16.5 48C16.5 65.397 30.603 79.5 48 79.5Z" fill="#757575"/>
<path d="M25.948 25.948H70.048V70.048H25.948V25.948Z" fill="#BDBDBD"/>
<path d="M70.048 25.948L47.998 70.048L25.948 25.948H70.048Z" fill="white"/>
</g>
<defs>
<clipPath id="clip0_3_3274">
<rect width="72" height="72" fill="white" transform="translate(12 12)"/>
</clipPath>
</defs>
</svg>
