<svg width="72" height="72" viewBox="0 0 72 72" fill="none" xmlns="http://www.w3.org/2000/svg">
<path d="M70.0425 27.0975C67.7775 17.9775 62.3325 16.065 58.155 16.065H55.14V12.93C55.14 6.9225 50.4 1.77 43.86 0.675C41.1675 0.225 38.355 0 35.505 0L29.085 0.03L29.205 0.3975C28.56 0.48 27.9375 0.5775 27.33 0.6825C19.455 2.07 16.095 5.7375 16.095 12.93V16.065H14.955C8.1975 16.065 2.7975 20.4075 1.1925 27.1275C-0.3975 33.7125 -0.3975 37.935 1.1925 44.5125C2.8575 51.4425 7.4775 55.5825 13.56 55.5825H16.1025V58.7175C16.1025 64.3125 20.0175 68.6625 26.85 70.6725C29.8875 71.565 32.745 72 35.58 72C38.415 72 41.3175 71.565 44.385 70.68C53.7525 67.9725 55.155 62.025 55.155 58.725V55.59H58.17C66.405 55.59 68.805 48.36 69.96 44.895C71.775 39.45 71.805 34.1325 70.0575 27.1125L70.0425 27.0975Z" fill="white"/>
<path d="M35.284 4.49023C32.7115 4.50523 30.259 4.72273 28.1065 5.10523C21.7465 6.23023 20.5915 8.57773 20.5915 12.9202V18.6502H35.6215V20.5627H14.9515C10.5865 20.5627 6.75403 23.1877 5.56153 28.1827C4.18153 33.9052 4.12153 37.4827 5.56153 43.4602C6.62653 47.9077 9.18402 51.0802 13.549 51.0802H18.7165V44.2102C18.7165 39.2527 23.0065 34.8727 28.1065 34.8727H43.1215C47.299 34.8727 50.6365 31.4302 50.6365 27.2377V12.9277C50.6365 8.85523 47.2015 5.79523 43.1215 5.11273C40.5415 4.68523 37.864 4.49023 35.2915 4.49773L35.284 4.49023ZM27.1615 9.10273C28.714 9.10273 29.9815 10.3927 29.9815 11.9752C29.9815 13.5502 28.714 14.8327 27.1615 14.8327C25.6015 14.8327 24.3415 13.5577 24.3415 11.9752C24.3415 10.3927 25.6015 9.10273 27.1615 9.10273Z" fill="url(#paint0_linear_448_1113)"/>
<path d="M52.5137 20.5554V27.2304C52.5137 32.4054 48.1262 36.7629 43.1237 36.7629H28.1087C23.9988 36.7629 20.5938 40.2804 20.5938 44.3979V58.7079C20.5938 62.7804 24.1337 65.1804 28.1087 66.3429C32.8637 67.7454 37.4312 67.9929 43.1237 66.3429C46.9112 65.2479 50.6387 63.0429 50.6387 58.7079V52.9779H35.6237V51.0654H58.1537C62.5187 51.0654 64.1537 48.0204 65.6687 43.4454C67.2362 38.7354 67.1687 34.2054 65.6687 28.1679C64.5887 23.8179 62.5262 20.5479 58.1537 20.5479H52.5062L52.5137 20.5554ZM44.0687 56.8029C45.6287 56.8029 46.8887 58.0779 46.8887 59.6604C46.8887 61.2429 45.6287 62.5329 44.0687 62.5329C42.5087 62.5329 41.2487 61.2429 41.2487 59.6604C41.2487 58.0779 42.5162 56.8029 44.0687 56.8029Z" fill="url(#paint1_linear_448_1113)"/>
<defs>
<linearGradient id="paint0_linear_448_1113" x1="1.63843" y1="7.14898" x2="36.3865" y2="36.5129" gradientUnits="userSpaceOnUse">
<stop stop-color="#5A9FD4"/>
<stop offset="1" stop-color="#306998"/>
</linearGradient>
<linearGradient id="paint1_linear_448_1113" x1="49.1174" y1="55.26" x2="36.584" y2="37.8604" gradientUnits="userSpaceOnUse">
<stop stop-color="#FFD43B"/>
<stop offset="1" stop-color="#FFE873"/>
</linearGradient>
</defs>
</svg>
