<svg width="41" height="40" viewBox="0 0 41 40" fill="none" xmlns="http://www.w3.org/2000/svg">
<g clip-path="url(#clip0_3_3230)">
<path d="M27.7783 38.2167C25.7217 38.2167 23.4348 37.2037 20.9826 35.208C20.8217 35.0776 20.6609 34.9385 20.4913 34.795C20.3261 34.9385 20.1609 35.0776 20.0043 35.2037C17.5478 37.2037 15.2609 38.2167 13.2043 38.2167C12.2043 38.2167 11.2913 37.9776 10.4826 37.4993C9.03913 36.6646 6.74348 34.3254 7.74348 28.1167C7.77826 27.9037 7.81739 27.682 7.86087 27.4515C3.1 25.7646 0.5 23.2124 0.5 20.1733C0.5 17.1341 3.16087 14.5559 7.86522 12.8863C7.82174 12.6646 7.78261 12.4472 7.74783 12.2254C6.74783 6.01674 9.04348 3.6776 10.5 2.83413C11.2913 2.3776 12.1913 2.14282 13.1652 2.14282C15.8 2.14282 18.4522 3.82543 20.5 5.5776C21.1174 5.05152 21.7913 4.52543 22.5043 4.05587L22.6478 3.96456C24.2522 2.92108 26.0478 2.14282 27.8304 2.14282C28.8043 2.14282 29.7 2.37326 30.4913 2.83413C33.0913 4.32108 34.0217 7.93413 33.113 12.8646C37.4087 14.3906 40 16.695 40.4217 19.3733L40.4826 19.4341L40.5 20.1689C40.5 23.1776 37.8391 25.7863 33.1348 27.4559C33.1783 27.6776 33.2174 27.895 33.2522 28.1167C34.2304 34.3341 31.9391 36.6689 30.487 37.508C29.6913 37.9776 28.7739 38.2167 27.7739 38.2167H27.7783Z" fill="white"/>
<path d="M20.4912 23.4125C22.2868 23.4125 23.7434 21.9559 23.7434 20.1559C23.7434 18.3559 22.2868 16.8994 20.4912 16.8994C18.6955 16.8994 17.239 18.3559 17.239 20.1559C17.239 21.9559 18.6955 23.4125 20.4912 23.4125Z" fill="#61DAFB"/>
<path d="M38.7434 20.1559C38.7434 17.5993 35.7434 15.3776 31.0781 14.0428C32.2521 9.32543 31.839 5.61239 29.6173 4.34283C27.3955 3.05587 23.9825 4.56456 20.4912 7.92978C16.9999 4.54717 13.5868 3.05587 11.3651 4.34283C9.52597 5.40804 8.84336 8.10804 9.46075 11.9472C9.5738 12.6298 9.73032 13.3298 9.90423 14.0602C5.23901 15.395 2.23901 17.6167 2.23901 20.1733C2.23901 22.7298 5.23901 24.9385 9.90423 26.2863C9.73032 26.9993 9.56945 27.7167 9.46075 28.3993C8.84336 32.2428 9.52597 34.9428 11.3651 36.0037C11.9042 36.3211 12.5216 36.482 13.2042 36.482C14.8216 36.482 16.7738 35.5907 18.9042 33.8602C19.426 33.4298 19.9694 32.9385 20.4912 32.4298C21.0129 32.9385 21.5564 33.4298 22.0781 33.8602C24.2042 35.5907 26.1564 36.482 27.7781 36.482C28.4608 36.482 29.0781 36.3211 29.6173 36.0037C31.4564 34.9385 32.139 32.2385 31.539 28.3993C31.426 27.7167 31.2695 27.0167 31.0955 26.2863C35.7608 24.9515 38.7608 22.7298 38.7608 20.1733L38.7434 20.1559ZM28.826 5.7037C30.2564 6.52978 30.5738 9.54717 29.539 13.6428C28.0477 13.295 26.4129 13.0385 24.6825 12.882C23.6825 11.4689 22.6347 10.182 21.6042 9.05587C24.0173 6.72109 26.2564 5.45152 27.7955 5.45152C28.1912 5.45152 28.5434 5.52978 28.8434 5.7037H28.826ZM25.5868 23.095C25.0173 24.0646 24.4303 25.0167 23.826 25.9037C22.7608 25.982 21.6521 26.0298 20.5086 26.0298C19.3651 26.0298 18.2564 25.982 17.1912 25.9037C16.5868 25.0124 15.9868 24.0602 15.4303 23.095C14.8608 22.1124 14.3521 21.1428 13.8738 20.1559C14.3521 19.1733 14.8564 18.2037 15.4303 17.2167C15.9999 16.2167 16.6042 15.2776 17.1912 14.408C18.2564 14.3298 19.3651 14.282 20.5086 14.282C21.6521 14.282 22.7608 14.3298 23.826 14.408C24.4303 15.282 25.0173 16.2167 25.5868 17.2167C26.1434 18.1863 26.6651 19.1689 27.1434 20.1559C26.6825 21.1254 26.1738 22.095 25.5868 23.095ZM27.9694 22.0124C28.4129 23.0776 28.7955 24.108 29.1129 25.1254C28.0955 25.3472 26.9999 25.5559 25.8434 25.695C26.226 25.108 26.5912 24.5037 26.9564 23.8863C27.3216 23.2689 27.6564 22.6298 27.9738 22.0124H27.9694ZM20.4912 30.1124C19.7781 29.3341 19.0608 28.4776 18.3651 27.5559C19.0651 27.5863 19.7608 27.6037 20.4912 27.6037C21.2216 27.6037 21.9216 27.5863 22.6173 27.5559C21.9173 28.4776 21.2042 29.3167 20.4912 30.1124ZM15.1434 25.6993C13.9868 25.5559 12.8912 25.3646 11.8738 25.1298C12.1912 24.1124 12.5738 23.082 13.0173 22.0167C13.3347 22.6341 13.6694 23.2733 14.0347 23.8907C14.3999 24.508 14.7651 25.1124 15.1477 25.6993H15.1434ZM13.0173 18.282C12.5738 17.2167 12.1912 16.1863 11.8738 15.1689C12.8912 14.9472 13.9868 14.7385 15.1434 14.5993C14.7608 15.1863 14.3955 15.7907 14.0303 16.408C13.6651 17.0254 13.3303 17.6472 13.0129 18.282H13.0173ZM20.4912 10.182C21.1912 10.9428 21.9042 11.8037 22.6173 12.7385C21.9173 12.708 21.2216 12.6907 20.4912 12.6907C19.7608 12.6907 19.0608 12.708 18.3651 12.7385C19.0781 11.8037 19.7781 10.9428 20.4912 10.182ZM26.9521 16.4254C26.5868 15.808 26.2216 15.2037 25.839 14.6167C26.9955 14.7602 28.0912 14.9515 29.1086 15.1863C28.8086 16.1863 28.426 17.2167 27.9651 18.2993C27.6477 17.682 27.2999 17.0428 26.9477 16.4254H26.9521ZM11.0173 11.6907C10.526 8.595 10.939 6.41674 12.1608 5.72109C12.4608 5.54717 12.8129 5.46891 13.2086 5.46891C14.7477 5.46891 16.9868 6.73848 19.3999 9.07326C18.3521 10.1993 17.3216 11.4863 16.3216 12.8993C14.5912 13.0602 12.9564 13.3124 11.4651 13.6602C11.2912 12.995 11.1477 12.3254 11.0521 11.708L11.0216 11.6907H11.0173ZM3.82597 20.1559C3.82597 18.5037 6.26945 16.7254 10.3347 15.5689C10.7955 17.0472 11.3999 18.5863 12.1129 20.1559C11.3999 21.7124 10.7955 23.2515 10.3347 24.7428C6.28684 23.582 3.82597 21.8211 3.82597 20.1559ZM17.9042 32.5907C15.4738 34.5602 13.3825 35.2907 12.1564 34.5907C10.9347 33.8907 10.5216 31.6994 11.0129 28.6211C11.1086 27.9863 11.2651 27.3341 11.426 26.6689C12.9173 27.0167 14.5521 27.2733 16.2825 27.4298C17.2825 28.8254 18.3129 30.1298 19.3608 31.2733C18.8694 31.7515 18.3781 32.208 17.8868 32.608L17.9042 32.5907ZM29.9694 28.6211C30.4608 31.7167 30.0477 33.895 28.826 34.5907C27.6042 35.2907 25.5086 34.5602 23.0781 32.5907C22.5868 32.195 22.0955 31.7341 21.5999 31.2559C22.6651 30.1124 23.6955 28.8254 24.6781 27.4298C26.4086 27.2689 28.0434 27.0167 29.5347 26.6689C29.7086 27.3341 29.8521 28.0037 29.9477 28.6211H29.9651H29.9694ZM30.6521 24.7298C30.1912 23.2515 29.5868 21.7124 28.8738 20.1428C29.6042 18.5559 30.1912 17.0167 30.6521 15.5559C34.7173 16.7167 37.1608 18.4776 37.1608 20.1428C37.1608 21.808 34.7173 23.5733 30.6521 24.7298Z" fill="#61DAFB"/>
</g>
<defs>
<clipPath id="clip0_3_3230">
<rect width="40" height="40" fill="white" transform="translate(0.5)"/>
</clipPath>
</defs>
</svg>
