<svg width="72" height="72" viewBox="0 0 72 72" fill="none" xmlns="http://www.w3.org/2000/svg">
<path d="M49.1009 68.7905C45.3991 68.7905 41.2826 66.967 36.8687 63.3748C36.5791 63.14 36.2896 62.8896 35.9843 62.6313C35.687 62.8896 35.3896 63.14 35.1078 63.367C30.6861 66.967 26.5696 68.7905 22.8678 68.7905C21.0678 68.7905 19.4243 68.36 17.9687 67.4992C15.3704 65.9966 11.2383 61.7861 13.0383 50.6105C13.1009 50.227 13.1713 49.8279 13.2496 49.4131C4.68 46.3766 0 41.7826 0 36.3122C0 30.8418 4.78957 26.2009 13.2574 23.1957C13.1791 22.7966 13.1087 22.4052 13.0461 22.0061C11.2461 10.8305 15.3783 6.62003 18 5.10177C19.4243 4.28003 21.0443 3.85742 22.7974 3.85742C27.54 3.85742 32.3139 6.88612 36 10.04C37.1113 9.09307 38.3243 8.14612 39.6078 7.3009L39.8661 7.13655C42.7539 5.25829 45.9861 3.85742 49.1948 3.85742C50.9478 3.85742 52.56 4.2722 53.9843 5.10177C58.6643 7.77829 60.3391 14.2818 58.7035 23.1566C66.4357 25.9035 71.1 30.0513 71.8591 34.8722L71.9687 34.9818L72 36.3044C72 41.72 67.2104 46.4157 58.7426 49.4209C58.8209 49.82 58.8913 50.2113 58.9539 50.6105C60.7148 61.8018 56.5904 66.0044 53.9765 67.5148C52.5443 68.36 50.893 68.7905 49.093 68.7905H49.1009Z" fill="#1D1D1D"/>
<path d="M35.9843 42.1424C39.2165 42.1424 41.8382 39.5207 41.8382 36.2807C41.8382 33.0407 39.2165 30.4189 35.9843 30.4189C32.7521 30.4189 30.1304 33.0407 30.1304 36.2807C30.1304 39.5207 32.7521 42.1424 35.9843 42.1424Z" fill="#61DAFB"/>
<path d="M68.8382 36.2805C68.8382 31.6788 63.4382 27.6796 55.0408 25.277C57.1539 16.7857 56.4104 10.1023 52.4112 7.81704C48.4121 5.50052 42.2686 8.21617 35.9843 14.2736C29.6999 8.18486 23.5565 5.50052 19.5573 7.81704C16.2469 9.73443 15.0182 14.5944 16.1295 21.5049C16.333 22.7336 16.6147 23.9936 16.9278 25.3083C8.53037 27.711 3.13037 31.7101 3.13037 36.3118C3.13037 40.9136 8.53037 44.8892 16.9278 47.3153C16.6147 48.5988 16.3252 49.8901 16.1295 51.1188C15.0182 58.037 16.2469 62.897 19.5573 64.8066C20.5278 65.3779 21.6391 65.6675 22.8678 65.6675C25.7791 65.6675 29.293 64.0631 33.1278 60.9483C34.0669 60.1736 35.0452 59.2892 35.9843 58.3736C36.9234 59.2892 37.9017 60.1736 38.8408 60.9483C42.6678 64.0631 46.1817 65.6675 49.1008 65.6675C50.3295 65.6675 51.4408 65.3779 52.4112 64.8066C55.7217 62.8892 56.9504 58.0292 55.8704 51.1188C55.6669 49.8901 55.3852 48.6301 55.0721 47.3153C63.4695 44.9127 68.8695 40.9136 68.8695 36.3118L68.8382 36.2805ZM50.9869 10.2666C53.5617 11.7536 54.133 17.1849 52.2704 24.557C49.586 23.931 46.6434 23.4692 43.5286 23.1875C41.7286 20.644 39.8425 18.3275 37.9878 16.3005C42.3312 12.0979 46.3617 9.81269 49.1321 9.81269C49.8443 9.81269 50.4782 9.95356 51.0182 10.2666H50.9869ZM45.1565 41.571C44.1312 43.3162 43.0747 45.0301 41.9869 46.6266C40.0695 46.7675 38.0739 46.8536 36.0156 46.8536C33.9573 46.8536 31.9617 46.7675 30.0443 46.6266C28.9565 45.0223 27.8765 43.3083 26.8747 41.571C25.8495 39.8023 24.9339 38.057 24.073 36.2805C24.9339 34.5118 25.8417 32.7666 26.8747 30.9901C27.8999 29.1901 28.9878 27.4996 30.0443 25.9344C31.9617 25.7936 33.9573 25.7075 36.0156 25.7075C38.0739 25.7075 40.0695 25.7936 41.9869 25.9344C43.0747 27.5075 44.1312 29.1901 45.1565 30.9901C46.1582 32.7353 47.0973 34.504 47.9582 36.2805C47.1286 38.0257 46.213 39.771 45.1565 41.571ZM49.4452 39.6223C50.2434 41.5397 50.9321 43.3944 51.5034 45.2257C49.6721 45.6249 47.6999 46.0005 45.6182 46.251C46.3069 45.1944 46.9643 44.1066 47.6217 42.9953C48.2791 41.884 48.8817 40.7336 49.453 39.6223H49.4452ZM35.9843 54.2023C34.7008 52.8014 33.4095 51.2597 32.1573 49.6005C33.4173 49.6553 34.6695 49.6866 35.9843 49.6866C37.2991 49.6866 38.5591 49.6553 39.8112 49.6005C38.5512 51.2597 37.2678 52.7701 35.9843 54.2023ZM26.3582 46.2588C24.2765 46.0005 22.3043 45.6562 20.473 45.2336C21.0443 43.4023 21.733 41.5475 22.5312 39.6301C23.1025 40.7414 23.7052 41.8918 24.3625 43.0031C25.0199 44.1144 25.6773 45.2023 26.366 46.2588H26.3582ZM22.5312 32.9075C21.733 30.9901 21.0443 29.1353 20.473 27.304C22.3043 26.9049 24.2765 26.5292 26.3582 26.2788C25.6695 27.3353 25.0121 28.4231 24.3547 29.5344C23.6973 30.6457 23.0947 31.7649 22.5234 32.9075H22.5312ZM35.9843 18.3275C37.2443 19.697 38.5278 21.2466 39.8112 22.9292C38.5512 22.8744 37.2991 22.8431 35.9843 22.8431C34.6695 22.8431 33.4095 22.8744 32.1573 22.9292C33.4408 21.2466 34.7008 19.697 35.9843 18.3275ZM47.6139 29.5657C46.9565 28.4544 46.2991 27.3666 45.6104 26.3101C47.6921 26.5683 49.6643 26.9127 51.4956 27.3353C50.9556 29.1353 50.2669 30.9901 49.4373 32.9388C48.866 31.8275 48.2399 30.677 47.606 29.5657H47.6139ZM18.9312 21.0431C18.0469 15.4709 18.7904 11.5501 20.9895 10.2979C21.5295 9.98486 22.1634 9.84399 22.8756 9.84399C25.646 9.84399 29.6765 12.1292 34.0199 16.3318C32.1339 18.3588 30.2791 20.6753 28.4791 23.2188C25.3643 23.5083 22.4217 23.9623 19.7373 24.5883C19.4243 23.391 19.166 22.1857 18.9939 21.0744L18.9391 21.0431H18.9312ZM5.98689 36.2805C5.98689 33.3066 10.3852 30.1057 17.7025 28.024C18.5321 30.6849 19.6199 33.4553 20.9034 36.2805C19.6199 39.0823 18.5321 41.8527 17.7025 44.537C10.4165 42.4475 5.98689 39.2779 5.98689 36.2805ZM31.3278 58.6631C26.953 62.2083 23.1886 63.5231 20.9817 62.2631C18.7825 61.0031 18.0391 57.0588 18.9234 51.5179C19.0956 50.3753 19.3773 49.2014 19.6669 48.004C22.3512 48.6301 25.2939 49.0918 28.4086 49.3736C30.2086 51.8857 32.0634 54.2336 33.9495 56.2918C33.0652 57.1527 32.1808 57.9744 31.2965 58.6944L31.3278 58.6631ZM53.0452 51.5179C53.9295 57.0901 53.186 61.011 50.9869 62.2631C48.7878 63.5231 45.0156 62.2083 40.6408 58.6631C39.7565 57.951 38.8721 57.1214 37.9799 56.2605C39.8973 54.2023 41.7521 51.8857 43.5208 49.3736C46.6356 49.084 49.5782 48.6301 52.2625 48.004C52.5756 49.2014 52.8339 50.4066 53.006 51.5179H53.0373H53.0452ZM54.2739 44.5136C53.4443 41.8527 52.3565 39.0823 51.073 36.257C52.3878 33.4005 53.4443 30.6301 54.2739 28.0005C61.5912 30.0901 65.9895 33.2597 65.9895 36.257C65.9895 39.2544 61.5912 42.4318 54.2739 44.5136Z" fill="#61DAFB"/>
</svg>
