<svg width="96" height="96" viewBox="0 0 96 96" fill="none" xmlns="http://www.w3.org/2000/svg">
<path d="M78.9448 53.1C78.8773 53.04 78.8098 52.98 78.7423 52.92C79.0273 51.165 79.1623 49.5675 79.1623 48.0225C79.1623 46.32 78.9823 44.6775 78.7423 43.1625C80.0923 42.2925 80.6023 41.01 80.7748 40.56L80.8573 40.3725C81.1723 39.6525 82.0573 37.65 81.2023 35.3775C80.9473 34.32 80.4448 33.57 80.1373 33.15C79.7923 32.3625 79.3873 31.71 79.0498 31.1625C78.8548 30.84 78.6673 30.54 78.5323 30.255C78.1873 29.565 77.8123 28.9425 77.4898 28.395C77.2198 27.9375 76.9573 27.5025 76.7923 27.18C75.8398 25.1925 74.3998 23.8275 72.4873 23.1C71.6623 22.7925 70.8223 22.635 70.0048 22.635C69.3523 22.635 68.7073 22.7325 68.0398 22.9425C67.8148 23.0175 67.5823 23.0925 67.3573 23.1675C64.8598 21.15 62.1373 19.56 59.2348 18.4125C59.1748 18.105 59.0998 17.7975 59.0173 17.4675C58.5148 15.5625 57.3973 14.055 55.8598 13.215C54.8548 12.6375 53.4823 12 51.6298 12C50.3473 12.015 49.0648 12.03 47.7748 12.03C46.4848 12.03 45.2098 12.0225 43.8598 12C42.7273 12 41.8723 12.2775 41.3473 12.4425L41.2498 12.4725C38.6548 13.3725 36.8848 15.4125 36.3973 18.105C36.3823 18.195 36.3673 18.285 36.3598 18.375C33.4423 19.5375 30.7123 21.1275 28.2073 23.1225C27.9748 23.04 27.7423 22.965 27.5098 22.8975C26.8798 22.71 26.2198 22.6125 25.5448 22.6125C23.2198 22.6125 20.9623 23.7825 19.6198 25.7325C19.3123 26.19 19.1023 26.61 18.9448 26.9175C18.8998 27.0075 18.8623 27.09 18.8473 27.12L18.8023 27.1875C18.3223 27.9 17.9323 28.605 17.5873 29.2275C17.4148 29.535 17.2498 29.835 17.0623 30.15C16.7848 30.6225 16.5073 31.1025 16.2373 31.5825C15.8698 32.2275 15.5023 32.88 15.1123 33.5025L15.0673 33.585C14.4148 34.6875 14.1673 35.8575 14.0623 36.6975C13.8148 38.94 14.7448 41.1825 16.6198 42.8475C16.6948 42.915 16.7698 42.9825 16.8448 43.05C16.5898 44.64 16.4023 46.245 16.4023 47.9325C16.4023 49.62 16.5823 51.2775 16.8223 52.7925C15.4723 53.6625 14.9623 54.945 14.7898 55.395L14.7073 55.5825C14.3923 56.3025 13.5073 58.305 14.3623 60.5775C14.6173 61.635 15.1198 62.385 15.4273 62.805C15.7723 63.5925 16.1773 64.245 16.5073 64.7925C16.7023 65.115 16.8898 65.415 17.0248 65.7C17.3698 66.39 17.7448 67.0125 18.0673 67.5675C18.3373 68.025 18.5998 68.46 18.7648 68.7825C19.7173 70.77 21.1573 72.1425 23.0698 72.8625C23.8948 73.17 24.7348 73.3275 25.5523 73.3275C26.2048 73.3275 26.8498 73.23 27.5173 73.02C27.7423 72.945 27.9748 72.87 28.1998 72.795C30.7123 74.835 33.4423 76.4325 36.3523 77.565C36.3973 77.7975 36.4423 78.03 36.4873 78.27C36.8773 80.25 38.0398 81.8925 39.6898 82.7925C40.6948 83.3625 42.0673 84 43.9123 84C45.1948 83.985 46.4773 83.97 47.7673 83.97C49.0573 83.97 50.3323 83.9775 51.6223 84H51.6898C52.8223 84 53.7223 83.715 54.1948 83.565C56.7298 82.755 58.5073 80.8275 59.0773 78.255C59.1223 78.0375 59.1673 77.82 59.2123 77.6025C62.1598 76.455 64.8673 74.8725 67.3948 72.825C67.5898 72.8925 67.7998 72.96 68.0098 73.02C68.4973 73.1625 69.2548 73.3575 70.1473 73.3575C71.1298 73.3575 72.0598 73.1325 72.9373 72.6825L72.9748 72.6675C74.5498 72.03 75.6448 71.0475 76.2448 69.735C76.8598 68.82 77.3548 67.905 77.7973 67.08C78.0448 66.63 78.2848 66.1725 78.5623 65.7075C78.7873 65.325 79.0123 64.935 79.2298 64.5525C79.6348 63.8475 80.0398 63.15 80.4598 62.46C81.0148 61.5675 81.3598 60.5325 81.5173 59.2575C81.7648 57.015 80.8348 54.7725 78.9598 53.1075L78.9448 53.1Z" fill="white"/>
<path d="M40.263 74.1381C36.0855 72.9456 32.4105 70.7481 29.2005 67.6731C28.1955 68.0331 27.168 68.3931 26.1255 68.7381C25.638 68.8881 25.158 68.8356 24.648 68.6406C23.7555 68.3031 23.208 67.6356 22.818 66.8181C22.278 65.7381 21.588 64.7556 21.048 63.6756C20.5605 62.6706 19.8555 61.8006 19.443 60.7581C19.2405 60.2481 18.7005 59.9031 18.7005 59.2581C18.213 58.4631 18.6855 57.7581 18.963 57.0606C19.038 56.8731 19.128 56.6256 19.3005 56.5506C19.9755 56.2506 20.3055 55.5681 20.868 55.1481C21.1305 54.9606 21.408 54.7506 21.708 54.5256C21.2805 52.3431 20.9055 50.1681 20.9055 47.9331C20.9055 45.6981 21.2955 43.5756 21.708 41.4531C20.9805 40.7706 20.3055 40.1106 19.6005 39.4806C18.873 38.8356 18.4455 38.0406 18.5355 37.2081C18.588 36.7506 18.723 36.2631 18.948 35.8806C19.638 34.7631 20.2755 33.5856 20.943 32.4531C21.483 31.5456 21.948 30.5931 22.548 29.7081C22.863 29.2506 23.0505 28.7256 23.3655 28.2456C23.9805 27.3531 25.2105 26.9181 26.223 27.2256C27.1155 27.4881 27.9555 27.8856 28.8705 28.0581C28.9605 28.0806 29.0355 28.2081 29.133 28.3056C32.358 25.2531 36.033 23.0781 40.2555 21.8031C40.4205 21.2931 40.458 20.7381 40.668 20.2131C40.818 19.8156 40.7805 19.3206 40.8555 18.8856C41.058 17.7456 41.748 17.0856 42.738 16.7406C43.0905 16.6281 43.4505 16.5156 43.878 16.5156C46.488 16.5531 49.098 16.5531 51.7155 16.5156C52.458 16.5156 53.0955 16.8156 53.6955 17.1606C54.2355 17.4456 54.5355 18.0531 54.6855 18.6231C54.948 19.6656 55.098 20.7306 55.3005 21.8256C59.5005 23.0406 63.1755 25.2156 66.3855 28.2906C67.3905 27.9306 68.418 27.5706 69.4605 27.2256C69.948 27.0756 70.428 27.1281 70.938 27.3231C71.8305 27.6606 72.378 28.3281 72.768 29.1456C73.308 30.2256 73.998 31.2081 74.538 32.2881C75.0255 33.2931 75.7305 34.1631 76.143 35.2056C76.3455 35.7156 76.8855 36.0606 76.8855 36.7056C77.373 37.5006 76.9005 38.2056 76.623 38.9031C76.548 39.0906 76.458 39.3381 76.2855 39.4131C75.6105 39.7131 75.2805 40.3956 74.718 40.8156C74.4555 41.0031 74.178 41.2131 73.878 41.4381C74.3055 43.6206 74.6805 45.7956 74.6805 48.0306C74.6805 50.2656 74.343 52.3881 73.878 54.5106C74.6055 55.1931 75.2805 55.8531 75.9855 56.4831C76.713 57.1281 77.1405 57.9231 77.0505 58.7556C76.998 59.2131 76.8855 59.7006 76.638 60.0831C75.963 61.1856 75.333 62.3181 74.6805 63.4356C73.863 64.8156 73.188 66.3156 72.2355 67.6206C72.0705 68.3406 71.3955 68.4006 70.908 68.6631C70.383 68.9481 69.8655 68.8731 69.288 68.7006C68.433 68.4531 67.608 68.0181 66.7155 67.9056C66.6255 67.8831 66.5505 67.7556 66.453 67.6581C63.228 70.7481 59.568 72.9456 55.3005 74.1756C55.098 75.1956 54.9105 76.2606 54.6855 77.3031C54.4605 78.3231 53.793 78.9681 52.8405 79.2756C52.488 79.3881 52.113 79.5006 51.7005 79.5006C49.0905 79.4631 46.4805 79.4631 43.863 79.5006C43.1205 79.5006 42.483 79.2006 41.883 78.8556C41.343 78.5706 41.028 77.9631 40.9155 77.3931C40.713 76.2756 40.503 75.2331 40.278 74.1306L40.263 74.1381ZM41.478 57.4431C41.853 57.2331 42.2805 57.1056 42.2955 56.6481C42.333 55.9656 42.423 55.2681 42.2805 54.6231C42.018 53.5206 41.553 52.4631 41.2755 51.3606C41.088 50.6631 40.6755 49.9956 40.698 49.2381C40.098 47.7381 39.7305 46.1706 39.2205 44.6481C38.808 43.3956 38.508 42.1056 38.0655 40.8756C37.8255 40.1931 37.7655 39.4356 37.323 38.8281C37.2855 38.7681 37.2705 38.7306 37.2705 38.7306C36.768 38.3931 36.243 38.5056 35.793 38.5056C35.5305 38.7531 35.3055 38.9631 35.103 39.1506C35.088 39.7581 34.653 40.2306 34.728 40.8156C34.0755 42.2931 33.798 43.8831 33.2505 45.4056C32.973 46.1856 32.8005 46.9806 32.5755 47.7756C32.373 48.5706 31.923 49.2906 31.923 50.1456C31.2105 51.7581 30.858 53.4831 30.3405 55.1706C30.213 55.5906 30.138 55.9881 30.393 56.3856C30.468 56.4981 30.4305 56.6706 30.4305 56.6481C30.7305 56.9706 30.9555 57.1956 31.143 57.4281H32.2605C32.523 57.0906 32.7855 56.7681 33.0255 56.4456C32.973 55.3656 33.1905 54.6456 33.678 53.4906H39.1605C39.3105 54.0981 39.3855 54.6831 39.588 55.2306C39.678 55.4556 39.7755 55.6881 39.738 55.9131C39.6855 56.6106 39.903 57.1656 40.6905 57.4281C40.878 57.4506 41.1555 57.4506 41.4705 57.4506L41.478 57.4431ZM45.843 57.4431C46.3455 57.4056 46.923 57.5556 47.3355 57.1431C47.4855 56.9556 47.613 56.7606 47.8005 56.4981V50.6256C49.1655 50.6256 50.508 50.5656 51.828 50.6481C52.6305 50.6856 53.283 50.4381 53.9205 50.0406C54.2205 49.8531 54.483 49.5681 54.738 49.2981C55.428 48.6156 55.7655 47.7831 55.7805 46.7931V42.1506C55.7805 41.9256 55.728 41.6781 55.668 41.4531C55.4655 40.6356 55.0305 40.0281 54.453 39.5031C53.778 38.8806 52.998 38.4981 52.068 38.4981H45.798C45.5955 38.7231 45.3855 38.9556 45.1455 39.1806V56.7906C45.3855 57.0006 45.6105 57.2256 45.8355 57.4506L45.843 57.4431ZM59.2755 57.4431H63.153C63.378 57.2181 63.603 56.9856 63.828 56.7831V55.6431C63.5505 55.1106 63.1155 54.7881 62.5605 54.7356V41.2806C62.973 41.0706 63.3255 40.8831 63.738 40.6581C63.7905 40.1631 63.828 39.6531 63.8655 39.2931C63.5655 38.9556 63.363 38.7081 63.1905 38.5131H59.388C59.073 38.7981 58.848 39.0081 58.5705 39.2706C58.623 39.7281 58.698 40.2381 58.758 40.6731C59.208 40.8981 59.5605 41.0931 59.8755 41.2581V54.7506C59.688 54.7881 59.4855 54.7506 59.4105 54.8481C59.148 55.1106 58.698 55.1856 58.608 55.6281V56.7681C58.833 56.9931 59.058 57.2256 59.283 57.4506L59.2755 57.4431Z" fill="#66C8FF"/>
<path d="M38.1775 50.5808C37.075 50.6183 35.92 50.6408 34.765 50.6783C34.7275 50.6783 34.675 50.7533 34.5625 50.8508C34.5775 49.6733 35.2375 48.7283 35.305 47.6483C35.8675 46.7033 35.92 45.5858 36.295 44.5208C36.4075 44.6333 36.5725 44.7458 36.5725 44.8433C36.5875 45.6608 37.06 46.3583 37.21 47.1383C37.3225 47.6708 37.6225 48.1808 37.6975 48.7133C37.7725 49.3958 38.2225 49.9058 38.185 50.5883L38.1775 50.5808Z" fill="#66C8FF"/>
<path d="M53.193 46.9055C53.0655 47.1155 52.953 47.3255 52.803 47.513C52.5405 47.813 52.203 47.9855 51.7755 47.9705C50.4705 47.948 49.1655 47.9705 47.823 47.9705V41.1455C49.188 41.1455 50.583 41.123 51.963 41.1455C52.6155 41.168 53.178 41.8505 53.193 42.5705V46.913V46.9055Z" fill="#66C8FF"/>
</svg>
