<svg width="72" height="72" viewBox="0 0 72 72" fill="none" xmlns="http://www.w3.org/2000/svg">
<path d="M66.9448 41.1C66.8773 41.04 66.8098 40.98 66.7423 40.92C67.0273 39.165 67.1623 37.5675 67.1623 36.0225C67.1623 34.32 66.9823 32.6775 66.7423 31.1625C68.0923 30.2925 68.6023 29.01 68.7748 28.56L68.8573 28.3725C69.1723 27.6525 70.0573 25.65 69.2023 23.3775C68.9473 22.32 68.4448 21.57 68.1373 21.15C67.7923 20.3625 67.3873 19.71 67.0498 19.1625C66.8548 18.84 66.6673 18.54 66.5323 18.255C66.1873 17.565 65.8123 16.9425 65.4898 16.395C65.2198 15.9375 64.9573 15.5025 64.7923 15.18C63.8398 13.1925 62.3998 11.8275 60.4873 11.1C59.6623 10.7925 58.8223 10.635 58.0048 10.635C57.3523 10.635 56.7073 10.7325 56.0398 10.9425C55.8148 11.0175 55.5823 11.0925 55.3573 11.1675C52.8598 9.15 50.1373 7.56 47.2348 6.4125C47.1748 6.105 47.0998 5.7975 47.0173 5.4675C46.5148 3.5625 45.3973 2.055 43.8598 1.215C42.8548 0.6375 41.4823 0 39.6298 0C38.3473 0.015 37.0648 0.03 35.7748 0.03C34.4848 0.03 33.2098 0.0225 31.8598 0C30.7273 0 29.8723 0.2775 29.3473 0.4425L29.2498 0.4725C26.6548 1.3725 24.8848 3.4125 24.3973 6.105C24.3823 6.195 24.3673 6.285 24.3598 6.375C21.4423 7.5375 18.7123 9.1275 16.2073 11.1225C15.9748 11.04 15.7423 10.965 15.5098 10.8975C14.8798 10.71 14.2198 10.6125 13.5448 10.6125C11.2198 10.6125 8.96233 11.7825 7.61983 13.7325C7.31233 14.19 7.10233 14.61 6.94483 14.9175C6.89983 15.0075 6.86233 15.09 6.84733 15.12L6.80233 15.1875C6.32233 15.9 5.93233 16.605 5.58733 17.2275C5.41483 17.535 5.24983 17.835 5.06233 18.15C4.78483 18.6225 4.50733 19.1025 4.23733 19.5825C3.86983 20.2275 3.50233 20.88 3.11233 21.5025L3.06733 21.585C2.41483 22.6875 2.16733 23.8575 2.06233 24.6975C1.81483 26.94 2.74483 29.1825 4.61983 30.8475C4.69483 30.915 4.76983 30.9825 4.84483 31.05C4.58983 32.64 4.40233 34.245 4.40233 35.9325C4.40233 37.62 4.58233 39.2775 4.82233 40.7925C3.47233 41.6625 2.96233 42.945 2.78983 43.395L2.70733 43.5825C2.39233 44.3025 1.50733 46.305 2.36233 48.5775C2.61733 49.635 3.11983 50.385 3.42733 50.805C3.77233 51.5925 4.17733 52.245 4.50733 52.7925C4.70233 53.115 4.88983 53.415 5.02483 53.7C5.36983 54.39 5.74483 55.0125 6.06733 55.5675C6.33733 56.025 6.59983 56.46 6.76483 56.7825C7.71733 58.77 9.15733 60.1425 11.0698 60.8625C11.8948 61.17 12.7348 61.3275 13.5523 61.3275C14.2048 61.3275 14.8498 61.23 15.5173 61.02C15.7423 60.945 15.9748 60.87 16.1998 60.795C18.7123 62.835 21.4423 64.4325 24.3523 65.565C24.3973 65.7975 24.4423 66.03 24.4873 66.27C24.8773 68.25 26.0398 69.8925 27.6898 70.7925C28.6948 71.3625 30.0673 72 31.9123 72C33.1948 71.985 34.4773 71.97 35.7673 71.97C37.0573 71.97 38.3323 71.9775 39.6223 72H39.6898C40.8223 72 41.7223 71.715 42.1948 71.565C44.7298 70.755 46.5073 68.8275 47.0773 66.255C47.1223 66.0375 47.1673 65.82 47.2123 65.6025C50.1598 64.455 52.8673 62.8725 55.3948 60.825C55.5898 60.8925 55.7998 60.96 56.0098 61.02C56.4973 61.1625 57.2548 61.3575 58.1473 61.3575C59.1298 61.3575 60.0598 61.1325 60.9373 60.6825L60.9748 60.6675C62.5498 60.03 63.6448 59.0475 64.2448 57.735C64.8598 56.82 65.3548 55.905 65.7973 55.08C66.0448 54.63 66.2848 54.1725 66.5623 53.7075C66.7873 53.325 67.0123 52.935 67.2298 52.5525C67.6348 51.8475 68.0398 51.15 68.4598 50.46C69.0148 49.5675 69.3598 48.5325 69.5173 47.2575C69.7648 45.015 68.8348 42.7725 66.9598 41.1075L66.9448 41.1Z" fill="white"/>
<path d="M28.2631 62.1381C24.0856 60.9456 20.4106 58.7481 17.2006 55.6731C16.1956 56.0331 15.1681 56.3931 14.1256 56.7381C13.6381 56.8881 13.1581 56.8356 12.6481 56.6406C11.7556 56.3031 11.2081 55.6356 10.8181 54.8181C10.2781 53.7381 9.58809 52.7556 9.04809 51.6756C8.56059 50.6706 7.85559 49.8006 7.44309 48.7581C7.24059 48.2481 6.70059 47.9031 6.70059 47.2581C6.21309 46.4631 6.68559 45.7581 6.96309 45.0606C7.03809 44.8731 7.12809 44.6256 7.30059 44.5506C7.97559 44.2506 8.30559 43.5681 8.86809 43.1481C9.13059 42.9606 9.40809 42.7506 9.70809 42.5256C9.28059 40.3431 8.90559 38.1681 8.90559 35.9331C8.90559 33.6981 9.29559 31.5756 9.70809 29.4531C8.98059 28.7706 8.30559 28.1106 7.60059 27.4806C6.87309 26.8356 6.44559 26.0406 6.53559 25.2081C6.58809 24.7506 6.72309 24.2631 6.94809 23.8806C7.63809 22.7631 8.27559 21.5856 8.94309 20.4531C9.48309 19.5456 9.94809 18.5931 10.5481 17.7081C10.8631 17.2506 11.0506 16.7256 11.3656 16.2456C11.9806 15.3531 13.2106 14.9181 14.2231 15.2256C15.1156 15.4881 15.9556 15.8856 16.8706 16.0581C16.9606 16.0806 17.0356 16.2081 17.1331 16.3056C20.3581 13.2531 24.0331 11.0781 28.2556 9.80312C28.4206 9.29312 28.4581 8.73812 28.6681 8.21312C28.8181 7.81562 28.7806 7.32063 28.8556 6.88563C29.0581 5.74563 29.7481 5.08563 30.7381 4.74063C31.0906 4.62813 31.4506 4.51562 31.8781 4.51562C34.4881 4.55313 37.0981 4.55313 39.7156 4.51562C40.4581 4.51562 41.0956 4.81563 41.6956 5.16063C42.2356 5.44563 42.5356 6.05312 42.6856 6.62313C42.9481 7.66562 43.0981 8.73063 43.3006 9.82563C47.5006 11.0406 51.1756 13.2156 54.3856 16.2906C55.3906 15.9306 56.4181 15.5706 57.4606 15.2256C57.9481 15.0756 58.4281 15.1281 58.9381 15.3231C59.8306 15.6606 60.3781 16.3281 60.7681 17.1456C61.3081 18.2256 61.9981 19.2081 62.5381 20.2881C63.0256 21.2931 63.7306 22.1631 64.1431 23.2056C64.3456 23.7156 64.8856 24.0606 64.8856 24.7056C65.3731 25.5006 64.9006 26.2056 64.6231 26.9031C64.5481 27.0906 64.4581 27.3381 64.2856 27.4131C63.6106 27.7131 63.2806 28.3956 62.7181 28.8156C62.4556 29.0031 62.1781 29.2131 61.8781 29.4381C62.3056 31.6206 62.6806 33.7956 62.6806 36.0306C62.6806 38.2656 62.3431 40.3881 61.8781 42.5106C62.6056 43.1931 63.2806 43.8531 63.9856 44.4831C64.7131 45.1281 65.1406 45.9231 65.0506 46.7556C64.9981 47.2131 64.8856 47.7006 64.6381 48.0831C63.9631 49.1856 63.3331 50.3181 62.6806 51.4356C61.8631 52.8156 61.1881 54.3156 60.2356 55.6206C60.0706 56.3406 59.3956 56.4006 58.9081 56.6631C58.3831 56.9481 57.8656 56.8731 57.2881 56.7006C56.4331 56.4531 55.6081 56.0181 54.7156 55.9056C54.6256 55.8831 54.5506 55.7556 54.4531 55.6581C51.2281 58.7481 47.5681 60.9456 43.3006 62.1756C43.0981 63.1956 42.9106 64.2606 42.6856 65.3031C42.4606 66.3231 41.7931 66.9681 40.8406 67.2756C40.4881 67.3881 40.1131 67.5006 39.7006 67.5006C37.0906 67.4631 34.4806 67.4631 31.8631 67.5006C31.1206 67.5006 30.4831 67.2006 29.8831 66.8556C29.3431 66.5706 29.0281 65.9631 28.9156 65.3931C28.7131 64.2756 28.5031 63.2331 28.2781 62.1306L28.2631 62.1381ZM29.4781 45.4431C29.8531 45.2331 30.2806 45.1056 30.2956 44.6481C30.3331 43.9656 30.4231 43.2681 30.2806 42.6231C30.0181 41.5206 29.5531 40.4631 29.2756 39.3606C29.0881 38.6631 28.6756 37.9956 28.6981 37.2381C28.0981 35.7381 27.7306 34.1706 27.2206 32.6481C26.8081 31.3956 26.5081 30.1056 26.0656 28.8756C25.8256 28.1931 25.7656 27.4356 25.3231 26.8281C25.2856 26.7681 25.2706 26.7306 25.2706 26.7306C24.7681 26.3931 24.2431 26.5056 23.7931 26.5056C23.5306 26.7531 23.3056 26.9631 23.1031 27.1506C23.0881 27.7581 22.6531 28.2306 22.7281 28.8156C22.0756 30.2931 21.7981 31.8831 21.2506 33.4056C20.9731 34.1856 20.8006 34.9806 20.5756 35.7756C20.3731 36.5706 19.9231 37.2906 19.9231 38.1456C19.2106 39.7581 18.8581 41.4831 18.3406 43.1706C18.2131 43.5906 18.1381 43.9881 18.3931 44.3856C18.4681 44.4981 18.4306 44.6706 18.4306 44.6481C18.7306 44.9706 18.9556 45.1956 19.1431 45.4281H20.2606C20.5231 45.0906 20.7856 44.7681 21.0256 44.4456C20.9731 43.3656 21.1906 42.6456 21.6781 41.4906H27.1606C27.3106 42.0981 27.3856 42.6831 27.5881 43.2306C27.6781 43.4556 27.7756 43.6881 27.7381 43.9131C27.6856 44.6106 27.9031 45.1656 28.6906 45.4281C28.8781 45.4506 29.1556 45.4506 29.4706 45.4506L29.4781 45.4431ZM33.8431 45.4431C34.3456 45.4056 34.9231 45.5556 35.3356 45.1431C35.4856 44.9556 35.6131 44.7606 35.8006 44.4981V38.6256C37.1656 38.6256 38.5081 38.5656 39.8281 38.6481C40.6306 38.6856 41.2831 38.4381 41.9206 38.0406C42.2206 37.8531 42.4831 37.5681 42.7381 37.2981C43.4281 36.6156 43.7656 35.7831 43.7806 34.7931V30.1506C43.7806 29.9256 43.7281 29.6781 43.6681 29.4531C43.4656 28.6356 43.0306 28.0281 42.4531 27.5031C41.7781 26.8806 40.9981 26.4981 40.0681 26.4981H33.7981C33.5956 26.7231 33.3856 26.9556 33.1456 27.1806V44.7906C33.3856 45.0006 33.6106 45.2256 33.8356 45.4506L33.8431 45.4431ZM47.2756 45.4431H51.1531C51.3781 45.2181 51.6031 44.9856 51.8281 44.7831V43.6431C51.5506 43.1106 51.1156 42.7881 50.5606 42.7356V29.2806C50.9731 29.0706 51.3256 28.8831 51.7381 28.6581C51.7906 28.1631 51.8281 27.6531 51.8656 27.2931C51.5656 26.9556 51.3631 26.7081 51.1906 26.5131H47.3881C47.0731 26.7981 46.8481 27.0081 46.5706 27.2706C46.6231 27.7281 46.6981 28.2381 46.7581 28.6731C47.2081 28.8981 47.5606 29.0931 47.8756 29.2581V42.7506C47.6881 42.7881 47.4856 42.7506 47.4106 42.8481C47.1481 43.1106 46.6981 43.1856 46.6081 43.6281V44.7681C46.8331 44.9931 47.0581 45.2256 47.2831 45.4506L47.2756 45.4431Z" fill="#66C8FF"/>
<path d="M26.1775 38.5809C25.075 38.6184 23.92 38.6409 22.765 38.6784C22.7275 38.6784 22.675 38.7534 22.5625 38.8509C22.5775 37.6734 23.2375 36.7284 23.305 35.6484C23.8675 34.7034 23.92 33.5859 24.295 32.5209C24.4075 32.6334 24.5725 32.7459 24.5725 32.8434C24.5875 33.6609 25.06 34.3584 25.21 35.1384C25.3225 35.6709 25.6225 36.1809 25.6975 36.7134C25.7725 37.3959 26.2225 37.9059 26.185 38.5884L26.1775 38.5809Z" fill="#66C8FF"/>
<path d="M41.1929 34.9054C41.0654 35.1154 40.9529 35.3254 40.8029 35.5129C40.5404 35.8129 40.2029 35.9854 39.7754 35.9704C38.4704 35.9479 37.1654 35.9704 35.8229 35.9704V29.1454C37.1879 29.1454 38.5829 29.1229 39.9629 29.1454C40.6154 29.1679 41.1779 29.8504 41.1929 30.5704V34.9129V34.9054Z" fill="#66C8FF"/>
</svg>
