<svg width="72" height="72" viewBox="0 0 72 72" fill="none" xmlns="http://www.w3.org/2000/svg">
<path fill-rule="evenodd" clip-rule="evenodd" d="M60.5371 34.2128C59.1124 34.2128 57.6952 33.5378 56.8704 32.3378L51.3292 24.5452C50.3544 23.1952 50.2044 21.4027 50.9543 19.9027C51.2542 19.3026 51.6291 18.8526 52.154 18.4776C50.9543 16.9776 49.1622 16.0776 47.1376 16.0776C45.1131 16.0776 41.8213 17.9526 40.9965 20.6452C40.6216 21.8452 39.8718 22.8202 38.822 23.3452C38.1471 23.7202 37.4723 23.8702 36.7225 23.8702C35.9726 23.8702 35.8227 23.8702 35.3728 23.6452C34.0981 23.2702 32.7484 22.9702 31.4062 22.8202C30.0565 22.6702 28.8567 21.9952 28.1144 20.9452C27.3721 19.8952 27.1396 18.4701 27.4396 17.2026C27.6645 16.2276 28.0394 15.3276 28.4143 14.4351C29.4641 12.0351 30.8888 9.86757 32.7559 7.99255C34.6304 6.11753 36.8724 4.62502 39.2719 3.65001C41.7463 2.60001 44.4382 2 47.2126 2C49.987 2 52.6789 2.525 55.1533 3.57501C57.6278 4.62502 59.7948 6.05003 61.6693 7.91755C63.5439 9.78507 65.0361 11.9601 66.0109 14.3601C66.4608 15.3351 66.7607 16.3851 67.0606 17.4276C68.4103 17.6526 69.5351 18.5526 70.2024 19.7526C70.9523 21.2527 70.8773 23.0452 69.8275 24.3952L64.2863 32.1878C63.4614 33.3878 62.1117 34.0628 60.6196 34.0628L60.5446 34.2128H60.5371Z" fill="white"/>
<path fill-rule="evenodd" clip-rule="evenodd" d="M58.2815 69.7916C57.6067 69.7916 56.8569 69.6416 56.257 69.2666C55.1322 68.6666 54.3074 67.6165 53.9325 66.424H39.0334C36.9338 66.424 35.1417 64.999 34.6918 62.9815C34.2419 60.9565 35.2167 58.864 37.0913 57.964C37.2413 57.964 37.3163 57.814 37.4662 57.814H37.6162C39.3408 56.989 40.833 55.9389 42.2576 54.6714C42.4076 54.5214 42.6326 54.3714 42.7825 54.1464L43.3074 53.6214C43.5324 53.3964 43.7573 53.1714 43.9073 52.9464C44.7321 51.8214 46.0818 51.2214 47.424 51.2214H54.015C54.3149 50.0214 55.1397 48.9714 56.3395 48.3789C57.0143 48.0789 57.6892 47.8539 58.364 47.8539C59.0389 47.8539 60.2386 48.1539 60.9884 48.6789L70.1214 55.1964C71.3211 56.0214 71.9959 57.3715 71.9959 58.864C71.9959 60.3565 71.3211 61.7065 70.1214 62.5315L60.9884 69.0491C60.2386 69.5741 59.2638 69.8741 58.364 69.8741L58.289 69.7991L58.2815 69.7916Z" fill="white"/>
<path fill-rule="evenodd" clip-rule="evenodd" d="M66.0659 21.8515L60.5246 29.6441L54.9834 21.8515H58.0502C57.8252 16.084 53.0338 11.4414 47.1926 11.4414C41.3514 11.4414 38.0597 14.7339 36.785 19.234C35.2103 18.709 33.4932 18.409 31.8436 18.259C32.0685 17.509 32.2935 16.834 32.5934 16.084C33.4182 14.2089 34.543 12.4914 36.0351 10.9914C37.4598 9.5664 39.1769 8.36639 41.1265 7.62389C43.076 6.79888 45.1681 6.34888 47.3426 6.34888C49.5171 6.34888 51.6091 6.79888 53.5587 7.62389C55.4333 8.44889 57.1504 9.5739 58.65 10.9914C60.0747 12.4164 61.2744 14.1339 62.0917 16.084C62.8416 17.884 63.2915 19.8265 63.3665 21.8515H66.4333H66.0584H66.0659Z" fill="#FF7F69"/>
<path fill-rule="evenodd" clip-rule="evenodd" d="M58.2821 65.295V61.9275H39.0414C39.1914 61.9275 39.3414 61.7775 39.4164 61.7025C41.5159 60.7274 43.4579 59.3774 45.1076 57.8099C45.3325 57.5849 45.5575 57.3599 45.7824 57.2099C46.0074 56.9849 46.2323 56.7599 46.4573 56.4599C46.7572 56.1599 46.9822 55.8599 47.2821 55.5599H58.2146V52.1924L67.3476 58.7099L58.2146 65.2275L58.2896 65.3025L58.2821 65.295Z" fill="#7D65F5"/>
<path fill-rule="evenodd" clip-rule="evenodd" d="M4.5158 66.4902C2.04136 66.4902 0.0243163 64.4652 0.0243163 61.9976V55.6301C0.0243163 53.1551 2.04886 51.1376 4.5158 51.1376H6.16543L0.84913 43.72C-0.12565 42.37 -0.275616 40.5775 0.474215 39.0774C1.14906 37.7274 2.49876 36.8274 3.99092 36.6774C4.29085 34.7274 4.89072 32.8599 5.64055 31.0599C6.99025 27.9174 8.85732 25.1423 11.1818 22.7498C13.5813 20.3498 16.3481 18.4823 19.4899 17.2073C22.7067 15.8573 26.0809 15.1823 29.5977 15.1823C33.1144 15.1823 30.8724 15.1823 31.6222 15.2573C33.7217 15.4073 35.7388 15.8573 37.6883 16.4573C38.5131 16.6823 39.113 16.9823 39.7879 17.2823C42.8547 18.5573 45.629 20.4248 48.021 22.8248C50.413 25.2248 52.2875 27.9924 53.5622 31.1349C54.9119 34.3524 55.5868 37.7274 55.5868 41.245C55.5868 44.7625 54.9119 48.1375 53.5622 51.3551C52.4375 54.1226 50.7954 56.5976 48.7708 58.7726C48.7708 58.7726 48.021 59.5976 47.946 59.5976C47.796 59.7476 47.2712 60.2726 47.1962 60.3476C45.2466 62.1476 43.1546 63.5652 40.7551 64.6902C40.4552 64.8402 40.1553 64.9902 39.7804 65.1402H39.6304C37.4559 66.0402 35.1389 66.5652 32.6645 66.5652H4.5158V66.4902ZM30.8049 51.1376C36.2711 51.1376 40.8376 46.72 40.9126 41.2525V41.1025C40.9126 34.8849 35.8962 29.8674 29.6801 29.8674C23.464 29.8674 20.9221 32.7849 19.1975 36.9099C20.1723 37.2849 21.0721 38.0349 21.522 39.0099C22.2718 40.51 22.1968 42.3025 21.1471 43.6525L15.8308 51.07H30.7299L30.8049 51.145V51.1376Z" fill="white"/>
<path fill-rule="evenodd" clip-rule="evenodd" d="M51.1753 41.1013C51.1753 44.0188 50.5754 46.7939 49.4507 49.4864C48.4759 51.7364 47.1262 53.8289 45.4841 55.6289C45.2591 55.8539 45.0342 56.0789 44.8092 56.3039L44.2094 56.9039C42.6347 58.4039 40.7676 59.604 38.8181 60.5715C38.5181 60.7215 38.2932 60.7965 37.9933 60.9465C36.3436 61.6215 34.6265 61.9965 32.8269 61.9965H4.52081V55.6289H30.8024C38.7431 55.6289 45.2516 49.2614 45.4016 41.3263V41.1013C45.4016 32.4162 38.3607 25.3737 29.6776 25.3737C20.9946 25.3737 13.9537 32.4162 13.9537 41.1013H17.6204L11.1043 50.2364L4.5883 41.1013H8.25497C8.25497 38.1838 8.85484 35.4088 9.97958 32.7162C11.1043 30.1662 12.604 27.8487 14.621 25.8987C16.5706 23.9487 18.8876 22.3812 21.437 21.2561C24.0614 20.1311 26.9033 19.5311 29.8201 19.5311C32.7369 19.5311 30.9449 19.5311 31.5447 19.5311C33.2693 19.6811 34.9115 19.9811 36.4861 20.5061C37.086 20.7311 37.6109 20.8811 38.2107 21.1811C40.7601 22.3062 43.0771 23.8062 45.0267 25.8237C46.9762 27.7737 48.5434 30.0912 49.6681 32.6412C50.7929 35.2663 51.3927 38.1088 51.3927 41.0263L51.1678 41.1013H51.1753Z" fill="#F565CB"/>
</svg>
