<svg width="96" height="96" viewBox="0 0 96 96" fill="none" xmlns="http://www.w3.org/2000/svg">
<path fill-rule="evenodd" clip-rule="evenodd" d="M72.537 46.2128C71.1124 46.2128 69.6952 45.5378 68.8704 44.3378L63.3291 36.5452C62.3543 35.1952 62.2044 33.4027 62.9542 31.9027C63.2541 31.3026 63.629 30.8526 64.1539 30.4776C62.9542 28.9776 61.1621 28.0776 59.1376 28.0776C57.113 28.0776 53.8213 29.9526 52.9964 32.6452C52.6215 33.8452 51.8717 34.8202 50.8219 35.3452C50.1471 35.7202 49.4722 35.8702 48.7224 35.8702C47.9726 35.8702 47.8226 35.8702 47.3727 35.6452C46.098 35.2702 44.7483 34.9702 43.4061 34.8202C42.0564 34.6702 40.8567 33.9952 40.1143 32.9452C39.372 31.8952 39.1396 30.4701 39.4395 29.2026C39.6644 28.2276 40.0394 27.3276 40.4143 26.4351C41.464 24.0351 42.8887 21.8676 44.7558 19.9926C46.6304 18.1175 48.8724 16.625 51.2718 15.65C53.7463 14.6 56.4382 14 59.2125 14C61.9869 14 64.6788 14.525 67.1533 15.575C69.6277 16.625 71.7947 18.05 73.6693 19.9176C75.5439 21.7851 77.036 23.9601 78.0108 26.3601C78.4607 27.3351 78.7606 28.3851 79.0606 29.4276C80.4103 29.6526 81.535 30.5526 82.2024 31.7526C82.9522 33.2527 82.8772 35.0452 81.8274 36.3952L76.2862 44.1878C75.4614 45.3878 74.1117 46.0628 72.6195 46.0628L72.5445 46.2128H72.537Z" fill="white"/>
<path fill-rule="evenodd" clip-rule="evenodd" d="M70.2814 81.7917C69.6066 81.7917 68.8567 81.6417 68.2569 81.2667C67.1321 80.6667 66.3073 79.6167 65.9324 78.4242H51.0332C48.9337 78.4242 47.1416 76.9991 46.6917 74.9816C46.2418 72.9566 47.2166 70.8641 49.0912 69.9641C49.2412 69.9641 49.3161 69.8141 49.4661 69.8141H49.6161C51.3407 68.9891 52.8328 67.9391 54.2575 66.6716C54.4075 66.5216 54.6324 66.3716 54.7824 66.1466L55.3073 65.6216C55.5322 65.3965 55.7572 65.1715 55.9071 64.9465C56.732 63.8215 58.0817 63.2215 59.4239 63.2215H66.0149C66.3148 62.0215 67.1396 60.9715 68.3393 60.379C69.0142 60.079 69.689 59.854 70.3639 59.854C71.0387 59.854 72.2385 60.154 72.9883 60.679L82.1212 67.1966C83.321 68.0216 83.9958 69.3716 83.9958 70.8641C83.9958 72.3566 83.321 73.7066 82.1212 74.5316L72.9883 81.0492C72.2385 81.5742 71.2637 81.8742 70.3639 81.8742L70.2889 81.7992L70.2814 81.7917Z" fill="white"/>
<path fill-rule="evenodd" clip-rule="evenodd" d="M78.0658 33.8515L72.5245 41.6441L66.9833 33.8515H70.0501C69.8252 28.084 65.0337 23.4414 59.1925 23.4414C53.3514 23.4414 50.0596 26.7339 48.7849 31.234C47.2102 30.709 45.4931 30.409 43.8435 30.259C44.0685 29.509 44.2934 28.834 44.5933 28.084C45.4182 26.2089 46.5429 24.4914 48.0351 22.9914C49.4597 21.5664 51.1769 20.3664 53.1264 19.6239C55.076 18.7989 57.168 18.3489 59.3425 18.3489C61.517 18.3489 63.6091 18.7989 65.5586 19.6239C67.4332 20.4489 69.1503 21.5739 70.65 22.9914C72.0746 24.4164 73.2744 26.1339 74.0917 28.084C74.8415 29.884 75.2914 31.8265 75.3664 33.8515H78.4332H78.0583H78.0658Z" fill="#FF7F69"/>
<path fill-rule="evenodd" clip-rule="evenodd" d="M70.2822 77.295V73.9275H51.0415C51.1915 73.9275 51.3414 73.7775 51.4164 73.7025C53.5159 72.7274 55.458 71.3774 57.1076 69.8099C57.3326 69.5849 57.5575 69.3599 57.7825 69.2099C58.0074 68.9849 58.2324 68.7599 58.4573 68.4599C58.7573 68.1599 58.9822 67.8599 59.2821 67.5599H70.2147V64.1924L79.3476 70.7099L70.2147 77.2275L70.2897 77.3025L70.2822 77.295Z" fill="#7D65F5"/>
<path fill-rule="evenodd" clip-rule="evenodd" d="M16.5158 78.4901C14.0414 78.4901 12.0243 76.465 12.0243 73.9975V67.63C12.0243 65.1549 14.0489 63.1374 16.5158 63.1374H18.1654L12.8491 55.7199C11.8744 54.3699 11.7244 52.5773 12.4742 51.0773C13.1491 49.7273 14.4988 48.8273 15.9909 48.6773C16.2909 46.7273 16.8907 44.8598 17.6406 43.0598C18.9902 39.9172 20.8573 37.1422 23.1818 34.7497C25.5813 32.3497 28.3481 30.4822 31.4899 29.2071C34.7067 27.8571 38.0809 27.1821 41.5977 27.1821C45.1144 27.1821 42.8724 27.1821 43.6222 27.2571C45.7217 27.4071 47.7388 27.8571 49.6883 28.4571C50.5131 28.6821 51.113 28.9821 51.7879 29.2821C54.8547 30.5572 57.629 32.4247 60.021 34.8247C62.413 37.2247 64.2875 39.9922 65.5622 43.1348C66.9119 46.3523 67.5868 49.7273 67.5868 53.2448C67.5868 56.7624 66.9119 60.1374 65.5622 63.3549C64.4375 66.1225 62.7954 68.5975 60.7708 70.7725C60.7708 70.7725 60.021 71.5975 59.946 71.5975C59.796 71.7475 59.2712 72.2725 59.1962 72.3475C57.2466 74.1475 55.1546 75.565 52.7551 76.69C52.4552 76.84 52.1553 76.99 51.7804 77.14H51.6304C49.4559 78.0401 47.1389 78.5651 44.6645 78.5651H16.5158V78.4901ZM42.8049 63.1374C48.2711 63.1374 52.8376 58.7199 52.9126 53.2523V53.1023C52.9126 46.8848 47.8962 41.8673 41.6801 41.8673C35.464 41.8673 32.9221 44.7848 31.1975 48.9098C32.1723 49.2848 33.0721 50.0348 33.522 51.0098C34.2718 52.5098 34.1968 54.3024 33.1471 55.6524L27.8308 63.0699H42.7299L42.8049 63.1449V63.1374Z" fill="white"/>
<path fill-rule="evenodd" clip-rule="evenodd" d="M63.1752 53.1014C63.1752 56.019 62.5754 58.794 61.4506 61.4865C60.4758 63.7365 59.1261 65.829 57.484 67.629C57.2591 67.854 57.0341 68.0791 56.8092 68.3041L56.2093 68.9041C54.6347 70.4041 52.7676 71.6041 50.818 72.5716C50.5181 72.7216 50.2931 72.7966 49.9932 72.9466C48.3436 73.6216 46.6265 73.9966 44.8269 73.9966H16.5208V67.629H42.8023C50.743 67.629 57.2516 61.2615 57.4015 53.3264V53.1014C57.4015 44.4164 50.3606 37.3738 41.6776 37.3738C32.9945 37.3738 25.9536 44.4164 25.9536 53.1014H29.6203L23.1043 62.2365L16.5882 53.1014H20.2549C20.2549 50.1839 20.8548 47.4089 21.9795 44.7164C23.1043 42.1663 24.6039 39.8488 26.621 37.8988C28.5705 35.9488 30.8875 34.3813 33.4369 33.2563C36.0613 32.1313 38.9032 31.5312 41.82 31.5312C44.7369 31.5312 42.9448 31.5312 43.5447 31.5312C45.2693 31.6813 46.9114 31.9813 48.486 32.5063C49.0859 32.7313 49.6108 32.8813 50.2107 33.1813C52.7601 34.3063 55.0771 35.8063 57.0266 37.8238C58.9762 39.7738 60.5433 42.0913 61.6681 44.6414C62.7928 47.2664 63.3927 50.1089 63.3927 53.0264L63.1677 53.1014H63.1752Z" fill="#F565CB"/>
</svg>
