<svg width="96" height="96" viewBox="0 0 96 96" fill="none" xmlns="http://www.w3.org/2000/svg">
<g clip-path="url(#clip0_3_3255)">
<path d="M73.35 12H22.65C16.7682 12 12 16.7682 12 22.65V73.35C12 79.2318 16.7682 84 22.65 84H73.35C79.2318 84 84 79.2318 84 73.35V22.65C84 16.7682 79.2318 12 73.35 12Z" fill="white"/>
<path d="M73.35 16.5H22.65C19.2534 16.5 16.5 19.2534 16.5 22.65V73.35C16.5 76.7466 19.2534 79.5 22.65 79.5H73.35C76.7466 79.5 79.5 76.7466 79.5 73.35V22.65C79.5 19.2534 76.7466 16.5 73.35 16.5Z" fill="#3178C6"/>
<path d="M73.35 16.5H22.65C19.2534 16.5 16.5 19.2534 16.5 22.65V73.35C16.5 76.7466 19.2534 79.5 22.65 79.5H73.35C76.7466 79.5 79.5 76.7466 79.5 73.35V22.65C79.5 19.2534 76.7466 16.5 73.35 16.5Z" fill="#3178C6"/>
<path fill-rule="evenodd" clip-rule="evenodd" d="M55.5145 66.5958V72.7457C56.4895 73.2708 57.6895 73.6458 59.0395 73.8707C60.3895 74.0957 61.8145 74.2457 63.3895 74.2457C64.9645 74.2457 66.2395 74.0958 67.5895 73.7957C68.9395 73.4958 70.0645 73.0457 71.1145 72.3707C72.0895 71.6957 72.9145 70.8707 73.5145 69.8207C74.1145 68.7707 74.4145 67.4958 74.4145 65.9208C74.4145 64.3458 74.2645 63.8207 73.8895 62.9958C73.5145 62.1707 73.0645 61.4207 72.4645 60.7458C71.8645 60.0708 71.1145 59.4708 70.2145 59.0208C69.3145 58.5708 68.3395 58.0458 67.2145 57.5208C66.3895 57.2208 65.7145 56.8458 65.0395 56.5458C64.3645 56.2458 63.8395 55.9457 63.3895 55.5707C62.9395 55.2707 62.5645 54.8958 62.3395 54.5208C62.1145 54.1458 61.9645 53.7708 61.9645 53.2458C61.9645 52.7208 62.0395 52.4208 62.2645 52.1208C62.4895 51.8208 62.7895 51.5208 63.1645 51.2208C63.5395 50.9958 64.0645 50.7708 64.6645 50.6208C65.2645 50.4708 65.8645 50.3958 66.6145 50.3958C67.3645 50.3958 67.6645 50.3958 68.2645 50.5458C68.8645 50.6208 69.3895 50.7708 69.9895 50.9208C70.5895 51.0708 71.1145 51.2958 71.6395 51.5208C72.1645 51.7458 72.6895 52.0458 73.1395 52.3458V46.5708C72.2395 46.1958 71.1895 45.9708 70.0645 45.7458C68.9395 45.5208 67.6645 45.5208 66.2395 45.5208C64.8145 45.5208 63.3895 45.6708 62.1145 45.9708C60.8395 46.2708 59.6395 46.7958 58.6645 47.4708C57.6895 48.1458 56.8645 48.9708 56.3395 50.0208C55.7395 51.0708 55.4395 52.2707 55.4395 53.6957C55.4395 55.1207 55.9645 57.0708 57.0145 58.4208C58.0645 59.6958 59.7145 60.8208 61.8145 61.7208C62.6395 62.0958 63.4645 62.3957 64.2145 62.7707C64.9645 63.1457 65.5645 63.4457 66.0895 63.8207C66.6145 64.1957 67.0645 64.5707 67.3645 65.0207C67.6645 65.4707 67.8145 65.9207 67.8145 66.4457C67.8145 66.9707 67.7395 67.1957 67.5145 67.5707C67.2895 67.9457 67.0645 68.1708 66.6145 68.4708C66.1645 68.7708 65.7145 68.9207 65.1145 69.0707C64.5145 69.2207 63.8395 69.2958 63.0895 69.2958C61.7395 69.2958 60.4645 69.0707 59.1145 68.6208C57.8395 68.1707 56.5645 67.4207 55.4395 66.5207L55.5145 66.5958ZM45.1645 51.4457H53.0395V46.4208H30.9895V51.4457H38.8645V73.9457H45.0895V51.4457H45.1645Z" fill="white"/>
</g>
<defs>
<clipPath id="clip0_3_3255">
<rect width="72" height="72" fill="white" transform="translate(12 12)"/>
</clipPath>
</defs>
</svg>
