<svg width="72" height="72" viewBox="0 0 72 72" fill="none" xmlns="http://www.w3.org/2000/svg">
<g clip-path="url(#clip0_2_1330)">
<path d="M61.35 0H10.65C4.76817 0 0 4.76817 0 10.65V61.35C0 67.2318 4.76817 72 10.65 72H61.35C67.2318 72 72 67.2318 72 61.35V10.65C72 4.76817 67.2318 0 61.35 0Z" fill="white"/>
<path d="M61.35 4.5H10.65C7.25345 4.5 4.5 7.25345 4.5 10.65V61.35C4.5 64.7466 7.25345 67.5 10.65 67.5H61.35C64.7466 67.5 67.5 64.7466 67.5 61.35V10.65C67.5 7.25345 64.7466 4.5 61.35 4.5Z" fill="#3178C6"/>
<path d="M61.35 4.5H10.65C7.25345 4.5 4.5 7.25345 4.5 10.65V61.35C4.5 64.7466 7.25345 67.5 10.65 67.5H61.35C64.7466 67.5 67.5 64.7466 67.5 61.35V10.65C67.5 7.25345 64.7466 4.5 61.35 4.5Z" fill="#3178C6"/>
<path fill-rule="evenodd" clip-rule="evenodd" d="M43.5146 54.5959V60.7459C44.4896 61.2709 45.6896 61.6459 47.0396 61.8709C48.3896 62.0959 49.8146 62.2459 51.3896 62.2459C52.9646 62.2459 54.2396 62.0959 55.5896 61.7959C56.9396 61.4959 58.0646 61.0459 59.1146 60.3709C60.0896 59.6959 60.9146 58.8709 61.5146 57.8209C62.1146 56.7709 62.4146 55.4959 62.4146 53.9209C62.4146 52.3459 62.2646 51.8209 61.8896 50.9959C61.5146 50.1709 61.0646 49.4209 60.4646 48.7459C59.8646 48.0709 59.1146 47.4709 58.2146 47.0209C57.3146 46.5709 56.3396 46.0459 55.2146 45.5209C54.3896 45.2209 53.7146 44.8459 53.0396 44.5459C52.3646 44.2459 51.8396 43.9459 51.3896 43.5709C50.9396 43.2709 50.5646 42.8959 50.3396 42.5209C50.1146 42.1459 49.9646 41.7709 49.9646 41.2459C49.9646 40.7209 50.0396 40.4209 50.2646 40.1209C50.4896 39.8209 50.7896 39.5209 51.1646 39.2209C51.5396 38.9959 52.0646 38.7709 52.6646 38.6209C53.2646 38.4709 53.8646 38.3959 54.6146 38.3959C55.3646 38.3959 55.6646 38.3959 56.2646 38.5459C56.8646 38.6209 57.3896 38.7709 57.9896 38.9209C58.5896 39.0709 59.1146 39.2959 59.6396 39.5209C60.1646 39.7459 60.6896 40.0459 61.1396 40.3459V34.5709C60.2396 34.1959 59.1896 33.9709 58.0646 33.7459C56.9396 33.5209 55.6646 33.5209 54.2396 33.5209C52.8146 33.5209 51.3896 33.6709 50.1146 33.9709C48.8396 34.2709 47.6396 34.7959 46.6646 35.4709C45.6896 36.1459 44.8646 36.9709 44.3396 38.0209C43.7396 39.0709 43.4396 40.2709 43.4396 41.6959C43.4396 43.1209 43.9646 45.0709 45.0146 46.4209C46.0646 47.6959 47.7146 48.8209 49.8146 49.7209C50.6396 50.0959 51.4646 50.3959 52.2146 50.7709C52.9646 51.1459 53.5646 51.4459 54.0896 51.8209C54.6146 52.1959 55.0646 52.5709 55.3646 53.0209C55.6646 53.4709 55.8146 53.9209 55.8146 54.4459C55.8146 54.9709 55.7396 55.1959 55.5146 55.5709C55.2896 55.9459 55.0646 56.1709 54.6146 56.4709C54.1646 56.7709 53.7146 56.9209 53.1146 57.0709C52.5146 57.2209 51.8396 57.2959 51.0896 57.2959C49.7396 57.2959 48.4646 57.0709 47.1146 56.6209C45.8396 56.1709 44.5646 55.4209 43.4396 54.5209L43.5146 54.5959ZM33.1646 39.4459H41.0396V34.4209H18.9896V39.4459H26.8646V61.9459H33.0896V39.4459H33.1646Z" fill="white"/>
</g>
<defs>
<clipPath id="clip0_2_1330">
<rect width="72" height="72" fill="white"/>
</clipPath>
</defs>
</svg>
