<svg width="15" height="14" viewBox="0 0 15 14" fill="none" xmlns="http://www.w3.org/2000/svg">
<path d="M12.4623 7.81545L0.762015 7.80985C0.598889 7.80975 0.473722 7.75932 0.386512 7.65856C0.299204 7.55769 0.25555 7.42565 0.25555 7.26243C0.255648 7.0993 0.304213 6.96922 0.401244 6.87219C0.498274 6.77516 0.628352 6.7266 0.791478 6.7265L12.4623 6.7209L7.38216 1.64078C7.27363 1.53226 7.21908 1.40483 7.21849 1.2585C7.218 1.11227 7.27157 0.985334 7.37921 0.877697C7.48694 0.769961 7.61486 0.715405 7.76296 0.714031C7.91126 0.712656 8.03967 0.766229 8.14819 0.87475L14.0678 6.79441C14.2021 6.92866 14.2692 7.08654 14.2692 7.26803C14.2692 7.44971 14.2022 7.60763 14.068 7.74179L8.14819 13.6616C8.03967 13.7701 7.91229 13.8246 7.76606 13.8251C7.61972 13.8257 7.49274 13.7722 7.3851 13.6645C7.27736 13.5568 7.22281 13.4288 7.22144 13.2805C7.22006 13.1324 7.27363 13.0041 7.38216 12.8956L12.4623 7.81545Z" fill="#F8F7E5"/>
</svg>
