<svg width="40" height="40" viewBox="0 0 40 40" fill="none" xmlns="http://www.w3.org/2000/svg">
<g clip-path="url(#clip0_2_1701)">
<g clip-path="url(#clip1_2_1701)">
<path d="M29.09 25.52C28.85 25.52 28.61 25.46 28.39 25.35L23.72 22.95C22.52 23.23 21.27 23.37 20.01 23.37C11.81 23.37 6.91001 17.56 4.72001 14.1C3.78001 12.61 3.78001 10.75 4.72001 9.26C6.90001 5.81 11.8 0 20 0C28.2 0 33.1 5.81 35.29 9.27C36.23 10.76 36.23 12.62 35.29 14.11C34.37 15.57 32.82 17.65 30.62 19.46V23.98C30.62 24.83 29.93 25.52 29.09 25.52Z" fill="white"/>
<path d="M28.84 24.46L23.83 21.89C22.65 22.2 21.37 22.38 19.99 22.38C12.16 22.38 7.47999 16.64 5.53999 13.57C4.79999 12.41 4.79999 10.96 5.53999 9.8C7.48999 6.74 12.17 1 20 1C27.83 1 32.51 6.74 34.45 9.81C35.19 10.97 35.19 12.42 34.45 13.58C33.51 15.07 31.91 17.2 29.62 18.99V23.99C29.62 24.39 29.2 24.65 28.84 24.47V24.46Z" fill="#C7F2FF"/>
<path d="M19.97 13.52C20.8537 13.52 21.57 12.8037 21.57 11.92C21.57 11.0364 20.8537 10.32 19.97 10.32C19.0863 10.32 18.37 11.0364 18.37 11.92C18.37 12.8037 19.0863 13.52 19.97 13.52Z" fill="white"/>
<path d="M25.62 13.52C26.5036 13.52 27.22 12.8037 27.22 11.92C27.22 11.0364 26.5036 10.32 25.62 10.32C24.7363 10.32 24.02 11.0364 24.02 11.92C24.02 12.8037 24.7363 13.52 25.62 13.52Z" fill="white"/>
<path d="M14.32 13.52C15.2036 13.52 15.92 12.8037 15.92 11.92C15.92 11.0364 15.2036 10.32 14.32 10.32C13.4363 10.32 12.72 11.0364 12.72 11.92C12.72 12.8037 13.4363 13.52 14.32 13.52Z" fill="white"/>
</g>
</g>
<defs>
<clipPath id="clip0_2_1701">
<rect width="40" height="40" fill="white"/>
</clipPath>
<clipPath id="clip1_2_1701">
<rect width="32" height="25.52" fill="white" transform="translate(4)"/>
</clipPath>
</defs>
</svg>
