<svg width="40" height="40" viewBox="0 0 40 40" fill="none" xmlns="http://www.w3.org/2000/svg">
<g clip-path="url(#clip0_2_1681)">
<g clip-path="url(#clip1_2_1681)">
<path d="M16.4754 31.99C15.9756 31.99 15.5057 31.7201 15.2658 31.2802C15.0159 30.8404 15.0159 30.2905 15.2758 29.8607L16.6454 27.8113L11.1271 20.4536C10.8072 20.0337 10.7472 19.4639 10.9872 18.9941C11.2271 18.5142 11.7069 18.2143 12.2468 18.2143H13.5863C15.9256 18.2143 18.1149 19.274 19.6045 21.1134L21.4339 23.4027C21.6038 23.3727 21.7838 23.3327 21.9637 23.2927C21.9837 23.2927 22.1537 23.2527 22.1937 23.2327L22.2936 23.1928C24.0031 22.553 27.572 21.2134 27.572 19.224C27.572 18.1243 26.1624 18.0744 26.1024 18.0744H25.2927V19.5339C25.2927 20.5036 24.5029 21.2933 23.5432 21.2933C23.2733 21.2933 22.9934 21.2234 22.7435 21.1034L22.6135 21.0334C21.4539 20.4436 20.5842 19.354 20.2443 18.0744H12.6666C10.4473 17.9644 8.288 17.1047 6.53855 15.6451C6.49856 15.6051 6.45857 15.5651 6.41859 15.5251C5.61884 14.8354 4.94904 14.0456 4.42921 13.1759C3.8094 12.1762 3.87938 10.8566 4.59915 9.9169C8.26801 5.01843 14.5061 1.97938 20.8641 1.97938H22.5835C22.8135 1.97938 23.0434 1.97938 23.2733 1.99938C25.0928 0.909716 27.2721 0.209934 29.4414 0C29.4714 0 29.6013 0 29.6313 0C30.771 0 31.7007 0.929709 31.7007 2.07935V5.55826C34.4298 8.08747 35.9893 11.6464 35.9893 15.3852C35.9893 22.6329 30.3111 28.5211 23.0734 28.781C22.9734 28.781 22.8335 28.791 22.6935 28.791L21.8238 30.0706C21.024 31.2802 19.6644 32 18.2149 32H16.4754V31.99Z" fill="white"/>
<path d="M30.7053 2.07815C30.7053 1.44835 30.1655 0.948508 29.5357 1.00849C27.3964 1.20843 25.237 1.9382 23.5276 3.01786C23.2177 2.99787 22.9078 2.98787 22.5879 2.98787H20.8584C14.9203 2.98787 8.95213 5.787 5.38325 10.5255C4.9134 11.1453 4.87341 12.0051 5.27328 12.6648C5.77313 13.5046 6.43292 14.2543 7.19268 14.8842H21.0683V16.8635C21.0683 18.2531 21.8481 19.5327 23.0977 20.1625L23.1977 20.2125C23.6975 20.4724 24.2873 20.1025 24.2873 19.5327V14.8742H26.9065C28.1461 15.234 29.4457 15.444 30.7153 15.444V14.8742H30.7553V21.1822L22.6379 25.081L22.208 24.2712C21.9881 24.3212 21.7581 24.3712 21.5382 24.4112C21.2383 24.4612 20.9284 24.3512 20.7385 24.1113L18.849 21.752C17.5594 20.1525 15.65 19.2228 13.6107 19.2228H12.2711C11.9412 19.2228 11.7413 19.6027 11.9512 19.8626L17.5494 27.3303C17.7494 27.6002 17.7594 27.9701 17.5694 28.26L16.1599 30.3793C15.9999 30.6492 16.1899 30.9991 16.4998 30.9991H18.2392C19.3489 30.9991 20.3986 30.4393 21.0284 29.5096L21.9381 28.16C22.098 27.9201 22.3579 27.7801 22.6479 27.7801C22.7878 27.7801 22.9278 27.7801 23.0677 27.7701C29.7056 27.5302 35.024 22.0819 35.024 15.374C35.024 11.6252 33.3645 8.26622 30.7353 5.99693V2.07815H30.7053Z" fill="#9B9B9B"/>
<path d="M27.4945 13.7742V11.185C27.4945 10.985 27.6845 10.8351 27.9144 10.8851C30.8035 11.6648 32.9129 14.324 32.8829 17.473C32.8629 19.7523 31.6532 21.8616 29.7338 23.1112L28.7142 23.771C26.7348 25.0606 24.4955 25.9004 22.1662 26.2603V24.2809C22.2762 24.2609 22.3662 24.2309 22.4761 24.2009C24.4655 23.4511 28.5642 21.9916 28.5642 19.2325C28.5642 17.573 26.9347 17.1031 26.125 17.0831H12.6592C10.6798 16.9832 8.72041 16.1734 7.1709 14.8838L8.68043 13.5842C10.8897 11.6848 13.7089 10.6451 16.6079 10.6451H23.9856C24.1456 10.6451 24.2756 10.7751 24.2756 10.9351C24.2756 12.2446 24.9254 13.4743 26.025 14.214L26.3249 14.404C26.8148 14.7339 27.4945 14.374 27.4945 13.7742Z" fill="#D3D3D3"/>
<path d="M18.9328 11.7137C18.9328 12.0136 19.1728 12.2535 19.4727 12.2535C19.7726 12.2535 20.0125 12.0136 20.0125 11.7137V9.56437C20.0125 9.27446 19.7726 9.02454 19.4727 9.02454C19.1728 9.02454 18.9328 9.26446 18.9328 9.56437V11.7137Z" fill="#636363"/>
<path d="M21.065 11.7137C21.065 12.0136 21.3049 12.2535 21.6048 12.2535C21.9047 12.2535 22.1446 12.0136 22.1446 11.7137V9.56437C22.1446 9.26446 21.9047 9.02454 21.6048 9.02454C21.3049 9.02454 21.065 9.26446 21.065 9.56437V11.7137Z" fill="#636363"/>
<path d="M14.1218 11.7151C14.7118 11.7151 15.1918 11.2351 15.1918 10.6451C15.1918 10.0551 14.7118 9.57513 14.1218 9.57513C13.5318 9.57513 13.0518 10.0551 13.0518 10.6451C13.0518 11.2351 13.5318 11.7151 14.1218 11.7151Z" fill="#1C1C1C"/>
</g>
</g>
<defs>
<clipPath id="clip0_2_1681">
<rect width="40" height="40" fill="white"/>
</clipPath>
<clipPath id="clip1_2_1681">
<rect width="32" height="32" fill="white" transform="translate(4)"/>
</clipPath>
</defs>
</svg>
