<svg width="40" height="40" viewBox="0 0 40 40" fill="none" xmlns="http://www.w3.org/2000/svg">
<g clip-path="url(#clip0_2_1756)">
<g clip-path="url(#clip1_2_1756)">
<path d="M9.28998 32C8.35998 32 7.44998 31.76 6.64998 31.29C5.01998 30.35 4.00998 28.59 4.00998 26.71V5.29C3.99998 2.37 6.36998 0 9.28998 0H30.72C33.63 0 36.01 2.37 36.01 5.29V26.72C36.01 28.6 35 30.36 33.37 31.3C32.57 31.76 9.29998 32.01 9.29998 32.01L9.28998 32Z" fill="white"/>
<path d="M5 5.29C5 2.92 6.92 1 9.29 1H30.72C33.09 1 35.01 2.92 35.01 5.29V26.72C35.01 28.31 34.15 29.69 32.87 30.43L31.32 29.93C30.25 29.59 29.09 29.68 28.09 30.18L26.44 31.01H23.23L20.02 29.4L16.81 31.01H13.6L11.95 30.18C10.95 29.68 9.79 29.59 8.72 29.93L7.17 30.43C5.89 29.69 5.03 28.3 5.03 26.72V5.29H5Z" fill="#C6E9F4"/>
<path d="M13.57 10.64V21.35H5V22.42H13.57V30.99H14.64V22.42H25.35V30.99H26.42V22.42H34.99V21.35H26.42V10.64H34.99V9.57H26.42V1H25.35V9.57H14.64V1H13.57V9.57H5V10.64H13.57ZM14.64 10.64H25.35V21.35H14.64V10.64Z" fill="#95AFB7"/>
<path d="M9.28997 31H13.58V9.8C13.58 9.08 12.99 8.5 12.27 8.5H8.46997C7.73997 8.5 7.15997 9.08 7.15997 9.8V30.43C7.78997 30.79 8.51997 31 9.29997 31H9.28997Z" fill="#39DAFF"/>
<path d="M21.9 17.07H18.1C17.37 17.07 16.79 17.65 16.79 18.37V31H23.22V18.37C23.22 17.65 22.63 17.07 21.91 17.07H21.9Z" fill="#29A5C5"/>
<path d="M26.43 31H30.72C31.5 31 32.23 30.79 32.86 30.43V6.58003C32.86 5.86003 32.27 5.28003 31.55 5.28003H27.75C27.02 5.28003 26.44 5.86003 26.44 6.58003V31H26.43Z" fill="#196F8C"/>
</g>
</g>
<defs>
<clipPath id="clip0_2_1756">
<rect width="40" height="40" fill="white"/>
</clipPath>
<clipPath id="clip1_2_1756">
<rect width="32" height="32" fill="white" transform="translate(4)"/>
</clipPath>
</defs>
</svg>
