<svg width="40" height="40" viewBox="0 0 40 40" fill="none" xmlns="http://www.w3.org/2000/svg">
<g clip-path="url(#clip0_2_1734)">
<g clip-path="url(#clip1_2_1734)">
<path d="M13.83 28.82C13.44 28.82 13.08 28.65 12.84 28.35C12.6 28.06 12.51 27.68 12.58 27.31C12.83 26.09 13.9 25.21 15.14 25.21H15.52V24.6C13.11 23.48 11.18 21.47 10.16 19.04C9.50001 19.22 8.82001 19.32 8.13001 19.33H8.03001C7.11001 19.33 6.22001 19.18 5.37001 18.87C4.71001 18.64 4.21001 18.09 4.06001 17.4C3.90001 16.7 4.11001 15.98 4.62001 15.47L11.38 8.71C11.42 8.65 11.45 8.61 11.48 8.57C11.49 4.09 14.8 0.44 19.21 0.04C19.46 0.02 19.73 0 20 0C20.27 0 20.54 0.01 20.79 0.04C25.19 0.45 28.51 4.09 28.51 8.51L28.6 8.67L35.39 15.47C35.9 15.98 36.11 16.7 35.95 17.4C35.79 18.09 35.3 18.64 34.63 18.88C33.79 19.18 32.9 19.33 31.98 19.33H31.88C31.19 19.33 30.5 19.22 29.84 19.04C28.82 21.47 26.9 23.47 24.5 24.59V25.2H24.87C26.12 25.2 27.2 26.09 27.43 27.31C27.5 27.67 27.41 28.05 27.17 28.34C26.93 28.64 26.57 28.81 26.18 28.81H13.84L13.83 28.82Z" fill="white"/>
<path d="M18.13 26.21H21.88L21.86 19.77H23.47L23.49 26.21H24.85C25.63 26.21 26.29 26.77 26.43 27.51C26.46 27.67 26.33 27.82 26.16 27.82H13.82C13.65 27.82 13.52 27.67 13.55 27.51C13.7 26.77 14.34 26.21 15.13 26.21H16.51L16.49 19.77H18.1L18.12 26.21H18.13Z" fill="#FF822D"/>
<path d="M15.15 11.3C15.16 9.88 14.75 8.55 14.06 7.44L5.32 16.17C4.76 16.73 4.97 17.67 5.71 17.93C6.46 18.2 7.28 18.34 8.12 18.33C11.96 18.29 15.1 15.15 15.15 11.3Z" fill="#F9C23C"/>
<path d="M24.85 11.31C24.84 9.88 25.24 8.55 25.94 7.44L34.67 16.18C35.23 16.74 35.02 17.68 34.28 17.94C33.53 18.21 32.71 18.35 31.87 18.34C28.03 18.3 24.89 15.16 24.84 11.31H24.85Z" fill="#F9C23C"/>
<path d="M27.72 9.16C27.58 8.97 27.51 8.74 27.51 8.51C27.51 4.59 24.52 1.39 20.7 1.03C20.47 1.01 20.24 1 20 1C19.76 1 19.53 1.01 19.3 1.03C15.48 1.38 12.49 4.6 12.49 8.51C12.49 8.75 12.41 8.97 12.28 9.16C11.07 10.77 10.35 12.78 10.35 14.94C10.35 20.27 14.67 24.59 20 24.59C25.33 24.59 29.65 20.27 29.65 14.94C29.65 12.77 28.93 10.77 27.72 9.16Z" fill="#FCD53F"/>
<path d="M16.79 6.89999C16.79 7.19999 16.55 7.43999 16.25 7.43999C15.95 7.43999 15.71 7.19999 15.71 6.89999C15.71 6.59999 15.95 6.35999 16.25 6.35999C16.55 6.35999 16.79 6.59999 16.79 6.89999Z" fill="#212121"/>
<path d="M24.3 6.89999C24.3 7.19999 24.06 7.43999 23.76 7.43999C23.46 7.43999 23.22 7.19999 23.22 6.89999C23.22 6.59999 23.46 6.35999 23.76 6.35999C24.06 6.35999 24.3 6.59999 24.3 6.89999Z" fill="#212121"/>
<path d="M19.99 6.35999C18.81 6.35999 17.84 7.32999 17.84 8.50999H22.13C22.13 7.32999 21.16 6.35999 19.98 6.35999H19.99Z" fill="#FF822D"/>
</g>
</g>
<defs>
<clipPath id="clip0_2_1734">
<rect width="40" height="40" fill="white"/>
</clipPath>
<clipPath id="clip1_2_1734">
<rect width="32" height="28.82" fill="white" transform="translate(4)"/>
</clipPath>
</defs>
</svg>
