<svg width="40" height="40" viewBox="0 0 40 40" fill="none" xmlns="http://www.w3.org/2000/svg">
<circle cx="20" cy="17" r="17" fill="#D9D9D9"/>
<g clip-path="url(#clip0_474_1139)">
<path d="M20 1C11.1636 1 4 8.16356 4 17C4 25.8364 11.1636 33 20 33C28.8364 33 36 25.8364 36 17C36 8.16356 28.8364 1 20 1ZM5.82222 17.8889H9.36267C9.44444 20.1164 9.82667 22.2187 10.4551 24.1111H7.696C6.62311 22.2596 5.96267 20.1476 5.82222 17.8889ZM20.8889 8.11111V2.84978C23.3307 3.23733 25.4773 5.20978 26.9324 8.11111H20.8889ZM27.6898 9.88889C28.36 11.7404 28.7733 13.8533 28.8604 16.1111H20.8889V9.88889H27.6898ZM19.1111 2.84978V8.11111H13.0676C14.5218 5.20978 16.6693 3.23733 19.1111 2.84978ZM19.1111 9.88889V16.1111H11.1396C11.2267 13.8533 11.64 11.7404 12.3102 9.88889H19.1111ZM9.36356 16.1111H5.82222C5.96267 13.8533 6.62311 11.7404 7.69511 9.88889H10.4542C9.82756 11.7813 9.44533 13.8844 9.36356 16.1111ZM11.1396 17.8889H19.1111V24.1111H12.3102C11.64 22.2596 11.2267 20.1476 11.1396 17.8889ZM19.1111 25.8889V31.1502C16.6693 30.7618 14.5218 28.7902 13.0676 25.8889H19.1111ZM20.8889 31.1502V25.8889H26.9333C25.4782 28.7902 23.3307 30.7618 20.8889 31.1502ZM20.8889 24.1111V17.8889H28.8613C28.7733 20.1476 28.3609 22.2596 27.6907 24.1111H20.8889ZM30.6373 17.8889H34.1769C34.0373 20.1476 33.3769 22.2596 32.304 24.1111H29.5449C30.1724 22.2187 30.5547 20.1164 30.6373 17.8889ZM30.6373 16.1111C30.5547 13.8844 30.1724 11.7813 29.5449 9.88889H32.304C33.3769 11.7404 34.0373 13.8533 34.1769 16.1111H30.6373ZM31.0924 8.11111H28.8676C28.2302 6.68533 27.44 5.43111 26.5396 4.37867C28.3076 5.296 29.8569 6.57067 31.0924 8.11111ZM13.4604 4.37867C12.5591 5.43111 11.7689 6.68533 11.1316 8.11111H8.90756C10.1431 6.57067 11.6924 5.29689 13.4604 4.37867ZM8.90756 25.8889H11.1324C11.7689 27.3147 12.5591 28.5689 13.4604 29.6204C11.6924 28.7031 10.1431 27.4293 8.90756 25.8889ZM26.5396 29.6204C27.4409 28.568 28.2302 27.3147 28.8676 25.8889H31.0924C29.8569 27.4293 28.3076 28.7031 26.5396 29.6204Z" fill="#3B88C3"/>
</g>
<defs>
<clipPath id="clip0_474_1139">
<rect width="32" height="32" fill="white" transform="translate(4 1)"/>
</clipPath>
</defs>
</svg>
