<svg width="266" height="263" viewBox="0 0 266 263" fill="none" xmlns="http://www.w3.org/2000/svg">
<g clip-path="url(#clip0_3_3177)">
<path d="M263.808 149.258L258.793 170.686L184.746 155.716L243.01 204.295L229.292 221.466L168.963 175.969L200.382 244.801L180.468 254.341L145.952 187.417L144.182 263H122.057L120.287 187.71L85.6233 255.075L65.7102 245.535L96.9811 176.997L36.3569 222.787L22.639 205.469L80.6081 157.184L6.1185 172.3L1.10336 150.873L74.5605 132.381L0.80835 113.742L5.67599 92.3142L79.8706 107.284L21.6064 58.7054L35.3243 41.534L95.6535 87.0307L64.2352 18.1987L84.1482 8.65904L118.664 75.7299L120.434 0H142.56L144.33 75.2896L178.846 7.92523L198.907 17.4649L167.636 86.0033L228.26 40.2132L241.978 57.5312L184.009 105.816L258.498 90.6998L263.366 112.127L190.056 130.619L263.808 149.258Z" fill="#679AAC"/>
</g>
<defs>
<clipPath id="clip0_3_3177">
<rect width="263" height="263" fill="white" transform="matrix(1 0 0 -1 0.80835 263)"/>
</clipPath>
</defs>
</svg>
